<?xml version="1.0" encoding="utf-8" standalone="no"?>
<!DOCTYPE svg PUBLIC "-//W3C//DTD SVG 1.1//EN"
  "http://www.w3.org/Graphics/SVG/1.1/DTD/svg11.dtd">
<!-- Created with matplotlib (https://matplotlib.org/) -->
<svg height="360pt" version="1.1" viewBox="0 0 1080 360" width="1080pt" xmlns="http://www.w3.org/2000/svg" xmlns:xlink="http://www.w3.org/1999/xlink">
 <metadata>
  <rdf:RDF xmlns:cc="http://creativecommons.org/ns#" xmlns:dc="http://purl.org/dc/elements/1.1/" xmlns:rdf="http://www.w3.org/1999/02/22-rdf-syntax-ns#">
   <cc:Work>
    <dc:type rdf:resource="http://purl.org/dc/dcmitype/StillImage"/>
    <dc:date>2023-06-14T11:57:38.321772</dc:date>
    <dc:format>image/svg+xml</dc:format>
    <dc:creator>
     <cc:Agent>
      <dc:title>Matplotlib v3.3.3, https://matplotlib.org/</dc:title>
     </cc:Agent>
    </dc:creator>
   </cc:Work>
  </rdf:RDF>
 </metadata>
 <defs>
  <style type="text/css">*{stroke-linecap:butt;stroke-linejoin:round;}</style>
 </defs>
 <g id="figure_1">
  <g id="patch_1">
   <path d="M 0 360 
L 1080 360 
L 1080 0 
L 0 0 
z
" style="fill:none;"/>
  </g>
  <g id="axes_1">
   <g id="patch_2">
    <path d="M 135 315 
L 515.454545 315 
L 515.454545 43.2 
L 135 43.2 
z
" style="fill:#ffffff;"/>
   </g>
   <g id="patch_3">
    <path clip-path="url(#p780a85cf9a)" d="M 152.293388 315 
L 161.641166 315 
L 161.641166 254.092437 
L 152.293388 254.092437 
z
" style="fill:#ffff00;fill-opacity:0.75;stroke:#000000;stroke-linejoin:miter;stroke-width:0.934778;"/>
   </g>
   <g id="patch_4">
    <path clip-path="url(#p780a85cf9a)" d="M 161.641166 315 
L 170.988943 315 
L 170.988943 304.123649 
L 161.641166 304.123649 
z
" style="fill:#ffff00;fill-opacity:0.75;stroke:#000000;stroke-linejoin:miter;stroke-width:0.934778;"/>
   </g>
   <g id="patch_5">
    <path clip-path="url(#p780a85cf9a)" d="M 170.988943 315 
L 180.336721 315 
L 180.336721 260.618247 
L 170.988943 260.618247 
z
" style="fill:#ffff00;fill-opacity:0.75;stroke:#000000;stroke-linejoin:miter;stroke-width:0.934778;"/>
   </g>
   <g id="patch_6">
    <path clip-path="url(#p780a85cf9a)" d="M 180.336721 315 
L 189.684499 315 
L 189.684499 256.267707 
L 180.336721 256.267707 
z
" style="fill:#ffff00;fill-opacity:0.75;stroke:#000000;stroke-linejoin:miter;stroke-width:0.934778;"/>
   </g>
   <g id="patch_7">
    <path clip-path="url(#p780a85cf9a)" d="M 189.684499 315 
L 199.032276 315 
L 199.032276 232.339736 
L 189.684499 232.339736 
z
" style="fill:#ffff00;fill-opacity:0.75;stroke:#000000;stroke-linejoin:miter;stroke-width:0.934778;"/>
   </g>
   <g id="patch_8">
    <path clip-path="url(#p780a85cf9a)" d="M 199.032276 315 
L 208.380054 315 
L 208.380054 243.216086 
L 199.032276 243.216086 
z
" style="fill:#ffff00;fill-opacity:0.75;stroke:#000000;stroke-linejoin:miter;stroke-width:0.934778;"/>
   </g>
   <g id="patch_9">
    <path clip-path="url(#p780a85cf9a)" d="M 208.380054 315 
L 217.727831 315 
L 217.727831 230.164466 
L 208.380054 230.164466 
z
" style="fill:#ffff00;fill-opacity:0.75;stroke:#000000;stroke-linejoin:miter;stroke-width:0.934778;"/>
   </g>
   <g id="patch_10">
    <path clip-path="url(#p780a85cf9a)" d="M 217.727831 315 
L 227.075609 315 
L 227.075609 273.669868 
L 217.727831 273.669868 
z
" style="fill:#ffff00;fill-opacity:0.75;stroke:#000000;stroke-linejoin:miter;stroke-width:0.934778;"/>
   </g>
   <g id="patch_11">
    <path clip-path="url(#p780a85cf9a)" d="M 227.075609 315 
L 236.423386 315 
L 236.423386 271.494598 
L 227.075609 271.494598 
z
" style="fill:#ffff00;fill-opacity:0.75;stroke:#000000;stroke-linejoin:miter;stroke-width:0.934778;"/>
   </g>
   <g id="patch_12">
    <path clip-path="url(#p780a85cf9a)" d="M 236.423386 315 
L 245.771164 315 
L 245.771164 271.494598 
L 236.423386 271.494598 
z
" style="fill:#ffff00;fill-opacity:0.75;stroke:#000000;stroke-linejoin:miter;stroke-width:0.934778;"/>
   </g>
   <g id="patch_13">
    <path clip-path="url(#p780a85cf9a)" d="M 245.771164 315 
L 255.118941 315 
L 255.118941 295.422569 
L 245.771164 295.422569 
z
" style="fill:#ffff00;fill-opacity:0.75;stroke:#000000;stroke-linejoin:miter;stroke-width:0.934778;"/>
   </g>
   <g id="patch_14">
    <path clip-path="url(#p780a85cf9a)" d="M 255.118941 315 
L 264.466719 315 
L 264.466719 310.64946 
L 255.118941 310.64946 
z
" style="fill:#ffff00;fill-opacity:0.75;stroke:#000000;stroke-linejoin:miter;stroke-width:0.934778;"/>
   </g>
   <g id="patch_15">
    <path clip-path="url(#p780a85cf9a)" d="M 264.466719 315 
L 273.814496 315 
L 273.814496 275.845138 
L 264.466719 275.845138 
z
" style="fill:#ffff00;fill-opacity:0.75;stroke:#000000;stroke-linejoin:miter;stroke-width:0.934778;"/>
   </g>
   <g id="patch_16">
    <path clip-path="url(#p780a85cf9a)" d="M 273.814496 315 
L 283.162274 315 
L 283.162274 315 
L 273.814496 315 
z
" style="fill:#ffff00;fill-opacity:0.75;stroke:#000000;stroke-linejoin:miter;stroke-width:0.934778;"/>
   </g>
   <g id="patch_17">
    <path clip-path="url(#p780a85cf9a)" d="M 283.162274 315 
L 292.510051 315 
L 292.510051 312.82473 
L 283.162274 312.82473 
z
" style="fill:#ffff00;fill-opacity:0.75;stroke:#000000;stroke-linejoin:miter;stroke-width:0.934778;"/>
   </g>
   <g id="patch_18">
    <path clip-path="url(#p780a85cf9a)" d="M 292.510051 315 
L 301.857829 315 
L 301.857829 310.64946 
L 292.510051 310.64946 
z
" style="fill:#ffff00;fill-opacity:0.75;stroke:#000000;stroke-linejoin:miter;stroke-width:0.934778;"/>
   </g>
   <g id="patch_19">
    <path clip-path="url(#p780a85cf9a)" d="M 301.857829 315 
L 311.205606 315 
L 311.205606 306.29892 
L 301.857829 306.29892 
z
" style="fill:#ffff00;fill-opacity:0.75;stroke:#000000;stroke-linejoin:miter;stroke-width:0.934778;"/>
   </g>
   <g id="patch_20">
    <path clip-path="url(#p780a85cf9a)" d="M 311.205606 315 
L 320.553384 315 
L 320.553384 315 
L 311.205606 315 
z
" style="fill:#ffff00;fill-opacity:0.75;stroke:#000000;stroke-linejoin:miter;stroke-width:0.934778;"/>
   </g>
   <g id="patch_21">
    <path clip-path="url(#p780a85cf9a)" d="M 320.553384 315 
L 329.901161 315 
L 329.901161 312.82473 
L 320.553384 312.82473 
z
" style="fill:#ffff00;fill-opacity:0.75;stroke:#000000;stroke-linejoin:miter;stroke-width:0.934778;"/>
   </g>
   <g id="patch_22">
    <path clip-path="url(#p780a85cf9a)" d="M 329.901161 315 
L 339.248939 315 
L 339.248939 315 
L 329.901161 315 
z
" style="fill:#ffff00;fill-opacity:0.75;stroke:#000000;stroke-linejoin:miter;stroke-width:0.934778;"/>
   </g>
   <g id="patch_23">
    <path clip-path="url(#p780a85cf9a)" d="M 339.248939 315 
L 348.596717 315 
L 348.596717 312.82473 
L 339.248939 312.82473 
z
" style="fill:#ffff00;fill-opacity:0.75;stroke:#000000;stroke-linejoin:miter;stroke-width:0.934778;"/>
   </g>
   <g id="patch_24">
    <path clip-path="url(#p780a85cf9a)" d="M 348.596717 315 
L 357.944494 315 
L 357.944494 312.82473 
L 348.596717 312.82473 
z
" style="fill:#ffff00;fill-opacity:0.75;stroke:#000000;stroke-linejoin:miter;stroke-width:0.934778;"/>
   </g>
   <g id="patch_25">
    <path clip-path="url(#p780a85cf9a)" d="M 357.944494 315 
L 367.292272 315 
L 367.292272 315 
L 357.944494 315 
z
" style="fill:#ffff00;fill-opacity:0.75;stroke:#000000;stroke-linejoin:miter;stroke-width:0.934778;"/>
   </g>
   <g id="patch_26">
    <path clip-path="url(#p780a85cf9a)" d="M 367.292272 315 
L 376.640049 315 
L 376.640049 315 
L 367.292272 315 
z
" style="fill:#ffff00;fill-opacity:0.75;stroke:#000000;stroke-linejoin:miter;stroke-width:0.934778;"/>
   </g>
   <g id="patch_27">
    <path clip-path="url(#p780a85cf9a)" d="M 376.640049 315 
L 385.987827 315 
L 385.987827 315 
L 376.640049 315 
z
" style="fill:#ffff00;fill-opacity:0.75;stroke:#000000;stroke-linejoin:miter;stroke-width:0.934778;"/>
   </g>
   <g id="patch_28">
    <path clip-path="url(#p780a85cf9a)" d="M 385.987827 315 
L 395.335604 315 
L 395.335604 315 
L 385.987827 315 
z
" style="fill:#ffff00;fill-opacity:0.75;stroke:#000000;stroke-linejoin:miter;stroke-width:0.934778;"/>
   </g>
   <g id="patch_29">
    <path clip-path="url(#p780a85cf9a)" d="M 395.335604 315 
L 404.683382 315 
L 404.683382 315 
L 395.335604 315 
z
" style="fill:#ffff00;fill-opacity:0.75;stroke:#000000;stroke-linejoin:miter;stroke-width:0.934778;"/>
   </g>
   <g id="patch_30">
    <path clip-path="url(#p780a85cf9a)" d="M 404.683382 315 
L 414.031159 315 
L 414.031159 315 
L 404.683382 315 
z
" style="fill:#ffff00;fill-opacity:0.75;stroke:#000000;stroke-linejoin:miter;stroke-width:0.934778;"/>
   </g>
   <g id="patch_31">
    <path clip-path="url(#p780a85cf9a)" d="M 414.031159 315 
L 423.378937 315 
L 423.378937 315 
L 414.031159 315 
z
" style="fill:#ffff00;fill-opacity:0.75;stroke:#000000;stroke-linejoin:miter;stroke-width:0.934778;"/>
   </g>
   <g id="patch_32">
    <path clip-path="url(#p780a85cf9a)" d="M 423.378937 315 
L 432.726714 315 
L 432.726714 315 
L 423.378937 315 
z
" style="fill:#ffff00;fill-opacity:0.75;stroke:#000000;stroke-linejoin:miter;stroke-width:0.934778;"/>
   </g>
   <g id="patch_33">
    <path clip-path="url(#p780a85cf9a)" d="M 432.726714 315 
L 442.074492 315 
L 442.074492 312.82473 
L 432.726714 312.82473 
z
" style="fill:#ffff00;fill-opacity:0.75;stroke:#000000;stroke-linejoin:miter;stroke-width:0.934778;"/>
   </g>
   <g id="patch_34">
    <path clip-path="url(#p780a85cf9a)" d="M 442.074492 315 
L 451.422269 315 
L 451.422269 315 
L 442.074492 315 
z
" style="fill:#ffff00;fill-opacity:0.75;stroke:#000000;stroke-linejoin:miter;stroke-width:0.934778;"/>
   </g>
   <g id="patch_35">
    <path clip-path="url(#p780a85cf9a)" d="M 451.422269 315 
L 460.770047 315 
L 460.770047 315 
L 451.422269 315 
z
" style="fill:#ffff00;fill-opacity:0.75;stroke:#000000;stroke-linejoin:miter;stroke-width:0.934778;"/>
   </g>
   <g id="patch_36">
    <path clip-path="url(#p780a85cf9a)" d="M 460.770047 315 
L 470.117824 315 
L 470.117824 315 
L 460.770047 315 
z
" style="fill:#ffff00;fill-opacity:0.75;stroke:#000000;stroke-linejoin:miter;stroke-width:0.934778;"/>
   </g>
   <g id="patch_37">
    <path clip-path="url(#p780a85cf9a)" d="M 470.117824 315 
L 479.465602 315 
L 479.465602 315 
L 470.117824 315 
z
" style="fill:#ffff00;fill-opacity:0.75;stroke:#000000;stroke-linejoin:miter;stroke-width:0.934778;"/>
   </g>
   <g id="patch_38">
    <path clip-path="url(#p780a85cf9a)" d="M 479.465602 315 
L 488.813379 315 
L 488.813379 315 
L 479.465602 315 
z
" style="fill:#ffff00;fill-opacity:0.75;stroke:#000000;stroke-linejoin:miter;stroke-width:0.934778;"/>
   </g>
   <g id="patch_39">
    <path clip-path="url(#p780a85cf9a)" d="M 488.813379 315 
L 498.161157 315 
L 498.161157 312.82473 
L 488.813379 312.82473 
z
" style="fill:#ffff00;fill-opacity:0.75;stroke:#000000;stroke-linejoin:miter;stroke-width:0.934778;"/>
   </g>
   <g id="patch_40">
    <path clip-path="url(#p780a85cf9a)" d="M 152.293388 254.092437 
L 161.641166 254.092437 
L 161.641166 254.092437 
L 152.293388 254.092437 
z
" style="fill:#0000ff;fill-opacity:0.75;stroke:#000000;stroke-linejoin:miter;stroke-width:0.934778;"/>
   </g>
   <g id="patch_41">
    <path clip-path="url(#p780a85cf9a)" d="M 161.641166 304.123649 
L 170.988943 304.123649 
L 170.988943 304.123649 
L 161.641166 304.123649 
z
" style="fill:#0000ff;fill-opacity:0.75;stroke:#000000;stroke-linejoin:miter;stroke-width:0.934778;"/>
   </g>
   <g id="patch_42">
    <path clip-path="url(#p780a85cf9a)" d="M 170.988943 260.618247 
L 180.336721 260.618247 
L 180.336721 258.442977 
L 170.988943 258.442977 
z
" style="fill:#0000ff;fill-opacity:0.75;stroke:#000000;stroke-linejoin:miter;stroke-width:0.934778;"/>
   </g>
   <g id="patch_43">
    <path clip-path="url(#p780a85cf9a)" d="M 180.336721 256.267707 
L 189.684499 256.267707 
L 189.684499 247.566627 
L 180.336721 247.566627 
z
" style="fill:#0000ff;fill-opacity:0.75;stroke:#000000;stroke-linejoin:miter;stroke-width:0.934778;"/>
   </g>
   <g id="patch_44">
    <path clip-path="url(#p780a85cf9a)" d="M 189.684499 232.339736 
L 199.032276 232.339736 
L 199.032276 212.762305 
L 189.684499 212.762305 
z
" style="fill:#0000ff;fill-opacity:0.75;stroke:#000000;stroke-linejoin:miter;stroke-width:0.934778;"/>
   </g>
   <g id="patch_45">
    <path clip-path="url(#p780a85cf9a)" d="M 199.032276 243.216086 
L 208.380054 243.216086 
L 208.380054 188.834334 
L 199.032276 188.834334 
z
" style="fill:#0000ff;fill-opacity:0.75;stroke:#000000;stroke-linejoin:miter;stroke-width:0.934778;"/>
   </g>
   <g id="patch_46">
    <path clip-path="url(#p780a85cf9a)" d="M 208.380054 230.164466 
L 217.727831 230.164466 
L 217.727831 182.308523 
L 208.380054 182.308523 
z
" style="fill:#0000ff;fill-opacity:0.75;stroke:#000000;stroke-linejoin:miter;stroke-width:0.934778;"/>
   </g>
   <g id="patch_47">
    <path clip-path="url(#p780a85cf9a)" d="M 217.727831 273.669868 
L 227.075609 273.669868 
L 227.075609 201.885954 
L 217.727831 201.885954 
z
" style="fill:#0000ff;fill-opacity:0.75;stroke:#000000;stroke-linejoin:miter;stroke-width:0.934778;"/>
   </g>
   <g id="patch_48">
    <path clip-path="url(#p780a85cf9a)" d="M 227.075609 271.494598 
L 236.423386 271.494598 
L 236.423386 208.411765 
L 227.075609 208.411765 
z
" style="fill:#0000ff;fill-opacity:0.75;stroke:#000000;stroke-linejoin:miter;stroke-width:0.934778;"/>
   </g>
   <g id="patch_49">
    <path clip-path="url(#p780a85cf9a)" d="M 236.423386 271.494598 
L 245.771164 271.494598 
L 245.771164 193.184874 
L 236.423386 193.184874 
z
" style="fill:#0000ff;fill-opacity:0.75;stroke:#000000;stroke-linejoin:miter;stroke-width:0.934778;"/>
   </g>
   <g id="patch_50">
    <path clip-path="url(#p780a85cf9a)" d="M 245.771164 295.422569 
L 255.118941 295.422569 
L 255.118941 214.937575 
L 245.771164 214.937575 
z
" style="fill:#0000ff;fill-opacity:0.75;stroke:#000000;stroke-linejoin:miter;stroke-width:0.934778;"/>
   </g>
   <g id="patch_51">
    <path clip-path="url(#p780a85cf9a)" d="M 255.118941 310.64946 
L 264.466719 310.64946 
L 264.466719 254.092437 
L 255.118941 254.092437 
z
" style="fill:#0000ff;fill-opacity:0.75;stroke:#000000;stroke-linejoin:miter;stroke-width:0.934778;"/>
   </g>
   <g id="patch_52">
    <path clip-path="url(#p780a85cf9a)" d="M 264.466719 275.845138 
L 273.814496 275.845138 
L 273.814496 217.112845 
L 264.466719 217.112845 
z
" style="fill:#0000ff;fill-opacity:0.75;stroke:#000000;stroke-linejoin:miter;stroke-width:0.934778;"/>
   </g>
   <g id="patch_53">
    <path clip-path="url(#p780a85cf9a)" d="M 273.814496 315 
L 283.162274 315 
L 283.162274 284.546218 
L 273.814496 284.546218 
z
" style="fill:#0000ff;fill-opacity:0.75;stroke:#000000;stroke-linejoin:miter;stroke-width:0.934778;"/>
   </g>
   <g id="patch_54">
    <path clip-path="url(#p780a85cf9a)" d="M 283.162274 312.82473 
L 292.510051 312.82473 
L 292.510051 286.721489 
L 283.162274 286.721489 
z
" style="fill:#0000ff;fill-opacity:0.75;stroke:#000000;stroke-linejoin:miter;stroke-width:0.934778;"/>
   </g>
   <g id="patch_55">
    <path clip-path="url(#p780a85cf9a)" d="M 292.510051 310.64946 
L 301.857829 310.64946 
L 301.857829 295.422569 
L 292.510051 295.422569 
z
" style="fill:#0000ff;fill-opacity:0.75;stroke:#000000;stroke-linejoin:miter;stroke-width:0.934778;"/>
   </g>
   <g id="patch_56">
    <path clip-path="url(#p780a85cf9a)" d="M 301.857829 306.29892 
L 311.205606 306.29892 
L 311.205606 297.597839 
L 301.857829 297.597839 
z
" style="fill:#0000ff;fill-opacity:0.75;stroke:#000000;stroke-linejoin:miter;stroke-width:0.934778;"/>
   </g>
   <g id="patch_57">
    <path clip-path="url(#p780a85cf9a)" d="M 311.205606 315 
L 320.553384 315 
L 320.553384 308.47419 
L 311.205606 308.47419 
z
" style="fill:#0000ff;fill-opacity:0.75;stroke:#000000;stroke-linejoin:miter;stroke-width:0.934778;"/>
   </g>
   <g id="patch_58">
    <path clip-path="url(#p780a85cf9a)" d="M 320.553384 312.82473 
L 329.901161 312.82473 
L 329.901161 308.47419 
L 320.553384 308.47419 
z
" style="fill:#0000ff;fill-opacity:0.75;stroke:#000000;stroke-linejoin:miter;stroke-width:0.934778;"/>
   </g>
   <g id="patch_59">
    <path clip-path="url(#p780a85cf9a)" d="M 329.901161 315 
L 339.248939 315 
L 339.248939 310.64946 
L 329.901161 310.64946 
z
" style="fill:#0000ff;fill-opacity:0.75;stroke:#000000;stroke-linejoin:miter;stroke-width:0.934778;"/>
   </g>
   <g id="patch_60">
    <path clip-path="url(#p780a85cf9a)" d="M 339.248939 312.82473 
L 348.596717 312.82473 
L 348.596717 312.82473 
L 339.248939 312.82473 
z
" style="fill:#0000ff;fill-opacity:0.75;stroke:#000000;stroke-linejoin:miter;stroke-width:0.934778;"/>
   </g>
   <g id="patch_61">
    <path clip-path="url(#p780a85cf9a)" d="M 348.596717 312.82473 
L 357.944494 312.82473 
L 357.944494 310.64946 
L 348.596717 310.64946 
z
" style="fill:#0000ff;fill-opacity:0.75;stroke:#000000;stroke-linejoin:miter;stroke-width:0.934778;"/>
   </g>
   <g id="patch_62">
    <path clip-path="url(#p780a85cf9a)" d="M 357.944494 315 
L 367.292272 315 
L 367.292272 315 
L 357.944494 315 
z
" style="fill:#0000ff;fill-opacity:0.75;stroke:#000000;stroke-linejoin:miter;stroke-width:0.934778;"/>
   </g>
   <g id="patch_63">
    <path clip-path="url(#p780a85cf9a)" d="M 367.292272 315 
L 376.640049 315 
L 376.640049 315 
L 367.292272 315 
z
" style="fill:#0000ff;fill-opacity:0.75;stroke:#000000;stroke-linejoin:miter;stroke-width:0.934778;"/>
   </g>
   <g id="patch_64">
    <path clip-path="url(#p780a85cf9a)" d="M 376.640049 315 
L 385.987827 315 
L 385.987827 315 
L 376.640049 315 
z
" style="fill:#0000ff;fill-opacity:0.75;stroke:#000000;stroke-linejoin:miter;stroke-width:0.934778;"/>
   </g>
   <g id="patch_65">
    <path clip-path="url(#p780a85cf9a)" d="M 385.987827 315 
L 395.335604 315 
L 395.335604 312.82473 
L 385.987827 312.82473 
z
" style="fill:#0000ff;fill-opacity:0.75;stroke:#000000;stroke-linejoin:miter;stroke-width:0.934778;"/>
   </g>
   <g id="patch_66">
    <path clip-path="url(#p780a85cf9a)" d="M 395.335604 315 
L 404.683382 315 
L 404.683382 315 
L 395.335604 315 
z
" style="fill:#0000ff;fill-opacity:0.75;stroke:#000000;stroke-linejoin:miter;stroke-width:0.934778;"/>
   </g>
   <g id="patch_67">
    <path clip-path="url(#p780a85cf9a)" d="M 404.683382 315 
L 414.031159 315 
L 414.031159 315 
L 404.683382 315 
z
" style="fill:#0000ff;fill-opacity:0.75;stroke:#000000;stroke-linejoin:miter;stroke-width:0.934778;"/>
   </g>
   <g id="patch_68">
    <path clip-path="url(#p780a85cf9a)" d="M 414.031159 315 
L 423.378937 315 
L 423.378937 315 
L 414.031159 315 
z
" style="fill:#0000ff;fill-opacity:0.75;stroke:#000000;stroke-linejoin:miter;stroke-width:0.934778;"/>
   </g>
   <g id="patch_69">
    <path clip-path="url(#p780a85cf9a)" d="M 423.378937 315 
L 432.726714 315 
L 432.726714 315 
L 423.378937 315 
z
" style="fill:#0000ff;fill-opacity:0.75;stroke:#000000;stroke-linejoin:miter;stroke-width:0.934778;"/>
   </g>
   <g id="patch_70">
    <path clip-path="url(#p780a85cf9a)" d="M 432.726714 312.82473 
L 442.074492 312.82473 
L 442.074492 312.82473 
L 432.726714 312.82473 
z
" style="fill:#0000ff;fill-opacity:0.75;stroke:#000000;stroke-linejoin:miter;stroke-width:0.934778;"/>
   </g>
   <g id="patch_71">
    <path clip-path="url(#p780a85cf9a)" d="M 442.074492 315 
L 451.422269 315 
L 451.422269 315 
L 442.074492 315 
z
" style="fill:#0000ff;fill-opacity:0.75;stroke:#000000;stroke-linejoin:miter;stroke-width:0.934778;"/>
   </g>
   <g id="patch_72">
    <path clip-path="url(#p780a85cf9a)" d="M 451.422269 315 
L 460.770047 315 
L 460.770047 315 
L 451.422269 315 
z
" style="fill:#0000ff;fill-opacity:0.75;stroke:#000000;stroke-linejoin:miter;stroke-width:0.934778;"/>
   </g>
   <g id="patch_73">
    <path clip-path="url(#p780a85cf9a)" d="M 460.770047 315 
L 470.117824 315 
L 470.117824 315 
L 460.770047 315 
z
" style="fill:#0000ff;fill-opacity:0.75;stroke:#000000;stroke-linejoin:miter;stroke-width:0.934778;"/>
   </g>
   <g id="patch_74">
    <path clip-path="url(#p780a85cf9a)" d="M 470.117824 315 
L 479.465602 315 
L 479.465602 315 
L 470.117824 315 
z
" style="fill:#0000ff;fill-opacity:0.75;stroke:#000000;stroke-linejoin:miter;stroke-width:0.934778;"/>
   </g>
   <g id="patch_75">
    <path clip-path="url(#p780a85cf9a)" d="M 479.465602 315 
L 488.813379 315 
L 488.813379 315 
L 479.465602 315 
z
" style="fill:#0000ff;fill-opacity:0.75;stroke:#000000;stroke-linejoin:miter;stroke-width:0.934778;"/>
   </g>
   <g id="patch_76">
    <path clip-path="url(#p780a85cf9a)" d="M 488.813379 312.82473 
L 498.161157 312.82473 
L 498.161157 312.82473 
L 488.813379 312.82473 
z
" style="fill:#0000ff;fill-opacity:0.75;stroke:#000000;stroke-linejoin:miter;stroke-width:0.934778;"/>
   </g>
   <g id="patch_77">
    <path clip-path="url(#p780a85cf9a)" d="M 152.293388 254.092437 
L 161.641166 254.092437 
L 161.641166 249.741897 
L 152.293388 249.741897 
z
" style="fill:#ff0000;fill-opacity:0.75;stroke:#000000;stroke-linejoin:miter;stroke-width:0.934778;"/>
   </g>
   <g id="patch_78">
    <path clip-path="url(#p780a85cf9a)" d="M 161.641166 304.123649 
L 170.988943 304.123649 
L 170.988943 293.247299 
L 161.641166 293.247299 
z
" style="fill:#ff0000;fill-opacity:0.75;stroke:#000000;stroke-linejoin:miter;stroke-width:0.934778;"/>
   </g>
   <g id="patch_79">
    <path clip-path="url(#p780a85cf9a)" d="M 170.988943 258.442977 
L 180.336721 258.442977 
L 180.336721 227.989196 
L 170.988943 227.989196 
z
" style="fill:#ff0000;fill-opacity:0.75;stroke:#000000;stroke-linejoin:miter;stroke-width:0.934778;"/>
   </g>
   <g id="patch_80">
    <path clip-path="url(#p780a85cf9a)" d="M 180.336721 247.566627 
L 189.684499 247.566627 
L 189.684499 173.607443 
L 180.336721 173.607443 
z
" style="fill:#ff0000;fill-opacity:0.75;stroke:#000000;stroke-linejoin:miter;stroke-width:0.934778;"/>
   </g>
   <g id="patch_81">
    <path clip-path="url(#p780a85cf9a)" d="M 189.684499 212.762305 
L 199.032276 212.762305 
L 199.032276 125.751501 
L 189.684499 125.751501 
z
" style="fill:#ff0000;fill-opacity:0.75;stroke:#000000;stroke-linejoin:miter;stroke-width:0.934778;"/>
   </g>
   <g id="patch_82">
    <path clip-path="url(#p780a85cf9a)" d="M 199.032276 188.834334 
L 208.380054 188.834334 
L 208.380054 97.472989 
L 199.032276 97.472989 
z
" style="fill:#ff0000;fill-opacity:0.75;stroke:#000000;stroke-linejoin:miter;stroke-width:0.934778;"/>
   </g>
   <g id="patch_83">
    <path clip-path="url(#p780a85cf9a)" d="M 208.380054 182.308523 
L 217.727831 182.308523 
L 217.727831 56.142857 
L 208.380054 56.142857 
z
" style="fill:#ff0000;fill-opacity:0.75;stroke:#000000;stroke-linejoin:miter;stroke-width:0.934778;"/>
   </g>
   <g id="patch_84">
    <path clip-path="url(#p780a85cf9a)" d="M 217.727831 201.885954 
L 227.075609 201.885954 
L 227.075609 112.69988 
L 217.727831 112.69988 
z
" style="fill:#ff0000;fill-opacity:0.75;stroke:#000000;stroke-linejoin:miter;stroke-width:0.934778;"/>
   </g>
   <g id="patch_85">
    <path clip-path="url(#p780a85cf9a)" d="M 227.075609 208.411765 
L 236.423386 208.411765 
L 236.423386 156.205282 
L 227.075609 156.205282 
z
" style="fill:#ff0000;fill-opacity:0.75;stroke:#000000;stroke-linejoin:miter;stroke-width:0.934778;"/>
   </g>
   <g id="patch_86">
    <path clip-path="url(#p780a85cf9a)" d="M 236.423386 193.184874 
L 245.771164 193.184874 
L 245.771164 167.081633 
L 236.423386 167.081633 
z
" style="fill:#ff0000;fill-opacity:0.75;stroke:#000000;stroke-linejoin:miter;stroke-width:0.934778;"/>
   </g>
   <g id="patch_87">
    <path clip-path="url(#p780a85cf9a)" d="M 245.771164 214.937575 
L 255.118941 214.937575 
L 255.118941 191.009604 
L 245.771164 191.009604 
z
" style="fill:#ff0000;fill-opacity:0.75;stroke:#000000;stroke-linejoin:miter;stroke-width:0.934778;"/>
   </g>
   <g id="patch_88">
    <path clip-path="url(#p780a85cf9a)" d="M 255.118941 254.092437 
L 264.466719 254.092437 
L 264.466719 243.216086 
L 255.118941 243.216086 
z
" style="fill:#ff0000;fill-opacity:0.75;stroke:#000000;stroke-linejoin:miter;stroke-width:0.934778;"/>
   </g>
   <g id="patch_89">
    <path clip-path="url(#p780a85cf9a)" d="M 264.466719 217.112845 
L 273.814496 217.112845 
L 273.814496 210.587035 
L 264.466719 210.587035 
z
" style="fill:#ff0000;fill-opacity:0.75;stroke:#000000;stroke-linejoin:miter;stroke-width:0.934778;"/>
   </g>
   <g id="patch_90">
    <path clip-path="url(#p780a85cf9a)" d="M 273.814496 284.546218 
L 283.162274 284.546218 
L 283.162274 280.195678 
L 273.814496 280.195678 
z
" style="fill:#ff0000;fill-opacity:0.75;stroke:#000000;stroke-linejoin:miter;stroke-width:0.934778;"/>
   </g>
   <g id="patch_91">
    <path clip-path="url(#p780a85cf9a)" d="M 283.162274 286.721489 
L 292.510051 286.721489 
L 292.510051 282.370948 
L 283.162274 282.370948 
z
" style="fill:#ff0000;fill-opacity:0.75;stroke:#000000;stroke-linejoin:miter;stroke-width:0.934778;"/>
   </g>
   <g id="patch_92">
    <path clip-path="url(#p780a85cf9a)" d="M 292.510051 295.422569 
L 301.857829 295.422569 
L 301.857829 295.422569 
L 292.510051 295.422569 
z
" style="fill:#ff0000;fill-opacity:0.75;stroke:#000000;stroke-linejoin:miter;stroke-width:0.934778;"/>
   </g>
   <g id="patch_93">
    <path clip-path="url(#p780a85cf9a)" d="M 301.857829 297.597839 
L 311.205606 297.597839 
L 311.205606 297.597839 
L 301.857829 297.597839 
z
" style="fill:#ff0000;fill-opacity:0.75;stroke:#000000;stroke-linejoin:miter;stroke-width:0.934778;"/>
   </g>
   <g id="patch_94">
    <path clip-path="url(#p780a85cf9a)" d="M 311.205606 308.47419 
L 320.553384 308.47419 
L 320.553384 308.47419 
L 311.205606 308.47419 
z
" style="fill:#ff0000;fill-opacity:0.75;stroke:#000000;stroke-linejoin:miter;stroke-width:0.934778;"/>
   </g>
   <g id="patch_95">
    <path clip-path="url(#p780a85cf9a)" d="M 320.553384 308.47419 
L 329.901161 308.47419 
L 329.901161 308.47419 
L 320.553384 308.47419 
z
" style="fill:#ff0000;fill-opacity:0.75;stroke:#000000;stroke-linejoin:miter;stroke-width:0.934778;"/>
   </g>
   <g id="patch_96">
    <path clip-path="url(#p780a85cf9a)" d="M 329.901161 310.64946 
L 339.248939 310.64946 
L 339.248939 310.64946 
L 329.901161 310.64946 
z
" style="fill:#ff0000;fill-opacity:0.75;stroke:#000000;stroke-linejoin:miter;stroke-width:0.934778;"/>
   </g>
   <g id="patch_97">
    <path clip-path="url(#p780a85cf9a)" d="M 339.248939 312.82473 
L 348.596717 312.82473 
L 348.596717 312.82473 
L 339.248939 312.82473 
z
" style="fill:#ff0000;fill-opacity:0.75;stroke:#000000;stroke-linejoin:miter;stroke-width:0.934778;"/>
   </g>
   <g id="patch_98">
    <path clip-path="url(#p780a85cf9a)" d="M 348.596717 310.64946 
L 357.944494 310.64946 
L 357.944494 310.64946 
L 348.596717 310.64946 
z
" style="fill:#ff0000;fill-opacity:0.75;stroke:#000000;stroke-linejoin:miter;stroke-width:0.934778;"/>
   </g>
   <g id="patch_99">
    <path clip-path="url(#p780a85cf9a)" d="M 357.944494 315 
L 367.292272 315 
L 367.292272 315 
L 357.944494 315 
z
" style="fill:#ff0000;fill-opacity:0.75;stroke:#000000;stroke-linejoin:miter;stroke-width:0.934778;"/>
   </g>
   <g id="patch_100">
    <path clip-path="url(#p780a85cf9a)" d="M 367.292272 315 
L 376.640049 315 
L 376.640049 315 
L 367.292272 315 
z
" style="fill:#ff0000;fill-opacity:0.75;stroke:#000000;stroke-linejoin:miter;stroke-width:0.934778;"/>
   </g>
   <g id="patch_101">
    <path clip-path="url(#p780a85cf9a)" d="M 376.640049 315 
L 385.987827 315 
L 385.987827 315 
L 376.640049 315 
z
" style="fill:#ff0000;fill-opacity:0.75;stroke:#000000;stroke-linejoin:miter;stroke-width:0.934778;"/>
   </g>
   <g id="patch_102">
    <path clip-path="url(#p780a85cf9a)" d="M 385.987827 312.82473 
L 395.335604 312.82473 
L 395.335604 312.82473 
L 385.987827 312.82473 
z
" style="fill:#ff0000;fill-opacity:0.75;stroke:#000000;stroke-linejoin:miter;stroke-width:0.934778;"/>
   </g>
   <g id="patch_103">
    <path clip-path="url(#p780a85cf9a)" d="M 395.335604 315 
L 404.683382 315 
L 404.683382 315 
L 395.335604 315 
z
" style="fill:#ff0000;fill-opacity:0.75;stroke:#000000;stroke-linejoin:miter;stroke-width:0.934778;"/>
   </g>
   <g id="patch_104">
    <path clip-path="url(#p780a85cf9a)" d="M 404.683382 315 
L 414.031159 315 
L 414.031159 315 
L 404.683382 315 
z
" style="fill:#ff0000;fill-opacity:0.75;stroke:#000000;stroke-linejoin:miter;stroke-width:0.934778;"/>
   </g>
   <g id="patch_105">
    <path clip-path="url(#p780a85cf9a)" d="M 414.031159 315 
L 423.378937 315 
L 423.378937 315 
L 414.031159 315 
z
" style="fill:#ff0000;fill-opacity:0.75;stroke:#000000;stroke-linejoin:miter;stroke-width:0.934778;"/>
   </g>
   <g id="patch_106">
    <path clip-path="url(#p780a85cf9a)" d="M 423.378937 315 
L 432.726714 315 
L 432.726714 315 
L 423.378937 315 
z
" style="fill:#ff0000;fill-opacity:0.75;stroke:#000000;stroke-linejoin:miter;stroke-width:0.934778;"/>
   </g>
   <g id="patch_107">
    <path clip-path="url(#p780a85cf9a)" d="M 432.726714 312.82473 
L 442.074492 312.82473 
L 442.074492 312.82473 
L 432.726714 312.82473 
z
" style="fill:#ff0000;fill-opacity:0.75;stroke:#000000;stroke-linejoin:miter;stroke-width:0.934778;"/>
   </g>
   <g id="patch_108">
    <path clip-path="url(#p780a85cf9a)" d="M 442.074492 315 
L 451.422269 315 
L 451.422269 315 
L 442.074492 315 
z
" style="fill:#ff0000;fill-opacity:0.75;stroke:#000000;stroke-linejoin:miter;stroke-width:0.934778;"/>
   </g>
   <g id="patch_109">
    <path clip-path="url(#p780a85cf9a)" d="M 451.422269 315 
L 460.770047 315 
L 460.770047 315 
L 451.422269 315 
z
" style="fill:#ff0000;fill-opacity:0.75;stroke:#000000;stroke-linejoin:miter;stroke-width:0.934778;"/>
   </g>
   <g id="patch_110">
    <path clip-path="url(#p780a85cf9a)" d="M 460.770047 315 
L 470.117824 315 
L 470.117824 315 
L 460.770047 315 
z
" style="fill:#ff0000;fill-opacity:0.75;stroke:#000000;stroke-linejoin:miter;stroke-width:0.934778;"/>
   </g>
   <g id="patch_111">
    <path clip-path="url(#p780a85cf9a)" d="M 470.117824 315 
L 479.465602 315 
L 479.465602 315 
L 470.117824 315 
z
" style="fill:#ff0000;fill-opacity:0.75;stroke:#000000;stroke-linejoin:miter;stroke-width:0.934778;"/>
   </g>
   <g id="patch_112">
    <path clip-path="url(#p780a85cf9a)" d="M 479.465602 315 
L 488.813379 315 
L 488.813379 315 
L 479.465602 315 
z
" style="fill:#ff0000;fill-opacity:0.75;stroke:#000000;stroke-linejoin:miter;stroke-width:0.934778;"/>
   </g>
   <g id="patch_113">
    <path clip-path="url(#p780a85cf9a)" d="M 488.813379 312.82473 
L 498.161157 312.82473 
L 498.161157 312.82473 
L 488.813379 312.82473 
z
" style="fill:#ff0000;fill-opacity:0.75;stroke:#000000;stroke-linejoin:miter;stroke-width:0.934778;"/>
   </g>
   <g id="matplotlib.axis_1">
    <g id="xtick_1">
     <g id="line2d_1">
      <defs>
       <path d="M 0 0 
L 0 3.5 
" id="m2466876281" style="stroke:#000000;stroke-width:0.8;"/>
      </defs>
      <g>
       <use style="stroke:#000000;stroke-width:0.8;" x="152.293388" xlink:href="#m2466876281" y="315"/>
      </g>
     </g>
     <g id="text_1">
      <!-- 0.0 -->
      <g transform="translate(144.341826 329.598437)scale(0.1 -0.1)">
       <defs>
        <path d="M 31.78125 66.40625 
Q 24.171875 66.40625 20.328125 58.90625 
Q 16.5 51.421875 16.5 36.375 
Q 16.5 21.390625 20.328125 13.890625 
Q 24.171875 6.390625 31.78125 6.390625 
Q 39.453125 6.390625 43.28125 13.890625 
Q 47.125 21.390625 47.125 36.375 
Q 47.125 51.421875 43.28125 58.90625 
Q 39.453125 66.40625 31.78125 66.40625 
z
M 31.78125 74.21875 
Q 44.046875 74.21875 50.515625 64.515625 
Q 56.984375 54.828125 56.984375 36.375 
Q 56.984375 17.96875 50.515625 8.265625 
Q 44.046875 -1.421875 31.78125 -1.421875 
Q 19.53125 -1.421875 13.0625 8.265625 
Q 6.59375 17.96875 6.59375 36.375 
Q 6.59375 54.828125 13.0625 64.515625 
Q 19.53125 74.21875 31.78125 74.21875 
z
" id="DejaVuSans-48"/>
        <path d="M 10.6875 12.40625 
L 21 12.40625 
L 21 0 
L 10.6875 0 
z
" id="DejaVuSans-46"/>
       </defs>
       <use xlink:href="#DejaVuSans-48"/>
       <use x="63.623047" xlink:href="#DejaVuSans-46"/>
       <use x="95.410156" xlink:href="#DejaVuSans-48"/>
      </g>
     </g>
    </g>
    <g id="xtick_2">
     <g id="line2d_2">
      <g>
       <use style="stroke:#000000;stroke-width:0.8;" x="209.938017" xlink:href="#m2466876281" y="315"/>
      </g>
     </g>
     <g id="text_2">
      <!-- 0.5 -->
      <g transform="translate(201.986454 329.598437)scale(0.1 -0.1)">
       <defs>
        <path d="M 10.796875 72.90625 
L 49.515625 72.90625 
L 49.515625 64.59375 
L 19.828125 64.59375 
L 19.828125 46.734375 
Q 21.96875 47.46875 24.109375 47.828125 
Q 26.265625 48.1875 28.421875 48.1875 
Q 40.625 48.1875 47.75 41.5 
Q 54.890625 34.8125 54.890625 23.390625 
Q 54.890625 11.625 47.5625 5.09375 
Q 40.234375 -1.421875 26.90625 -1.421875 
Q 22.3125 -1.421875 17.546875 -0.640625 
Q 12.796875 0.140625 7.71875 1.703125 
L 7.71875 11.625 
Q 12.109375 9.234375 16.796875 8.0625 
Q 21.484375 6.890625 26.703125 6.890625 
Q 35.15625 6.890625 40.078125 11.328125 
Q 45.015625 15.765625 45.015625 23.390625 
Q 45.015625 31 40.078125 35.4375 
Q 35.15625 39.890625 26.703125 39.890625 
Q 22.75 39.890625 18.8125 39.015625 
Q 14.890625 38.140625 10.796875 36.28125 
z
" id="DejaVuSans-53"/>
       </defs>
       <use xlink:href="#DejaVuSans-48"/>
       <use x="63.623047" xlink:href="#DejaVuSans-46"/>
       <use x="95.410156" xlink:href="#DejaVuSans-53"/>
      </g>
     </g>
    </g>
    <g id="xtick_3">
     <g id="line2d_3">
      <g>
       <use style="stroke:#000000;stroke-width:0.8;" x="267.582645" xlink:href="#m2466876281" y="315"/>
      </g>
     </g>
     <g id="text_3">
      <!-- 1.0 -->
      <g transform="translate(259.631082 329.598437)scale(0.1 -0.1)">
       <defs>
        <path d="M 12.40625 8.296875 
L 28.515625 8.296875 
L 28.515625 63.921875 
L 10.984375 60.40625 
L 10.984375 69.390625 
L 28.421875 72.90625 
L 38.28125 72.90625 
L 38.28125 8.296875 
L 54.390625 8.296875 
L 54.390625 0 
L 12.40625 0 
z
" id="DejaVuSans-49"/>
       </defs>
       <use xlink:href="#DejaVuSans-49"/>
       <use x="63.623047" xlink:href="#DejaVuSans-46"/>
       <use x="95.410156" xlink:href="#DejaVuSans-48"/>
      </g>
     </g>
    </g>
    <g id="xtick_4">
     <g id="line2d_4">
      <g>
       <use style="stroke:#000000;stroke-width:0.8;" x="325.227273" xlink:href="#m2466876281" y="315"/>
      </g>
     </g>
     <g id="text_4">
      <!-- 1.5 -->
      <g transform="translate(317.27571 329.598437)scale(0.1 -0.1)">
       <use xlink:href="#DejaVuSans-49"/>
       <use x="63.623047" xlink:href="#DejaVuSans-46"/>
       <use x="95.410156" xlink:href="#DejaVuSans-53"/>
      </g>
     </g>
    </g>
    <g id="xtick_5">
     <g id="line2d_5">
      <g>
       <use style="stroke:#000000;stroke-width:0.8;" x="382.871901" xlink:href="#m2466876281" y="315"/>
      </g>
     </g>
     <g id="text_5">
      <!-- 2.0 -->
      <g transform="translate(374.920338 329.598437)scale(0.1 -0.1)">
       <defs>
        <path d="M 19.1875 8.296875 
L 53.609375 8.296875 
L 53.609375 0 
L 7.328125 0 
L 7.328125 8.296875 
Q 12.9375 14.109375 22.625 23.890625 
Q 32.328125 33.6875 34.8125 36.53125 
Q 39.546875 41.84375 41.421875 45.53125 
Q 43.3125 49.21875 43.3125 52.78125 
Q 43.3125 58.59375 39.234375 62.25 
Q 35.15625 65.921875 28.609375 65.921875 
Q 23.96875 65.921875 18.8125 64.3125 
Q 13.671875 62.703125 7.8125 59.421875 
L 7.8125 69.390625 
Q 13.765625 71.78125 18.9375 73 
Q 24.125 74.21875 28.421875 74.21875 
Q 39.75 74.21875 46.484375 68.546875 
Q 53.21875 62.890625 53.21875 53.421875 
Q 53.21875 48.921875 51.53125 44.890625 
Q 49.859375 40.875 45.40625 35.40625 
Q 44.1875 33.984375 37.640625 27.21875 
Q 31.109375 20.453125 19.1875 8.296875 
z
" id="DejaVuSans-50"/>
       </defs>
       <use xlink:href="#DejaVuSans-50"/>
       <use x="63.623047" xlink:href="#DejaVuSans-46"/>
       <use x="95.410156" xlink:href="#DejaVuSans-48"/>
      </g>
     </g>
    </g>
    <g id="xtick_6">
     <g id="line2d_6">
      <g>
       <use style="stroke:#000000;stroke-width:0.8;" x="440.516529" xlink:href="#m2466876281" y="315"/>
      </g>
     </g>
     <g id="text_6">
      <!-- 2.5 -->
      <g transform="translate(432.564966 329.598437)scale(0.1 -0.1)">
       <use xlink:href="#DejaVuSans-50"/>
       <use x="63.623047" xlink:href="#DejaVuSans-46"/>
       <use x="95.410156" xlink:href="#DejaVuSans-53"/>
      </g>
     </g>
    </g>
    <g id="xtick_7">
     <g id="line2d_7">
      <g>
       <use style="stroke:#000000;stroke-width:0.8;" x="498.161157" xlink:href="#m2466876281" y="315"/>
      </g>
     </g>
     <g id="text_7">
      <!-- 3.0 -->
      <g transform="translate(490.209595 329.598437)scale(0.1 -0.1)">
       <defs>
        <path d="M 40.578125 39.3125 
Q 47.65625 37.796875 51.625 33 
Q 55.609375 28.21875 55.609375 21.1875 
Q 55.609375 10.40625 48.1875 4.484375 
Q 40.765625 -1.421875 27.09375 -1.421875 
Q 22.515625 -1.421875 17.65625 -0.515625 
Q 12.796875 0.390625 7.625 2.203125 
L 7.625 11.71875 
Q 11.71875 9.328125 16.59375 8.109375 
Q 21.484375 6.890625 26.8125 6.890625 
Q 36.078125 6.890625 40.9375 10.546875 
Q 45.796875 14.203125 45.796875 21.1875 
Q 45.796875 27.640625 41.28125 31.265625 
Q 36.765625 34.90625 28.71875 34.90625 
L 20.21875 34.90625 
L 20.21875 43.015625 
L 29.109375 43.015625 
Q 36.375 43.015625 40.234375 45.921875 
Q 44.09375 48.828125 44.09375 54.296875 
Q 44.09375 59.90625 40.109375 62.90625 
Q 36.140625 65.921875 28.71875 65.921875 
Q 24.65625 65.921875 20.015625 65.03125 
Q 15.375 64.15625 9.8125 62.3125 
L 9.8125 71.09375 
Q 15.4375 72.65625 20.34375 73.4375 
Q 25.25 74.21875 29.59375 74.21875 
Q 40.828125 74.21875 47.359375 69.109375 
Q 53.90625 64.015625 53.90625 55.328125 
Q 53.90625 49.265625 50.4375 45.09375 
Q 46.96875 40.921875 40.578125 39.3125 
z
" id="DejaVuSans-51"/>
       </defs>
       <use xlink:href="#DejaVuSans-51"/>
       <use x="63.623047" xlink:href="#DejaVuSans-46"/>
       <use x="95.410156" xlink:href="#DejaVuSans-48"/>
      </g>
     </g>
    </g>
    <g id="text_8">
     <!-- pronouns_per_sentence -->
     <g transform="translate(265.692898 342.998438)scale(0.1 -0.1)">
      <defs>
       <path d="M 18.109375 8.203125 
L 18.109375 -20.796875 
L 9.078125 -20.796875 
L 9.078125 54.6875 
L 18.109375 54.6875 
L 18.109375 46.390625 
Q 20.953125 51.265625 25.265625 53.625 
Q 29.59375 56 35.59375 56 
Q 45.5625 56 51.78125 48.09375 
Q 58.015625 40.1875 58.015625 27.296875 
Q 58.015625 14.40625 51.78125 6.484375 
Q 45.5625 -1.421875 35.59375 -1.421875 
Q 29.59375 -1.421875 25.265625 0.953125 
Q 20.953125 3.328125 18.109375 8.203125 
z
M 48.6875 27.296875 
Q 48.6875 37.203125 44.609375 42.84375 
Q 40.53125 48.484375 33.40625 48.484375 
Q 26.265625 48.484375 22.1875 42.84375 
Q 18.109375 37.203125 18.109375 27.296875 
Q 18.109375 17.390625 22.1875 11.75 
Q 26.265625 6.109375 33.40625 6.109375 
Q 40.53125 6.109375 44.609375 11.75 
Q 48.6875 17.390625 48.6875 27.296875 
z
" id="DejaVuSans-112"/>
       <path d="M 41.109375 46.296875 
Q 39.59375 47.171875 37.8125 47.578125 
Q 36.03125 48 33.890625 48 
Q 26.265625 48 22.1875 43.046875 
Q 18.109375 38.09375 18.109375 28.8125 
L 18.109375 0 
L 9.078125 0 
L 9.078125 54.6875 
L 18.109375 54.6875 
L 18.109375 46.1875 
Q 20.953125 51.171875 25.484375 53.578125 
Q 30.03125 56 36.53125 56 
Q 37.453125 56 38.578125 55.875 
Q 39.703125 55.765625 41.0625 55.515625 
z
" id="DejaVuSans-114"/>
       <path d="M 30.609375 48.390625 
Q 23.390625 48.390625 19.1875 42.75 
Q 14.984375 37.109375 14.984375 27.296875 
Q 14.984375 17.484375 19.15625 11.84375 
Q 23.34375 6.203125 30.609375 6.203125 
Q 37.796875 6.203125 41.984375 11.859375 
Q 46.1875 17.53125 46.1875 27.296875 
Q 46.1875 37.015625 41.984375 42.703125 
Q 37.796875 48.390625 30.609375 48.390625 
z
M 30.609375 56 
Q 42.328125 56 49.015625 48.375 
Q 55.71875 40.765625 55.71875 27.296875 
Q 55.71875 13.875 49.015625 6.21875 
Q 42.328125 -1.421875 30.609375 -1.421875 
Q 18.84375 -1.421875 12.171875 6.21875 
Q 5.515625 13.875 5.515625 27.296875 
Q 5.515625 40.765625 12.171875 48.375 
Q 18.84375 56 30.609375 56 
z
" id="DejaVuSans-111"/>
       <path d="M 54.890625 33.015625 
L 54.890625 0 
L 45.90625 0 
L 45.90625 32.71875 
Q 45.90625 40.484375 42.875 44.328125 
Q 39.84375 48.1875 33.796875 48.1875 
Q 26.515625 48.1875 22.3125 43.546875 
Q 18.109375 38.921875 18.109375 30.90625 
L 18.109375 0 
L 9.078125 0 
L 9.078125 54.6875 
L 18.109375 54.6875 
L 18.109375 46.1875 
Q 21.34375 51.125 25.703125 53.5625 
Q 30.078125 56 35.796875 56 
Q 45.21875 56 50.046875 50.171875 
Q 54.890625 44.34375 54.890625 33.015625 
z
" id="DejaVuSans-110"/>
       <path d="M 8.5 21.578125 
L 8.5 54.6875 
L 17.484375 54.6875 
L 17.484375 21.921875 
Q 17.484375 14.15625 20.5 10.265625 
Q 23.53125 6.390625 29.59375 6.390625 
Q 36.859375 6.390625 41.078125 11.03125 
Q 45.3125 15.671875 45.3125 23.6875 
L 45.3125 54.6875 
L 54.296875 54.6875 
L 54.296875 0 
L 45.3125 0 
L 45.3125 8.40625 
Q 42.046875 3.421875 37.71875 1 
Q 33.40625 -1.421875 27.6875 -1.421875 
Q 18.265625 -1.421875 13.375 4.4375 
Q 8.5 10.296875 8.5 21.578125 
z
M 31.109375 56 
z
" id="DejaVuSans-117"/>
       <path d="M 44.28125 53.078125 
L 44.28125 44.578125 
Q 40.484375 46.53125 36.375 47.5 
Q 32.28125 48.484375 27.875 48.484375 
Q 21.1875 48.484375 17.84375 46.4375 
Q 14.5 44.390625 14.5 40.28125 
Q 14.5 37.15625 16.890625 35.375 
Q 19.28125 33.59375 26.515625 31.984375 
L 29.59375 31.296875 
Q 39.15625 29.25 43.1875 25.515625 
Q 47.21875 21.78125 47.21875 15.09375 
Q 47.21875 7.46875 41.1875 3.015625 
Q 35.15625 -1.421875 24.609375 -1.421875 
Q 20.21875 -1.421875 15.453125 -0.5625 
Q 10.6875 0.296875 5.421875 2 
L 5.421875 11.28125 
Q 10.40625 8.6875 15.234375 7.390625 
Q 20.0625 6.109375 24.8125 6.109375 
Q 31.15625 6.109375 34.5625 8.28125 
Q 37.984375 10.453125 37.984375 14.40625 
Q 37.984375 18.0625 35.515625 20.015625 
Q 33.0625 21.96875 24.703125 23.78125 
L 21.578125 24.515625 
Q 13.234375 26.265625 9.515625 29.90625 
Q 5.8125 33.546875 5.8125 39.890625 
Q 5.8125 47.609375 11.28125 51.796875 
Q 16.75 56 26.8125 56 
Q 31.78125 56 36.171875 55.265625 
Q 40.578125 54.546875 44.28125 53.078125 
z
" id="DejaVuSans-115"/>
       <path d="M 50.984375 -16.609375 
L 50.984375 -23.578125 
L -0.984375 -23.578125 
L -0.984375 -16.609375 
z
" id="DejaVuSans-95"/>
       <path d="M 56.203125 29.59375 
L 56.203125 25.203125 
L 14.890625 25.203125 
Q 15.484375 15.921875 20.484375 11.0625 
Q 25.484375 6.203125 34.421875 6.203125 
Q 39.59375 6.203125 44.453125 7.46875 
Q 49.3125 8.734375 54.109375 11.28125 
L 54.109375 2.78125 
Q 49.265625 0.734375 44.1875 -0.34375 
Q 39.109375 -1.421875 33.890625 -1.421875 
Q 20.796875 -1.421875 13.15625 6.1875 
Q 5.515625 13.8125 5.515625 26.8125 
Q 5.515625 40.234375 12.765625 48.109375 
Q 20.015625 56 32.328125 56 
Q 43.359375 56 49.78125 48.890625 
Q 56.203125 41.796875 56.203125 29.59375 
z
M 47.21875 32.234375 
Q 47.125 39.59375 43.09375 43.984375 
Q 39.0625 48.390625 32.421875 48.390625 
Q 24.90625 48.390625 20.390625 44.140625 
Q 15.875 39.890625 15.1875 32.171875 
z
" id="DejaVuSans-101"/>
       <path d="M 18.3125 70.21875 
L 18.3125 54.6875 
L 36.8125 54.6875 
L 36.8125 47.703125 
L 18.3125 47.703125 
L 18.3125 18.015625 
Q 18.3125 11.328125 20.140625 9.421875 
Q 21.96875 7.515625 27.59375 7.515625 
L 36.8125 7.515625 
L 36.8125 0 
L 27.59375 0 
Q 17.1875 0 13.234375 3.875 
Q 9.28125 7.765625 9.28125 18.015625 
L 9.28125 47.703125 
L 2.6875 47.703125 
L 2.6875 54.6875 
L 9.28125 54.6875 
L 9.28125 70.21875 
z
" id="DejaVuSans-116"/>
       <path d="M 48.78125 52.59375 
L 48.78125 44.1875 
Q 44.96875 46.296875 41.140625 47.34375 
Q 37.3125 48.390625 33.40625 48.390625 
Q 24.65625 48.390625 19.8125 42.84375 
Q 14.984375 37.3125 14.984375 27.296875 
Q 14.984375 17.28125 19.8125 11.734375 
Q 24.65625 6.203125 33.40625 6.203125 
Q 37.3125 6.203125 41.140625 7.25 
Q 44.96875 8.296875 48.78125 10.40625 
L 48.78125 2.09375 
Q 45.015625 0.34375 40.984375 -0.53125 
Q 36.96875 -1.421875 32.421875 -1.421875 
Q 20.0625 -1.421875 12.78125 6.34375 
Q 5.515625 14.109375 5.515625 27.296875 
Q 5.515625 40.671875 12.859375 48.328125 
Q 20.21875 56 33.015625 56 
Q 37.15625 56 41.109375 55.140625 
Q 45.0625 54.296875 48.78125 52.59375 
z
" id="DejaVuSans-99"/>
      </defs>
      <use xlink:href="#DejaVuSans-112"/>
      <use x="63.476562" xlink:href="#DejaVuSans-114"/>
      <use x="102.339844" xlink:href="#DejaVuSans-111"/>
      <use x="163.521484" xlink:href="#DejaVuSans-110"/>
      <use x="226.900391" xlink:href="#DejaVuSans-111"/>
      <use x="288.082031" xlink:href="#DejaVuSans-117"/>
      <use x="351.460938" xlink:href="#DejaVuSans-110"/>
      <use x="414.839844" xlink:href="#DejaVuSans-115"/>
      <use x="466.939453" xlink:href="#DejaVuSans-95"/>
      <use x="516.939453" xlink:href="#DejaVuSans-112"/>
      <use x="580.416016" xlink:href="#DejaVuSans-101"/>
      <use x="641.939453" xlink:href="#DejaVuSans-114"/>
      <use x="683.052734" xlink:href="#DejaVuSans-95"/>
      <use x="733.052734" xlink:href="#DejaVuSans-115"/>
      <use x="785.152344" xlink:href="#DejaVuSans-101"/>
      <use x="846.675781" xlink:href="#DejaVuSans-110"/>
      <use x="910.054688" xlink:href="#DejaVuSans-116"/>
      <use x="949.263672" xlink:href="#DejaVuSans-101"/>
      <use x="1010.787109" xlink:href="#DejaVuSans-110"/>
      <use x="1074.166016" xlink:href="#DejaVuSans-99"/>
      <use x="1129.146484" xlink:href="#DejaVuSans-101"/>
     </g>
    </g>
   </g>
   <g id="matplotlib.axis_2">
    <g id="ytick_1">
     <g id="line2d_8">
      <defs>
       <path d="M 0 0 
L -3.5 0 
" id="m2cec3b1e88" style="stroke:#000000;stroke-width:0.8;"/>
      </defs>
      <g>
       <use style="stroke:#000000;stroke-width:0.8;" x="135" xlink:href="#m2cec3b1e88" y="315"/>
      </g>
     </g>
     <g id="text_9">
      <!-- 0 -->
      <g transform="translate(121.6375 318.799219)scale(0.1 -0.1)">
       <use xlink:href="#DejaVuSans-48"/>
      </g>
     </g>
    </g>
    <g id="ytick_2">
     <g id="line2d_9">
      <g>
       <use style="stroke:#000000;stroke-width:0.8;" x="135" xlink:href="#m2cec3b1e88" y="271.494598"/>
      </g>
     </g>
     <g id="text_10">
      <!-- 20 -->
      <g transform="translate(115.275 275.293817)scale(0.1 -0.1)">
       <use xlink:href="#DejaVuSans-50"/>
       <use x="63.623047" xlink:href="#DejaVuSans-48"/>
      </g>
     </g>
    </g>
    <g id="ytick_3">
     <g id="line2d_10">
      <g>
       <use style="stroke:#000000;stroke-width:0.8;" x="135" xlink:href="#m2cec3b1e88" y="227.989196"/>
      </g>
     </g>
     <g id="text_11">
      <!-- 40 -->
      <g transform="translate(115.275 231.788414)scale(0.1 -0.1)">
       <defs>
        <path d="M 37.796875 64.3125 
L 12.890625 25.390625 
L 37.796875 25.390625 
z
M 35.203125 72.90625 
L 47.609375 72.90625 
L 47.609375 25.390625 
L 58.015625 25.390625 
L 58.015625 17.1875 
L 47.609375 17.1875 
L 47.609375 0 
L 37.796875 0 
L 37.796875 17.1875 
L 4.890625 17.1875 
L 4.890625 26.703125 
z
" id="DejaVuSans-52"/>
       </defs>
       <use xlink:href="#DejaVuSans-52"/>
       <use x="63.623047" xlink:href="#DejaVuSans-48"/>
      </g>
     </g>
    </g>
    <g id="ytick_4">
     <g id="line2d_11">
      <g>
       <use style="stroke:#000000;stroke-width:0.8;" x="135" xlink:href="#m2cec3b1e88" y="184.483794"/>
      </g>
     </g>
     <g id="text_12">
      <!-- 60 -->
      <g transform="translate(115.275 188.283012)scale(0.1 -0.1)">
       <defs>
        <path d="M 33.015625 40.375 
Q 26.375 40.375 22.484375 35.828125 
Q 18.609375 31.296875 18.609375 23.390625 
Q 18.609375 15.53125 22.484375 10.953125 
Q 26.375 6.390625 33.015625 6.390625 
Q 39.65625 6.390625 43.53125 10.953125 
Q 47.40625 15.53125 47.40625 23.390625 
Q 47.40625 31.296875 43.53125 35.828125 
Q 39.65625 40.375 33.015625 40.375 
z
M 52.59375 71.296875 
L 52.59375 62.3125 
Q 48.875 64.0625 45.09375 64.984375 
Q 41.3125 65.921875 37.59375 65.921875 
Q 27.828125 65.921875 22.671875 59.328125 
Q 17.53125 52.734375 16.796875 39.40625 
Q 19.671875 43.65625 24.015625 45.921875 
Q 28.375 48.1875 33.59375 48.1875 
Q 44.578125 48.1875 50.953125 41.515625 
Q 57.328125 34.859375 57.328125 23.390625 
Q 57.328125 12.15625 50.6875 5.359375 
Q 44.046875 -1.421875 33.015625 -1.421875 
Q 20.359375 -1.421875 13.671875 8.265625 
Q 6.984375 17.96875 6.984375 36.375 
Q 6.984375 53.65625 15.1875 63.9375 
Q 23.390625 74.21875 37.203125 74.21875 
Q 40.921875 74.21875 44.703125 73.484375 
Q 48.484375 72.75 52.59375 71.296875 
z
" id="DejaVuSans-54"/>
       </defs>
       <use xlink:href="#DejaVuSans-54"/>
       <use x="63.623047" xlink:href="#DejaVuSans-48"/>
      </g>
     </g>
    </g>
    <g id="ytick_5">
     <g id="line2d_12">
      <g>
       <use style="stroke:#000000;stroke-width:0.8;" x="135" xlink:href="#m2cec3b1e88" y="140.978391"/>
      </g>
     </g>
     <g id="text_13">
      <!-- 80 -->
      <g transform="translate(115.275 144.77761)scale(0.1 -0.1)">
       <defs>
        <path d="M 31.78125 34.625 
Q 24.75 34.625 20.71875 30.859375 
Q 16.703125 27.09375 16.703125 20.515625 
Q 16.703125 13.921875 20.71875 10.15625 
Q 24.75 6.390625 31.78125 6.390625 
Q 38.8125 6.390625 42.859375 10.171875 
Q 46.921875 13.96875 46.921875 20.515625 
Q 46.921875 27.09375 42.890625 30.859375 
Q 38.875 34.625 31.78125 34.625 
z
M 21.921875 38.8125 
Q 15.578125 40.375 12.03125 44.71875 
Q 8.5 49.078125 8.5 55.328125 
Q 8.5 64.0625 14.71875 69.140625 
Q 20.953125 74.21875 31.78125 74.21875 
Q 42.671875 74.21875 48.875 69.140625 
Q 55.078125 64.0625 55.078125 55.328125 
Q 55.078125 49.078125 51.53125 44.71875 
Q 48 40.375 41.703125 38.8125 
Q 48.828125 37.15625 52.796875 32.3125 
Q 56.78125 27.484375 56.78125 20.515625 
Q 56.78125 9.90625 50.3125 4.234375 
Q 43.84375 -1.421875 31.78125 -1.421875 
Q 19.734375 -1.421875 13.25 4.234375 
Q 6.78125 9.90625 6.78125 20.515625 
Q 6.78125 27.484375 10.78125 32.3125 
Q 14.796875 37.15625 21.921875 38.8125 
z
M 18.3125 54.390625 
Q 18.3125 48.734375 21.84375 45.5625 
Q 25.390625 42.390625 31.78125 42.390625 
Q 38.140625 42.390625 41.71875 45.5625 
Q 45.3125 48.734375 45.3125 54.390625 
Q 45.3125 60.0625 41.71875 63.234375 
Q 38.140625 66.40625 31.78125 66.40625 
Q 25.390625 66.40625 21.84375 63.234375 
Q 18.3125 60.0625 18.3125 54.390625 
z
" id="DejaVuSans-56"/>
       </defs>
       <use xlink:href="#DejaVuSans-56"/>
       <use x="63.623047" xlink:href="#DejaVuSans-48"/>
      </g>
     </g>
    </g>
    <g id="ytick_6">
     <g id="line2d_13">
      <g>
       <use style="stroke:#000000;stroke-width:0.8;" x="135" xlink:href="#m2cec3b1e88" y="97.472989"/>
      </g>
     </g>
     <g id="text_14">
      <!-- 100 -->
      <g transform="translate(108.9125 101.272208)scale(0.1 -0.1)">
       <use xlink:href="#DejaVuSans-49"/>
       <use x="63.623047" xlink:href="#DejaVuSans-48"/>
       <use x="127.246094" xlink:href="#DejaVuSans-48"/>
      </g>
     </g>
    </g>
    <g id="ytick_7">
     <g id="line2d_14">
      <g>
       <use style="stroke:#000000;stroke-width:0.8;" x="135" xlink:href="#m2cec3b1e88" y="53.967587"/>
      </g>
     </g>
     <g id="text_15">
      <!-- 120 -->
      <g transform="translate(108.9125 57.766806)scale(0.1 -0.1)">
       <use xlink:href="#DejaVuSans-49"/>
       <use x="63.623047" xlink:href="#DejaVuSans-50"/>
       <use x="127.246094" xlink:href="#DejaVuSans-48"/>
      </g>
     </g>
    </g>
    <g id="text_16">
     <!-- Count -->
     <g transform="translate(102.832812 193.948437)rotate(-90)scale(0.1 -0.1)">
      <defs>
       <path d="M 64.40625 67.28125 
L 64.40625 56.890625 
Q 59.421875 61.53125 53.78125 63.8125 
Q 48.140625 66.109375 41.796875 66.109375 
Q 29.296875 66.109375 22.65625 58.46875 
Q 16.015625 50.828125 16.015625 36.375 
Q 16.015625 21.96875 22.65625 14.328125 
Q 29.296875 6.6875 41.796875 6.6875 
Q 48.140625 6.6875 53.78125 8.984375 
Q 59.421875 11.28125 64.40625 15.921875 
L 64.40625 5.609375 
Q 59.234375 2.09375 53.4375 0.328125 
Q 47.65625 -1.421875 41.21875 -1.421875 
Q 24.65625 -1.421875 15.125 8.703125 
Q 5.609375 18.84375 5.609375 36.375 
Q 5.609375 53.953125 15.125 64.078125 
Q 24.65625 74.21875 41.21875 74.21875 
Q 47.75 74.21875 53.53125 72.484375 
Q 59.328125 70.75 64.40625 67.28125 
z
" id="DejaVuSans-67"/>
      </defs>
      <use xlink:href="#DejaVuSans-67"/>
      <use x="69.824219" xlink:href="#DejaVuSans-111"/>
      <use x="131.005859" xlink:href="#DejaVuSans-117"/>
      <use x="194.384766" xlink:href="#DejaVuSans-110"/>
      <use x="257.763672" xlink:href="#DejaVuSans-116"/>
     </g>
    </g>
   </g>
   <g id="patch_114">
    <path d="M 135 315 
L 135 43.2 
" style="fill:none;stroke:#000000;stroke-linecap:square;stroke-linejoin:miter;stroke-width:0.8;"/>
   </g>
   <g id="patch_115">
    <path d="M 515.454545 315 
L 515.454545 43.2 
" style="fill:none;stroke:#000000;stroke-linecap:square;stroke-linejoin:miter;stroke-width:0.8;"/>
   </g>
   <g id="patch_116">
    <path d="M 135 315 
L 515.454545 315 
" style="fill:none;stroke:#000000;stroke-linecap:square;stroke-linejoin:miter;stroke-width:0.8;"/>
   </g>
   <g id="patch_117">
    <path d="M 135 43.2 
L 515.454545 43.2 
" style="fill:none;stroke:#000000;stroke-linecap:square;stroke-linejoin:miter;stroke-width:0.8;"/>
   </g>
   <g id="legend_1">
    <g id="patch_118">
     <path d="M 460.55142 109.9125 
L 508.454545 109.9125 
Q 510.454545 109.9125 510.454545 107.9125 
L 510.454545 50.2 
Q 510.454545 48.2 508.454545 48.2 
L 460.55142 48.2 
Q 458.55142 48.2 458.55142 50.2 
L 458.55142 107.9125 
Q 458.55142 109.9125 460.55142 109.9125 
z
" style="fill:#ffffff;opacity:0.8;stroke:#cccccc;stroke-linejoin:miter;"/>
    </g>
    <g id="text_17">
     <!-- #label -->
     <g transform="translate(468.22017 59.798437)scale(0.1 -0.1)">
      <defs>
       <path d="M 51.125 44 
L 36.921875 44 
L 32.8125 27.6875 
L 47.125 27.6875 
z
M 43.796875 71.78125 
L 38.71875 51.515625 
L 52.984375 51.515625 
L 58.109375 71.78125 
L 65.921875 71.78125 
L 60.890625 51.515625 
L 76.125 51.515625 
L 76.125 44 
L 58.984375 44 
L 54.984375 27.6875 
L 70.515625 27.6875 
L 70.515625 20.21875 
L 53.078125 20.21875 
L 48 0 
L 40.1875 0 
L 45.21875 20.21875 
L 30.90625 20.21875 
L 25.875 0 
L 18.015625 0 
L 23.09375 20.21875 
L 7.71875 20.21875 
L 7.71875 27.6875 
L 24.90625 27.6875 
L 29 44 
L 13.28125 44 
L 13.28125 51.515625 
L 30.90625 51.515625 
L 35.890625 71.78125 
z
" id="DejaVuSans-35"/>
       <path d="M 9.421875 75.984375 
L 18.40625 75.984375 
L 18.40625 0 
L 9.421875 0 
z
" id="DejaVuSans-108"/>
       <path d="M 34.28125 27.484375 
Q 23.390625 27.484375 19.1875 25 
Q 14.984375 22.515625 14.984375 16.5 
Q 14.984375 11.71875 18.140625 8.90625 
Q 21.296875 6.109375 26.703125 6.109375 
Q 34.1875 6.109375 38.703125 11.40625 
Q 43.21875 16.703125 43.21875 25.484375 
L 43.21875 27.484375 
z
M 52.203125 31.203125 
L 52.203125 0 
L 43.21875 0 
L 43.21875 8.296875 
Q 40.140625 3.328125 35.546875 0.953125 
Q 30.953125 -1.421875 24.3125 -1.421875 
Q 15.921875 -1.421875 10.953125 3.296875 
Q 6 8.015625 6 15.921875 
Q 6 25.140625 12.171875 29.828125 
Q 18.359375 34.515625 30.609375 34.515625 
L 43.21875 34.515625 
L 43.21875 35.40625 
Q 43.21875 41.609375 39.140625 45 
Q 35.0625 48.390625 27.6875 48.390625 
Q 23 48.390625 18.546875 47.265625 
Q 14.109375 46.140625 10.015625 43.890625 
L 10.015625 52.203125 
Q 14.9375 54.109375 19.578125 55.046875 
Q 24.21875 56 28.609375 56 
Q 40.484375 56 46.34375 49.84375 
Q 52.203125 43.703125 52.203125 31.203125 
z
" id="DejaVuSans-97"/>
       <path d="M 48.6875 27.296875 
Q 48.6875 37.203125 44.609375 42.84375 
Q 40.53125 48.484375 33.40625 48.484375 
Q 26.265625 48.484375 22.1875 42.84375 
Q 18.109375 37.203125 18.109375 27.296875 
Q 18.109375 17.390625 22.1875 11.75 
Q 26.265625 6.109375 33.40625 6.109375 
Q 40.53125 6.109375 44.609375 11.75 
Q 48.6875 17.390625 48.6875 27.296875 
z
M 18.109375 46.390625 
Q 20.953125 51.265625 25.265625 53.625 
Q 29.59375 56 35.59375 56 
Q 45.5625 56 51.78125 48.09375 
Q 58.015625 40.1875 58.015625 27.296875 
Q 58.015625 14.40625 51.78125 6.484375 
Q 45.5625 -1.421875 35.59375 -1.421875 
Q 29.59375 -1.421875 25.265625 0.953125 
Q 20.953125 3.328125 18.109375 8.203125 
L 18.109375 0 
L 9.078125 0 
L 9.078125 75.984375 
L 18.109375 75.984375 
z
" id="DejaVuSans-98"/>
      </defs>
      <use xlink:href="#DejaVuSans-35"/>
      <use x="83.789062" xlink:href="#DejaVuSans-108"/>
      <use x="111.572266" xlink:href="#DejaVuSans-97"/>
      <use x="172.851562" xlink:href="#DejaVuSans-98"/>
      <use x="236.328125" xlink:href="#DejaVuSans-101"/>
      <use x="297.851562" xlink:href="#DejaVuSans-108"/>
     </g>
    </g>
    <g id="patch_119">
     <path d="M 462.55142 74.476562 
L 482.55142 74.476562 
L 482.55142 67.476562 
L 462.55142 67.476562 
z
" style="fill:#ff0000;fill-opacity:0.75;stroke:#000000;stroke-linejoin:miter;"/>
    </g>
    <g id="text_18">
     <!-- 0.0 -->
     <g transform="translate(490.55142 74.476562)scale(0.1 -0.1)">
      <use xlink:href="#DejaVuSans-48"/>
      <use x="63.623047" xlink:href="#DejaVuSans-46"/>
      <use x="95.410156" xlink:href="#DejaVuSans-48"/>
     </g>
    </g>
    <g id="patch_120">
     <path d="M 462.55142 89.154688 
L 482.55142 89.154688 
L 482.55142 82.154688 
L 462.55142 82.154688 
z
" style="fill:#0000ff;fill-opacity:0.75;stroke:#000000;stroke-linejoin:miter;"/>
    </g>
    <g id="text_19">
     <!-- 0.5 -->
     <g transform="translate(490.55142 89.154688)scale(0.1 -0.1)">
      <use xlink:href="#DejaVuSans-48"/>
      <use x="63.623047" xlink:href="#DejaVuSans-46"/>
      <use x="95.410156" xlink:href="#DejaVuSans-53"/>
     </g>
    </g>
    <g id="patch_121">
     <path d="M 462.55142 103.832812 
L 482.55142 103.832812 
L 482.55142 96.832812 
L 462.55142 96.832812 
z
" style="fill:#ffff00;fill-opacity:0.75;stroke:#000000;stroke-linejoin:miter;"/>
    </g>
    <g id="text_20">
     <!-- 1.0 -->
     <g transform="translate(490.55142 103.832812)scale(0.1 -0.1)">
      <use xlink:href="#DejaVuSans-49"/>
      <use x="63.623047" xlink:href="#DejaVuSans-46"/>
      <use x="95.410156" xlink:href="#DejaVuSans-48"/>
     </g>
    </g>
   </g>
  </g>
  <g id="axes_2">
   <g id="patch_122">
    <path d="M 591.545455 315 
L 972 315 
L 972 43.2 
L 591.545455 43.2 
z
" style="fill:#ffffff;"/>
   </g>
   <g id="patch_123">
    <path clip-path="url(#p05dbfab4b5)" d="M 608.838843 315 
L 618.446281 315 
L 618.446281 303.495238 
L 608.838843 303.495238 
z
" style="fill:#ffff00;fill-opacity:0.75;stroke:#000000;stroke-linejoin:miter;stroke-width:0.960744;"/>
   </g>
   <g id="patch_124">
    <path clip-path="url(#p05dbfab4b5)" d="M 618.446281 315 
L 628.053719 315 
L 628.053719 313.08254 
L 618.446281 313.08254 
z
" style="fill:#ffff00;fill-opacity:0.75;stroke:#000000;stroke-linejoin:miter;stroke-width:0.960744;"/>
   </g>
   <g id="patch_125">
    <path clip-path="url(#p05dbfab4b5)" d="M 628.053719 315 
L 637.661157 315 
L 637.661157 315 
L 628.053719 315 
z
" style="fill:#ffff00;fill-opacity:0.75;stroke:#000000;stroke-linejoin:miter;stroke-width:0.960744;"/>
   </g>
   <g id="patch_126">
    <path clip-path="url(#p05dbfab4b5)" d="M 637.661157 315 
L 647.268595 315 
L 647.268595 307.330159 
L 637.661157 307.330159 
z
" style="fill:#ffff00;fill-opacity:0.75;stroke:#000000;stroke-linejoin:miter;stroke-width:0.960744;"/>
   </g>
   <g id="patch_127">
    <path clip-path="url(#p05dbfab4b5)" d="M 647.268595 315 
L 656.876033 315 
L 656.876033 278.568254 
L 647.268595 278.568254 
z
" style="fill:#ffff00;fill-opacity:0.75;stroke:#000000;stroke-linejoin:miter;stroke-width:0.960744;"/>
   </g>
   <g id="patch_128">
    <path clip-path="url(#p05dbfab4b5)" d="M 656.876033 315 
L 666.483471 315 
L 666.483471 303.495238 
L 656.876033 303.495238 
z
" style="fill:#ffff00;fill-opacity:0.75;stroke:#000000;stroke-linejoin:miter;stroke-width:0.960744;"/>
   </g>
   <g id="patch_129">
    <path clip-path="url(#p05dbfab4b5)" d="M 666.483471 315 
L 676.090909 315 
L 676.090909 255.55873 
L 666.483471 255.55873 
z
" style="fill:#ffff00;fill-opacity:0.75;stroke:#000000;stroke-linejoin:miter;stroke-width:0.960744;"/>
   </g>
   <g id="patch_130">
    <path clip-path="url(#p05dbfab4b5)" d="M 676.090909 315 
L 685.698347 315 
L 685.698347 272.815873 
L 676.090909 272.815873 
z
" style="fill:#ffff00;fill-opacity:0.75;stroke:#000000;stroke-linejoin:miter;stroke-width:0.960744;"/>
   </g>
   <g id="patch_131">
    <path clip-path="url(#p05dbfab4b5)" d="M 685.698347 315 
L 695.305785 315 
L 695.305785 280.485714 
L 685.698347 280.485714 
z
" style="fill:#ffff00;fill-opacity:0.75;stroke:#000000;stroke-linejoin:miter;stroke-width:0.960744;"/>
   </g>
   <g id="patch_132">
    <path clip-path="url(#p05dbfab4b5)" d="M 695.305785 315 
L 704.913223 315 
L 704.913223 257.47619 
L 695.305785 257.47619 
z
" style="fill:#ffff00;fill-opacity:0.75;stroke:#000000;stroke-linejoin:miter;stroke-width:0.960744;"/>
   </g>
   <g id="patch_133">
    <path clip-path="url(#p05dbfab4b5)" d="M 704.913223 315 
L 714.520661 315 
L 714.520661 236.384127 
L 704.913223 236.384127 
z
" style="fill:#ffff00;fill-opacity:0.75;stroke:#000000;stroke-linejoin:miter;stroke-width:0.960744;"/>
   </g>
   <g id="patch_134">
    <path clip-path="url(#p05dbfab4b5)" d="M 714.520661 315 
L 724.128099 315 
L 724.128099 293.907937 
L 714.520661 293.907937 
z
" style="fill:#ffff00;fill-opacity:0.75;stroke:#000000;stroke-linejoin:miter;stroke-width:0.960744;"/>
   </g>
   <g id="patch_135">
    <path clip-path="url(#p05dbfab4b5)" d="M 724.128099 315 
L 733.735537 315 
L 733.735537 257.47619 
L 724.128099 257.47619 
z
" style="fill:#ffff00;fill-opacity:0.75;stroke:#000000;stroke-linejoin:miter;stroke-width:0.960744;"/>
   </g>
   <g id="patch_136">
    <path clip-path="url(#p05dbfab4b5)" d="M 733.735537 315 
L 743.342975 315 
L 743.342975 278.568254 
L 733.735537 278.568254 
z
" style="fill:#ffff00;fill-opacity:0.75;stroke:#000000;stroke-linejoin:miter;stroke-width:0.960744;"/>
   </g>
   <g id="patch_137">
    <path clip-path="url(#p05dbfab4b5)" d="M 743.342975 315 
L 752.950413 315 
L 752.950413 299.660317 
L 743.342975 299.660317 
z
" style="fill:#ffff00;fill-opacity:0.75;stroke:#000000;stroke-linejoin:miter;stroke-width:0.960744;"/>
   </g>
   <g id="patch_138">
    <path clip-path="url(#p05dbfab4b5)" d="M 752.950413 315 
L 762.557851 315 
L 762.557851 303.495238 
L 752.950413 303.495238 
z
" style="fill:#ffff00;fill-opacity:0.75;stroke:#000000;stroke-linejoin:miter;stroke-width:0.960744;"/>
   </g>
   <g id="patch_139">
    <path clip-path="url(#p05dbfab4b5)" d="M 762.557851 315 
L 772.165289 315 
L 772.165289 288.155556 
L 762.557851 288.155556 
z
" style="fill:#ffff00;fill-opacity:0.75;stroke:#000000;stroke-linejoin:miter;stroke-width:0.960744;"/>
   </g>
   <g id="patch_140">
    <path clip-path="url(#p05dbfab4b5)" d="M 772.165289 315 
L 781.772727 315 
L 781.772727 311.165079 
L 772.165289 311.165079 
z
" style="fill:#ffff00;fill-opacity:0.75;stroke:#000000;stroke-linejoin:miter;stroke-width:0.960744;"/>
   </g>
   <g id="patch_141">
    <path clip-path="url(#p05dbfab4b5)" d="M 781.772727 315 
L 791.380165 315 
L 791.380165 286.238095 
L 781.772727 286.238095 
z
" style="fill:#ffff00;fill-opacity:0.75;stroke:#000000;stroke-linejoin:miter;stroke-width:0.960744;"/>
   </g>
   <g id="patch_142">
    <path clip-path="url(#p05dbfab4b5)" d="M 791.380165 315 
L 800.987603 315 
L 800.987603 309.247619 
L 791.380165 309.247619 
z
" style="fill:#ffff00;fill-opacity:0.75;stroke:#000000;stroke-linejoin:miter;stroke-width:0.960744;"/>
   </g>
   <g id="patch_143">
    <path clip-path="url(#p05dbfab4b5)" d="M 800.987603 315 
L 810.595041 315 
L 810.595041 311.165079 
L 800.987603 311.165079 
z
" style="fill:#ffff00;fill-opacity:0.75;stroke:#000000;stroke-linejoin:miter;stroke-width:0.960744;"/>
   </g>
   <g id="patch_144">
    <path clip-path="url(#p05dbfab4b5)" d="M 810.595041 315 
L 820.202479 315 
L 820.202479 313.08254 
L 810.595041 313.08254 
z
" style="fill:#ffff00;fill-opacity:0.75;stroke:#000000;stroke-linejoin:miter;stroke-width:0.960744;"/>
   </g>
   <g id="patch_145">
    <path clip-path="url(#p05dbfab4b5)" d="M 820.202479 315 
L 829.809917 315 
L 829.809917 313.08254 
L 820.202479 313.08254 
z
" style="fill:#ffff00;fill-opacity:0.75;stroke:#000000;stroke-linejoin:miter;stroke-width:0.960744;"/>
   </g>
   <g id="patch_146">
    <path clip-path="url(#p05dbfab4b5)" d="M 829.809917 315 
L 839.417355 315 
L 839.417355 315 
L 829.809917 315 
z
" style="fill:#ffff00;fill-opacity:0.75;stroke:#000000;stroke-linejoin:miter;stroke-width:0.960744;"/>
   </g>
   <g id="patch_147">
    <path clip-path="url(#p05dbfab4b5)" d="M 839.417355 315 
L 849.024793 315 
L 849.024793 311.165079 
L 839.417355 311.165079 
z
" style="fill:#ffff00;fill-opacity:0.75;stroke:#000000;stroke-linejoin:miter;stroke-width:0.960744;"/>
   </g>
   <g id="patch_148">
    <path clip-path="url(#p05dbfab4b5)" d="M 849.024793 315 
L 858.632231 315 
L 858.632231 315 
L 849.024793 315 
z
" style="fill:#ffff00;fill-opacity:0.75;stroke:#000000;stroke-linejoin:miter;stroke-width:0.960744;"/>
   </g>
   <g id="patch_149">
    <path clip-path="url(#p05dbfab4b5)" d="M 858.632231 315 
L 868.239669 315 
L 868.239669 315 
L 858.632231 315 
z
" style="fill:#ffff00;fill-opacity:0.75;stroke:#000000;stroke-linejoin:miter;stroke-width:0.960744;"/>
   </g>
   <g id="patch_150">
    <path clip-path="url(#p05dbfab4b5)" d="M 868.239669 315 
L 877.847107 315 
L 877.847107 315 
L 868.239669 315 
z
" style="fill:#ffff00;fill-opacity:0.75;stroke:#000000;stroke-linejoin:miter;stroke-width:0.960744;"/>
   </g>
   <g id="patch_151">
    <path clip-path="url(#p05dbfab4b5)" d="M 877.847107 315 
L 887.454545 315 
L 887.454545 315 
L 877.847107 315 
z
" style="fill:#ffff00;fill-opacity:0.75;stroke:#000000;stroke-linejoin:miter;stroke-width:0.960744;"/>
   </g>
   <g id="patch_152">
    <path clip-path="url(#p05dbfab4b5)" d="M 887.454545 315 
L 897.061983 315 
L 897.061983 315 
L 887.454545 315 
z
" style="fill:#ffff00;fill-opacity:0.75;stroke:#000000;stroke-linejoin:miter;stroke-width:0.960744;"/>
   </g>
   <g id="patch_153">
    <path clip-path="url(#p05dbfab4b5)" d="M 897.061983 315 
L 906.669421 315 
L 906.669421 313.08254 
L 897.061983 313.08254 
z
" style="fill:#ffff00;fill-opacity:0.75;stroke:#000000;stroke-linejoin:miter;stroke-width:0.960744;"/>
   </g>
   <g id="patch_154">
    <path clip-path="url(#p05dbfab4b5)" d="M 906.669421 315 
L 916.27686 315 
L 916.27686 315 
L 906.669421 315 
z
" style="fill:#ffff00;fill-opacity:0.75;stroke:#000000;stroke-linejoin:miter;stroke-width:0.960744;"/>
   </g>
   <g id="patch_155">
    <path clip-path="url(#p05dbfab4b5)" d="M 916.27686 315 
L 925.884298 315 
L 925.884298 315 
L 916.27686 315 
z
" style="fill:#ffff00;fill-opacity:0.75;stroke:#000000;stroke-linejoin:miter;stroke-width:0.960744;"/>
   </g>
   <g id="patch_156">
    <path clip-path="url(#p05dbfab4b5)" d="M 925.884298 315 
L 935.491736 315 
L 935.491736 315 
L 925.884298 315 
z
" style="fill:#ffff00;fill-opacity:0.75;stroke:#000000;stroke-linejoin:miter;stroke-width:0.960744;"/>
   </g>
   <g id="patch_157">
    <path clip-path="url(#p05dbfab4b5)" d="M 935.491736 315 
L 945.099174 315 
L 945.099174 315 
L 935.491736 315 
z
" style="fill:#ffff00;fill-opacity:0.75;stroke:#000000;stroke-linejoin:miter;stroke-width:0.960744;"/>
   </g>
   <g id="patch_158">
    <path clip-path="url(#p05dbfab4b5)" d="M 945.099174 315 
L 954.706612 315 
L 954.706612 311.165079 
L 945.099174 311.165079 
z
" style="fill:#ffff00;fill-opacity:0.75;stroke:#000000;stroke-linejoin:miter;stroke-width:0.960744;"/>
   </g>
   <g id="patch_159">
    <path clip-path="url(#p05dbfab4b5)" d="M 608.838843 303.495238 
L 618.446281 303.495238 
L 618.446281 303.495238 
L 608.838843 303.495238 
z
" style="fill:#0000ff;fill-opacity:0.75;stroke:#000000;stroke-linejoin:miter;stroke-width:0.960744;"/>
   </g>
   <g id="patch_160">
    <path clip-path="url(#p05dbfab4b5)" d="M 618.446281 313.08254 
L 628.053719 313.08254 
L 628.053719 299.660317 
L 618.446281 299.660317 
z
" style="fill:#0000ff;fill-opacity:0.75;stroke:#000000;stroke-linejoin:miter;stroke-width:0.960744;"/>
   </g>
   <g id="patch_161">
    <path clip-path="url(#p05dbfab4b5)" d="M 628.053719 315 
L 637.661157 315 
L 637.661157 268.980952 
L 628.053719 268.980952 
z
" style="fill:#0000ff;fill-opacity:0.75;stroke:#000000;stroke-linejoin:miter;stroke-width:0.960744;"/>
   </g>
   <g id="patch_162">
    <path clip-path="url(#p05dbfab4b5)" d="M 637.661157 307.330159 
L 647.268595 307.330159 
L 647.268595 203.787302 
L 637.661157 203.787302 
z
" style="fill:#0000ff;fill-opacity:0.75;stroke:#000000;stroke-linejoin:miter;stroke-width:0.960744;"/>
   </g>
   <g id="patch_163">
    <path clip-path="url(#p05dbfab4b5)" d="M 647.268595 278.568254 
L 656.876033 278.568254 
L 656.876033 163.520635 
L 647.268595 163.520635 
z
" style="fill:#0000ff;fill-opacity:0.75;stroke:#000000;stroke-linejoin:miter;stroke-width:0.960744;"/>
   </g>
   <g id="patch_164">
    <path clip-path="url(#p05dbfab4b5)" d="M 656.876033 303.495238 
L 666.483471 303.495238 
L 666.483471 207.622222 
L 656.876033 207.622222 
z
" style="fill:#0000ff;fill-opacity:0.75;stroke:#000000;stroke-linejoin:miter;stroke-width:0.960744;"/>
   </g>
   <g id="patch_165">
    <path clip-path="url(#p05dbfab4b5)" d="M 666.483471 255.55873 
L 676.090909 255.55873 
L 676.090909 159.685714 
L 666.483471 159.685714 
z
" style="fill:#0000ff;fill-opacity:0.75;stroke:#000000;stroke-linejoin:miter;stroke-width:0.960744;"/>
   </g>
   <g id="patch_166">
    <path clip-path="url(#p05dbfab4b5)" d="M 676.090909 272.815873 
L 685.698347 272.815873 
L 685.698347 211.457143 
L 676.090909 211.457143 
z
" style="fill:#0000ff;fill-opacity:0.75;stroke:#000000;stroke-linejoin:miter;stroke-width:0.960744;"/>
   </g>
   <g id="patch_167">
    <path clip-path="url(#p05dbfab4b5)" d="M 685.698347 280.485714 
L 695.305785 280.485714 
L 695.305785 257.47619 
L 685.698347 257.47619 
z
" style="fill:#0000ff;fill-opacity:0.75;stroke:#000000;stroke-linejoin:miter;stroke-width:0.960744;"/>
   </g>
   <g id="patch_168">
    <path clip-path="url(#p05dbfab4b5)" d="M 695.305785 257.47619 
L 704.913223 257.47619 
L 704.913223 249.806349 
L 695.305785 249.806349 
z
" style="fill:#0000ff;fill-opacity:0.75;stroke:#000000;stroke-linejoin:miter;stroke-width:0.960744;"/>
   </g>
   <g id="patch_169">
    <path clip-path="url(#p05dbfab4b5)" d="M 704.913223 236.384127 
L 714.520661 236.384127 
L 714.520661 232.549206 
L 704.913223 232.549206 
z
" style="fill:#0000ff;fill-opacity:0.75;stroke:#000000;stroke-linejoin:miter;stroke-width:0.960744;"/>
   </g>
   <g id="patch_170">
    <path clip-path="url(#p05dbfab4b5)" d="M 714.520661 293.907937 
L 724.128099 293.907937 
L 724.128099 293.907937 
L 714.520661 293.907937 
z
" style="fill:#0000ff;fill-opacity:0.75;stroke:#000000;stroke-linejoin:miter;stroke-width:0.960744;"/>
   </g>
   <g id="patch_171">
    <path clip-path="url(#p05dbfab4b5)" d="M 724.128099 257.47619 
L 733.735537 257.47619 
L 733.735537 257.47619 
L 724.128099 257.47619 
z
" style="fill:#0000ff;fill-opacity:0.75;stroke:#000000;stroke-linejoin:miter;stroke-width:0.960744;"/>
   </g>
   <g id="patch_172">
    <path clip-path="url(#p05dbfab4b5)" d="M 733.735537 278.568254 
L 743.342975 278.568254 
L 743.342975 278.568254 
L 733.735537 278.568254 
z
" style="fill:#0000ff;fill-opacity:0.75;stroke:#000000;stroke-linejoin:miter;stroke-width:0.960744;"/>
   </g>
   <g id="patch_173">
    <path clip-path="url(#p05dbfab4b5)" d="M 743.342975 299.660317 
L 752.950413 299.660317 
L 752.950413 299.660317 
L 743.342975 299.660317 
z
" style="fill:#0000ff;fill-opacity:0.75;stroke:#000000;stroke-linejoin:miter;stroke-width:0.960744;"/>
   </g>
   <g id="patch_174">
    <path clip-path="url(#p05dbfab4b5)" d="M 752.950413 303.495238 
L 762.557851 303.495238 
L 762.557851 303.495238 
L 752.950413 303.495238 
z
" style="fill:#0000ff;fill-opacity:0.75;stroke:#000000;stroke-linejoin:miter;stroke-width:0.960744;"/>
   </g>
   <g id="patch_175">
    <path clip-path="url(#p05dbfab4b5)" d="M 762.557851 288.155556 
L 772.165289 288.155556 
L 772.165289 288.155556 
L 762.557851 288.155556 
z
" style="fill:#0000ff;fill-opacity:0.75;stroke:#000000;stroke-linejoin:miter;stroke-width:0.960744;"/>
   </g>
   <g id="patch_176">
    <path clip-path="url(#p05dbfab4b5)" d="M 772.165289 311.165079 
L 781.772727 311.165079 
L 781.772727 311.165079 
L 772.165289 311.165079 
z
" style="fill:#0000ff;fill-opacity:0.75;stroke:#000000;stroke-linejoin:miter;stroke-width:0.960744;"/>
   </g>
   <g id="patch_177">
    <path clip-path="url(#p05dbfab4b5)" d="M 781.772727 286.238095 
L 791.380165 286.238095 
L 791.380165 286.238095 
L 781.772727 286.238095 
z
" style="fill:#0000ff;fill-opacity:0.75;stroke:#000000;stroke-linejoin:miter;stroke-width:0.960744;"/>
   </g>
   <g id="patch_178">
    <path clip-path="url(#p05dbfab4b5)" d="M 791.380165 309.247619 
L 800.987603 309.247619 
L 800.987603 309.247619 
L 791.380165 309.247619 
z
" style="fill:#0000ff;fill-opacity:0.75;stroke:#000000;stroke-linejoin:miter;stroke-width:0.960744;"/>
   </g>
   <g id="patch_179">
    <path clip-path="url(#p05dbfab4b5)" d="M 800.987603 311.165079 
L 810.595041 311.165079 
L 810.595041 311.165079 
L 800.987603 311.165079 
z
" style="fill:#0000ff;fill-opacity:0.75;stroke:#000000;stroke-linejoin:miter;stroke-width:0.960744;"/>
   </g>
   <g id="patch_180">
    <path clip-path="url(#p05dbfab4b5)" d="M 810.595041 313.08254 
L 820.202479 313.08254 
L 820.202479 313.08254 
L 810.595041 313.08254 
z
" style="fill:#0000ff;fill-opacity:0.75;stroke:#000000;stroke-linejoin:miter;stroke-width:0.960744;"/>
   </g>
   <g id="patch_181">
    <path clip-path="url(#p05dbfab4b5)" d="M 820.202479 313.08254 
L 829.809917 313.08254 
L 829.809917 313.08254 
L 820.202479 313.08254 
z
" style="fill:#0000ff;fill-opacity:0.75;stroke:#000000;stroke-linejoin:miter;stroke-width:0.960744;"/>
   </g>
   <g id="patch_182">
    <path clip-path="url(#p05dbfab4b5)" d="M 829.809917 315 
L 839.417355 315 
L 839.417355 315 
L 829.809917 315 
z
" style="fill:#0000ff;fill-opacity:0.75;stroke:#000000;stroke-linejoin:miter;stroke-width:0.960744;"/>
   </g>
   <g id="patch_183">
    <path clip-path="url(#p05dbfab4b5)" d="M 839.417355 311.165079 
L 849.024793 311.165079 
L 849.024793 311.165079 
L 839.417355 311.165079 
z
" style="fill:#0000ff;fill-opacity:0.75;stroke:#000000;stroke-linejoin:miter;stroke-width:0.960744;"/>
   </g>
   <g id="patch_184">
    <path clip-path="url(#p05dbfab4b5)" d="M 849.024793 315 
L 858.632231 315 
L 858.632231 315 
L 849.024793 315 
z
" style="fill:#0000ff;fill-opacity:0.75;stroke:#000000;stroke-linejoin:miter;stroke-width:0.960744;"/>
   </g>
   <g id="patch_185">
    <path clip-path="url(#p05dbfab4b5)" d="M 858.632231 315 
L 868.239669 315 
L 868.239669 315 
L 858.632231 315 
z
" style="fill:#0000ff;fill-opacity:0.75;stroke:#000000;stroke-linejoin:miter;stroke-width:0.960744;"/>
   </g>
   <g id="patch_186">
    <path clip-path="url(#p05dbfab4b5)" d="M 868.239669 315 
L 877.847107 315 
L 877.847107 315 
L 868.239669 315 
z
" style="fill:#0000ff;fill-opacity:0.75;stroke:#000000;stroke-linejoin:miter;stroke-width:0.960744;"/>
   </g>
   <g id="patch_187">
    <path clip-path="url(#p05dbfab4b5)" d="M 877.847107 315 
L 887.454545 315 
L 887.454545 315 
L 877.847107 315 
z
" style="fill:#0000ff;fill-opacity:0.75;stroke:#000000;stroke-linejoin:miter;stroke-width:0.960744;"/>
   </g>
   <g id="patch_188">
    <path clip-path="url(#p05dbfab4b5)" d="M 887.454545 315 
L 897.061983 315 
L 897.061983 315 
L 887.454545 315 
z
" style="fill:#0000ff;fill-opacity:0.75;stroke:#000000;stroke-linejoin:miter;stroke-width:0.960744;"/>
   </g>
   <g id="patch_189">
    <path clip-path="url(#p05dbfab4b5)" d="M 897.061983 313.08254 
L 906.669421 313.08254 
L 906.669421 313.08254 
L 897.061983 313.08254 
z
" style="fill:#0000ff;fill-opacity:0.75;stroke:#000000;stroke-linejoin:miter;stroke-width:0.960744;"/>
   </g>
   <g id="patch_190">
    <path clip-path="url(#p05dbfab4b5)" d="M 906.669421 315 
L 916.27686 315 
L 916.27686 315 
L 906.669421 315 
z
" style="fill:#0000ff;fill-opacity:0.75;stroke:#000000;stroke-linejoin:miter;stroke-width:0.960744;"/>
   </g>
   <g id="patch_191">
    <path clip-path="url(#p05dbfab4b5)" d="M 916.27686 315 
L 925.884298 315 
L 925.884298 315 
L 916.27686 315 
z
" style="fill:#0000ff;fill-opacity:0.75;stroke:#000000;stroke-linejoin:miter;stroke-width:0.960744;"/>
   </g>
   <g id="patch_192">
    <path clip-path="url(#p05dbfab4b5)" d="M 925.884298 315 
L 935.491736 315 
L 935.491736 315 
L 925.884298 315 
z
" style="fill:#0000ff;fill-opacity:0.75;stroke:#000000;stroke-linejoin:miter;stroke-width:0.960744;"/>
   </g>
   <g id="patch_193">
    <path clip-path="url(#p05dbfab4b5)" d="M 935.491736 315 
L 945.099174 315 
L 945.099174 315 
L 935.491736 315 
z
" style="fill:#0000ff;fill-opacity:0.75;stroke:#000000;stroke-linejoin:miter;stroke-width:0.960744;"/>
   </g>
   <g id="patch_194">
    <path clip-path="url(#p05dbfab4b5)" d="M 945.099174 311.165079 
L 954.706612 311.165079 
L 954.706612 311.165079 
L 945.099174 311.165079 
z
" style="fill:#0000ff;fill-opacity:0.75;stroke:#000000;stroke-linejoin:miter;stroke-width:0.960744;"/>
   </g>
   <g id="patch_195">
    <path clip-path="url(#p05dbfab4b5)" d="M 608.838843 303.495238 
L 618.446281 303.495238 
L 618.446281 274.733333 
L 608.838843 274.733333 
z
" style="fill:#ff0000;fill-opacity:0.75;stroke:#000000;stroke-linejoin:miter;stroke-width:0.960744;"/>
   </g>
   <g id="patch_196">
    <path clip-path="url(#p05dbfab4b5)" d="M 618.446281 299.660317 
L 628.053719 299.660317 
L 628.053719 203.787302 
L 618.446281 203.787302 
z
" style="fill:#ff0000;fill-opacity:0.75;stroke:#000000;stroke-linejoin:miter;stroke-width:0.960744;"/>
   </g>
   <g id="patch_197">
    <path clip-path="url(#p05dbfab4b5)" d="M 628.053719 268.980952 
L 637.661157 268.980952 
L 637.661157 140.511111 
L 628.053719 140.511111 
z
" style="fill:#ff0000;fill-opacity:0.75;stroke:#000000;stroke-linejoin:miter;stroke-width:0.960744;"/>
   </g>
   <g id="patch_198">
    <path clip-path="url(#p05dbfab4b5)" d="M 637.661157 203.787302 
L 647.268595 203.787302 
L 647.268595 56.142857 
L 637.661157 56.142857 
z
" style="fill:#ff0000;fill-opacity:0.75;stroke:#000000;stroke-linejoin:miter;stroke-width:0.960744;"/>
   </g>
   <g id="patch_199">
    <path clip-path="url(#p05dbfab4b5)" d="M 647.268595 163.520635 
L 656.876033 163.520635 
L 656.876033 65.730159 
L 647.268595 65.730159 
z
" style="fill:#ff0000;fill-opacity:0.75;stroke:#000000;stroke-linejoin:miter;stroke-width:0.960744;"/>
   </g>
   <g id="patch_200">
    <path clip-path="url(#p05dbfab4b5)" d="M 656.876033 207.622222 
L 666.483471 207.622222 
L 666.483471 175.025397 
L 656.876033 175.025397 
z
" style="fill:#ff0000;fill-opacity:0.75;stroke:#000000;stroke-linejoin:miter;stroke-width:0.960744;"/>
   </g>
   <g id="patch_201">
    <path clip-path="url(#p05dbfab4b5)" d="M 666.483471 159.685714 
L 676.090909 159.685714 
L 676.090909 138.593651 
L 666.483471 138.593651 
z
" style="fill:#ff0000;fill-opacity:0.75;stroke:#000000;stroke-linejoin:miter;stroke-width:0.960744;"/>
   </g>
   <g id="patch_202">
    <path clip-path="url(#p05dbfab4b5)" d="M 676.090909 211.457143 
L 685.698347 211.457143 
L 685.698347 203.787302 
L 676.090909 203.787302 
z
" style="fill:#ff0000;fill-opacity:0.75;stroke:#000000;stroke-linejoin:miter;stroke-width:0.960744;"/>
   </g>
   <g id="patch_203">
    <path clip-path="url(#p05dbfab4b5)" d="M 685.698347 257.47619 
L 695.305785 257.47619 
L 695.305785 253.64127 
L 685.698347 253.64127 
z
" style="fill:#ff0000;fill-opacity:0.75;stroke:#000000;stroke-linejoin:miter;stroke-width:0.960744;"/>
   </g>
   <g id="patch_204">
    <path clip-path="url(#p05dbfab4b5)" d="M 695.305785 249.806349 
L 704.913223 249.806349 
L 704.913223 249.806349 
L 695.305785 249.806349 
z
" style="fill:#ff0000;fill-opacity:0.75;stroke:#000000;stroke-linejoin:miter;stroke-width:0.960744;"/>
   </g>
   <g id="patch_205">
    <path clip-path="url(#p05dbfab4b5)" d="M 704.913223 232.549206 
L 714.520661 232.549206 
L 714.520661 230.631746 
L 704.913223 230.631746 
z
" style="fill:#ff0000;fill-opacity:0.75;stroke:#000000;stroke-linejoin:miter;stroke-width:0.960744;"/>
   </g>
   <g id="patch_206">
    <path clip-path="url(#p05dbfab4b5)" d="M 714.520661 293.907937 
L 724.128099 293.907937 
L 724.128099 293.907937 
L 714.520661 293.907937 
z
" style="fill:#ff0000;fill-opacity:0.75;stroke:#000000;stroke-linejoin:miter;stroke-width:0.960744;"/>
   </g>
   <g id="patch_207">
    <path clip-path="url(#p05dbfab4b5)" d="M 724.128099 257.47619 
L 733.735537 257.47619 
L 733.735537 257.47619 
L 724.128099 257.47619 
z
" style="fill:#ff0000;fill-opacity:0.75;stroke:#000000;stroke-linejoin:miter;stroke-width:0.960744;"/>
   </g>
   <g id="patch_208">
    <path clip-path="url(#p05dbfab4b5)" d="M 733.735537 278.568254 
L 743.342975 278.568254 
L 743.342975 278.568254 
L 733.735537 278.568254 
z
" style="fill:#ff0000;fill-opacity:0.75;stroke:#000000;stroke-linejoin:miter;stroke-width:0.960744;"/>
   </g>
   <g id="patch_209">
    <path clip-path="url(#p05dbfab4b5)" d="M 743.342975 299.660317 
L 752.950413 299.660317 
L 752.950413 299.660317 
L 743.342975 299.660317 
z
" style="fill:#ff0000;fill-opacity:0.75;stroke:#000000;stroke-linejoin:miter;stroke-width:0.960744;"/>
   </g>
   <g id="patch_210">
    <path clip-path="url(#p05dbfab4b5)" d="M 752.950413 303.495238 
L 762.557851 303.495238 
L 762.557851 303.495238 
L 752.950413 303.495238 
z
" style="fill:#ff0000;fill-opacity:0.75;stroke:#000000;stroke-linejoin:miter;stroke-width:0.960744;"/>
   </g>
   <g id="patch_211">
    <path clip-path="url(#p05dbfab4b5)" d="M 762.557851 288.155556 
L 772.165289 288.155556 
L 772.165289 288.155556 
L 762.557851 288.155556 
z
" style="fill:#ff0000;fill-opacity:0.75;stroke:#000000;stroke-linejoin:miter;stroke-width:0.960744;"/>
   </g>
   <g id="patch_212">
    <path clip-path="url(#p05dbfab4b5)" d="M 772.165289 311.165079 
L 781.772727 311.165079 
L 781.772727 311.165079 
L 772.165289 311.165079 
z
" style="fill:#ff0000;fill-opacity:0.75;stroke:#000000;stroke-linejoin:miter;stroke-width:0.960744;"/>
   </g>
   <g id="patch_213">
    <path clip-path="url(#p05dbfab4b5)" d="M 781.772727 286.238095 
L 791.380165 286.238095 
L 791.380165 286.238095 
L 781.772727 286.238095 
z
" style="fill:#ff0000;fill-opacity:0.75;stroke:#000000;stroke-linejoin:miter;stroke-width:0.960744;"/>
   </g>
   <g id="patch_214">
    <path clip-path="url(#p05dbfab4b5)" d="M 791.380165 309.247619 
L 800.987603 309.247619 
L 800.987603 309.247619 
L 791.380165 309.247619 
z
" style="fill:#ff0000;fill-opacity:0.75;stroke:#000000;stroke-linejoin:miter;stroke-width:0.960744;"/>
   </g>
   <g id="patch_215">
    <path clip-path="url(#p05dbfab4b5)" d="M 800.987603 311.165079 
L 810.595041 311.165079 
L 810.595041 311.165079 
L 800.987603 311.165079 
z
" style="fill:#ff0000;fill-opacity:0.75;stroke:#000000;stroke-linejoin:miter;stroke-width:0.960744;"/>
   </g>
   <g id="patch_216">
    <path clip-path="url(#p05dbfab4b5)" d="M 810.595041 313.08254 
L 820.202479 313.08254 
L 820.202479 313.08254 
L 810.595041 313.08254 
z
" style="fill:#ff0000;fill-opacity:0.75;stroke:#000000;stroke-linejoin:miter;stroke-width:0.960744;"/>
   </g>
   <g id="patch_217">
    <path clip-path="url(#p05dbfab4b5)" d="M 820.202479 313.08254 
L 829.809917 313.08254 
L 829.809917 313.08254 
L 820.202479 313.08254 
z
" style="fill:#ff0000;fill-opacity:0.75;stroke:#000000;stroke-linejoin:miter;stroke-width:0.960744;"/>
   </g>
   <g id="patch_218">
    <path clip-path="url(#p05dbfab4b5)" d="M 829.809917 315 
L 839.417355 315 
L 839.417355 315 
L 829.809917 315 
z
" style="fill:#ff0000;fill-opacity:0.75;stroke:#000000;stroke-linejoin:miter;stroke-width:0.960744;"/>
   </g>
   <g id="patch_219">
    <path clip-path="url(#p05dbfab4b5)" d="M 839.417355 311.165079 
L 849.024793 311.165079 
L 849.024793 311.165079 
L 839.417355 311.165079 
z
" style="fill:#ff0000;fill-opacity:0.75;stroke:#000000;stroke-linejoin:miter;stroke-width:0.960744;"/>
   </g>
   <g id="patch_220">
    <path clip-path="url(#p05dbfab4b5)" d="M 849.024793 315 
L 858.632231 315 
L 858.632231 315 
L 849.024793 315 
z
" style="fill:#ff0000;fill-opacity:0.75;stroke:#000000;stroke-linejoin:miter;stroke-width:0.960744;"/>
   </g>
   <g id="patch_221">
    <path clip-path="url(#p05dbfab4b5)" d="M 858.632231 315 
L 868.239669 315 
L 868.239669 315 
L 858.632231 315 
z
" style="fill:#ff0000;fill-opacity:0.75;stroke:#000000;stroke-linejoin:miter;stroke-width:0.960744;"/>
   </g>
   <g id="patch_222">
    <path clip-path="url(#p05dbfab4b5)" d="M 868.239669 315 
L 877.847107 315 
L 877.847107 315 
L 868.239669 315 
z
" style="fill:#ff0000;fill-opacity:0.75;stroke:#000000;stroke-linejoin:miter;stroke-width:0.960744;"/>
   </g>
   <g id="patch_223">
    <path clip-path="url(#p05dbfab4b5)" d="M 877.847107 315 
L 887.454545 315 
L 887.454545 315 
L 877.847107 315 
z
" style="fill:#ff0000;fill-opacity:0.75;stroke:#000000;stroke-linejoin:miter;stroke-width:0.960744;"/>
   </g>
   <g id="patch_224">
    <path clip-path="url(#p05dbfab4b5)" d="M 887.454545 315 
L 897.061983 315 
L 897.061983 315 
L 887.454545 315 
z
" style="fill:#ff0000;fill-opacity:0.75;stroke:#000000;stroke-linejoin:miter;stroke-width:0.960744;"/>
   </g>
   <g id="patch_225">
    <path clip-path="url(#p05dbfab4b5)" d="M 897.061983 313.08254 
L 906.669421 313.08254 
L 906.669421 313.08254 
L 897.061983 313.08254 
z
" style="fill:#ff0000;fill-opacity:0.75;stroke:#000000;stroke-linejoin:miter;stroke-width:0.960744;"/>
   </g>
   <g id="patch_226">
    <path clip-path="url(#p05dbfab4b5)" d="M 906.669421 315 
L 916.27686 315 
L 916.27686 315 
L 906.669421 315 
z
" style="fill:#ff0000;fill-opacity:0.75;stroke:#000000;stroke-linejoin:miter;stroke-width:0.960744;"/>
   </g>
   <g id="patch_227">
    <path clip-path="url(#p05dbfab4b5)" d="M 916.27686 315 
L 925.884298 315 
L 925.884298 315 
L 916.27686 315 
z
" style="fill:#ff0000;fill-opacity:0.75;stroke:#000000;stroke-linejoin:miter;stroke-width:0.960744;"/>
   </g>
   <g id="patch_228">
    <path clip-path="url(#p05dbfab4b5)" d="M 925.884298 315 
L 935.491736 315 
L 935.491736 315 
L 925.884298 315 
z
" style="fill:#ff0000;fill-opacity:0.75;stroke:#000000;stroke-linejoin:miter;stroke-width:0.960744;"/>
   </g>
   <g id="patch_229">
    <path clip-path="url(#p05dbfab4b5)" d="M 935.491736 315 
L 945.099174 315 
L 945.099174 315 
L 935.491736 315 
z
" style="fill:#ff0000;fill-opacity:0.75;stroke:#000000;stroke-linejoin:miter;stroke-width:0.960744;"/>
   </g>
   <g id="patch_230">
    <path clip-path="url(#p05dbfab4b5)" d="M 945.099174 311.165079 
L 954.706612 311.165079 
L 954.706612 311.165079 
L 945.099174 311.165079 
z
" style="fill:#ff0000;fill-opacity:0.75;stroke:#000000;stroke-linejoin:miter;stroke-width:0.960744;"/>
   </g>
   <g id="matplotlib.axis_3">
    <g id="xtick_8">
     <g id="line2d_15">
      <g>
       <use style="stroke:#000000;stroke-width:0.8;" x="608.838843" xlink:href="#m2466876281" y="315"/>
      </g>
     </g>
     <g id="text_21">
      <!-- 0 -->
      <g transform="translate(605.657593 329.598437)scale(0.1 -0.1)">
       <use xlink:href="#DejaVuSans-48"/>
      </g>
     </g>
    </g>
    <g id="xtick_9">
     <g id="line2d_16">
      <g>
       <use style="stroke:#000000;stroke-width:0.8;" x="666.483471" xlink:href="#m2466876281" y="315"/>
      </g>
     </g>
     <g id="text_22">
      <!-- 1 -->
      <g transform="translate(663.302221 329.598437)scale(0.1 -0.1)">
       <use xlink:href="#DejaVuSans-49"/>
      </g>
     </g>
    </g>
    <g id="xtick_10">
     <g id="line2d_17">
      <g>
       <use style="stroke:#000000;stroke-width:0.8;" x="724.128099" xlink:href="#m2466876281" y="315"/>
      </g>
     </g>
     <g id="text_23">
      <!-- 2 -->
      <g transform="translate(720.946849 329.598437)scale(0.1 -0.1)">
       <use xlink:href="#DejaVuSans-50"/>
      </g>
     </g>
    </g>
    <g id="xtick_11">
     <g id="line2d_18">
      <g>
       <use style="stroke:#000000;stroke-width:0.8;" x="781.772727" xlink:href="#m2466876281" y="315"/>
      </g>
     </g>
     <g id="text_24">
      <!-- 3 -->
      <g transform="translate(778.591477 329.598437)scale(0.1 -0.1)">
       <use xlink:href="#DejaVuSans-51"/>
      </g>
     </g>
    </g>
    <g id="xtick_12">
     <g id="line2d_19">
      <g>
       <use style="stroke:#000000;stroke-width:0.8;" x="839.417355" xlink:href="#m2466876281" y="315"/>
      </g>
     </g>
     <g id="text_25">
      <!-- 4 -->
      <g transform="translate(836.236105 329.598437)scale(0.1 -0.1)">
       <use xlink:href="#DejaVuSans-52"/>
      </g>
     </g>
    </g>
    <g id="xtick_13">
     <g id="line2d_20">
      <g>
       <use style="stroke:#000000;stroke-width:0.8;" x="897.061983" xlink:href="#m2466876281" y="315"/>
      </g>
     </g>
     <g id="text_26">
      <!-- 5 -->
      <g transform="translate(893.880733 329.598437)scale(0.1 -0.1)">
       <use xlink:href="#DejaVuSans-53"/>
      </g>
     </g>
    </g>
    <g id="xtick_14">
     <g id="line2d_21">
      <g>
       <use style="stroke:#000000;stroke-width:0.8;" x="954.706612" xlink:href="#m2466876281" y="315"/>
      </g>
     </g>
     <g id="text_27">
      <!-- 6 -->
      <g transform="translate(951.525362 329.598437)scale(0.1 -0.1)">
       <use xlink:href="#DejaVuSans-54"/>
      </g>
     </g>
    </g>
    <g id="text_28">
     <!-- articles_per_sentence -->
     <g transform="translate(727.296946 343.276563)scale(0.1 -0.1)">
      <defs>
       <path d="M 9.421875 54.6875 
L 18.40625 54.6875 
L 18.40625 0 
L 9.421875 0 
z
M 9.421875 75.984375 
L 18.40625 75.984375 
L 18.40625 64.59375 
L 9.421875 64.59375 
z
" id="DejaVuSans-105"/>
      </defs>
      <use xlink:href="#DejaVuSans-97"/>
      <use x="61.279297" xlink:href="#DejaVuSans-114"/>
      <use x="102.392578" xlink:href="#DejaVuSans-116"/>
      <use x="141.601562" xlink:href="#DejaVuSans-105"/>
      <use x="169.384766" xlink:href="#DejaVuSans-99"/>
      <use x="224.365234" xlink:href="#DejaVuSans-108"/>
      <use x="252.148438" xlink:href="#DejaVuSans-101"/>
      <use x="313.671875" xlink:href="#DejaVuSans-115"/>
      <use x="365.771484" xlink:href="#DejaVuSans-95"/>
      <use x="415.771484" xlink:href="#DejaVuSans-112"/>
      <use x="479.248047" xlink:href="#DejaVuSans-101"/>
      <use x="540.771484" xlink:href="#DejaVuSans-114"/>
      <use x="581.884766" xlink:href="#DejaVuSans-95"/>
      <use x="631.884766" xlink:href="#DejaVuSans-115"/>
      <use x="683.984375" xlink:href="#DejaVuSans-101"/>
      <use x="745.507812" xlink:href="#DejaVuSans-110"/>
      <use x="808.886719" xlink:href="#DejaVuSans-116"/>
      <use x="848.095703" xlink:href="#DejaVuSans-101"/>
      <use x="909.619141" xlink:href="#DejaVuSans-110"/>
      <use x="972.998047" xlink:href="#DejaVuSans-99"/>
      <use x="1027.978516" xlink:href="#DejaVuSans-101"/>
     </g>
    </g>
   </g>
   <g id="matplotlib.axis_4">
    <g id="ytick_8">
     <g id="line2d_22">
      <g>
       <use style="stroke:#000000;stroke-width:0.8;" x="591.545455" xlink:href="#m2cec3b1e88" y="315"/>
      </g>
     </g>
     <g id="text_29">
      <!-- 0 -->
      <g transform="translate(578.182955 318.799219)scale(0.1 -0.1)">
       <use xlink:href="#DejaVuSans-48"/>
      </g>
     </g>
    </g>
    <g id="ytick_9">
     <g id="line2d_23">
      <g>
       <use style="stroke:#000000;stroke-width:0.8;" x="591.545455" xlink:href="#m2cec3b1e88" y="276.650794"/>
      </g>
     </g>
     <g id="text_30">
      <!-- 20 -->
      <g transform="translate(571.820455 280.450012)scale(0.1 -0.1)">
       <use xlink:href="#DejaVuSans-50"/>
       <use x="63.623047" xlink:href="#DejaVuSans-48"/>
      </g>
     </g>
    </g>
    <g id="ytick_10">
     <g id="line2d_24">
      <g>
       <use style="stroke:#000000;stroke-width:0.8;" x="591.545455" xlink:href="#m2cec3b1e88" y="238.301587"/>
      </g>
     </g>
     <g id="text_31">
      <!-- 40 -->
      <g transform="translate(571.820455 242.100806)scale(0.1 -0.1)">
       <use xlink:href="#DejaVuSans-52"/>
       <use x="63.623047" xlink:href="#DejaVuSans-48"/>
      </g>
     </g>
    </g>
    <g id="ytick_11">
     <g id="line2d_25">
      <g>
       <use style="stroke:#000000;stroke-width:0.8;" x="591.545455" xlink:href="#m2cec3b1e88" y="199.952381"/>
      </g>
     </g>
     <g id="text_32">
      <!-- 60 -->
      <g transform="translate(571.820455 203.7516)scale(0.1 -0.1)">
       <use xlink:href="#DejaVuSans-54"/>
       <use x="63.623047" xlink:href="#DejaVuSans-48"/>
      </g>
     </g>
    </g>
    <g id="ytick_12">
     <g id="line2d_26">
      <g>
       <use style="stroke:#000000;stroke-width:0.8;" x="591.545455" xlink:href="#m2cec3b1e88" y="161.603175"/>
      </g>
     </g>
     <g id="text_33">
      <!-- 80 -->
      <g transform="translate(571.820455 165.402393)scale(0.1 -0.1)">
       <use xlink:href="#DejaVuSans-56"/>
       <use x="63.623047" xlink:href="#DejaVuSans-48"/>
      </g>
     </g>
    </g>
    <g id="ytick_13">
     <g id="line2d_27">
      <g>
       <use style="stroke:#000000;stroke-width:0.8;" x="591.545455" xlink:href="#m2cec3b1e88" y="123.253968"/>
      </g>
     </g>
     <g id="text_34">
      <!-- 100 -->
      <g transform="translate(565.457955 127.053187)scale(0.1 -0.1)">
       <use xlink:href="#DejaVuSans-49"/>
       <use x="63.623047" xlink:href="#DejaVuSans-48"/>
       <use x="127.246094" xlink:href="#DejaVuSans-48"/>
      </g>
     </g>
    </g>
    <g id="ytick_14">
     <g id="line2d_28">
      <g>
       <use style="stroke:#000000;stroke-width:0.8;" x="591.545455" xlink:href="#m2cec3b1e88" y="84.904762"/>
      </g>
     </g>
     <g id="text_35">
      <!-- 120 -->
      <g transform="translate(565.457955 88.703981)scale(0.1 -0.1)">
       <use xlink:href="#DejaVuSans-49"/>
       <use x="63.623047" xlink:href="#DejaVuSans-50"/>
       <use x="127.246094" xlink:href="#DejaVuSans-48"/>
      </g>
     </g>
    </g>
    <g id="ytick_15">
     <g id="line2d_29">
      <g>
       <use style="stroke:#000000;stroke-width:0.8;" x="591.545455" xlink:href="#m2cec3b1e88" y="46.555556"/>
      </g>
     </g>
     <g id="text_36">
      <!-- 140 -->
      <g transform="translate(565.457955 50.354774)scale(0.1 -0.1)">
       <use xlink:href="#DejaVuSans-49"/>
       <use x="63.623047" xlink:href="#DejaVuSans-52"/>
       <use x="127.246094" xlink:href="#DejaVuSans-48"/>
      </g>
     </g>
    </g>
    <g id="text_37">
     <!-- Count -->
     <g transform="translate(559.378267 193.948437)rotate(-90)scale(0.1 -0.1)">
      <use xlink:href="#DejaVuSans-67"/>
      <use x="69.824219" xlink:href="#DejaVuSans-111"/>
      <use x="131.005859" xlink:href="#DejaVuSans-117"/>
      <use x="194.384766" xlink:href="#DejaVuSans-110"/>
      <use x="257.763672" xlink:href="#DejaVuSans-116"/>
     </g>
    </g>
   </g>
   <g id="patch_231">
    <path d="M 591.545455 315 
L 591.545455 43.2 
" style="fill:none;stroke:#000000;stroke-linecap:square;stroke-linejoin:miter;stroke-width:0.8;"/>
   </g>
   <g id="patch_232">
    <path d="M 972 315 
L 972 43.2 
" style="fill:none;stroke:#000000;stroke-linecap:square;stroke-linejoin:miter;stroke-width:0.8;"/>
   </g>
   <g id="patch_233">
    <path d="M 591.545455 315 
L 972 315 
" style="fill:none;stroke:#000000;stroke-linecap:square;stroke-linejoin:miter;stroke-width:0.8;"/>
   </g>
   <g id="patch_234">
    <path d="M 591.545455 43.2 
L 972 43.2 
" style="fill:none;stroke:#000000;stroke-linecap:square;stroke-linejoin:miter;stroke-width:0.8;"/>
   </g>
   <g id="legend_2">
    <g id="patch_235">
     <path d="M 917.096875 109.9125 
L 965 109.9125 
Q 967 109.9125 967 107.9125 
L 967 50.2 
Q 967 48.2 965 48.2 
L 917.096875 48.2 
Q 915.096875 48.2 915.096875 50.2 
L 915.096875 107.9125 
Q 915.096875 109.9125 917.096875 109.9125 
z
" style="fill:#ffffff;opacity:0.8;stroke:#cccccc;stroke-linejoin:miter;"/>
    </g>
    <g id="text_38">
     <!-- #label -->
     <g transform="translate(924.765625 59.798437)scale(0.1 -0.1)">
      <use xlink:href="#DejaVuSans-35"/>
      <use x="83.789062" xlink:href="#DejaVuSans-108"/>
      <use x="111.572266" xlink:href="#DejaVuSans-97"/>
      <use x="172.851562" xlink:href="#DejaVuSans-98"/>
      <use x="236.328125" xlink:href="#DejaVuSans-101"/>
      <use x="297.851562" xlink:href="#DejaVuSans-108"/>
     </g>
    </g>
    <g id="patch_236">
     <path d="M 919.096875 74.476562 
L 939.096875 74.476562 
L 939.096875 67.476562 
L 919.096875 67.476562 
z
" style="fill:#ff0000;fill-opacity:0.75;stroke:#000000;stroke-linejoin:miter;"/>
    </g>
    <g id="text_39">
     <!-- 0.0 -->
     <g transform="translate(947.096875 74.476562)scale(0.1 -0.1)">
      <use xlink:href="#DejaVuSans-48"/>
      <use x="63.623047" xlink:href="#DejaVuSans-46"/>
      <use x="95.410156" xlink:href="#DejaVuSans-48"/>
     </g>
    </g>
    <g id="patch_237">
     <path d="M 919.096875 89.154688 
L 939.096875 89.154688 
L 939.096875 82.154688 
L 919.096875 82.154688 
z
" style="fill:#0000ff;fill-opacity:0.75;stroke:#000000;stroke-linejoin:miter;"/>
    </g>
    <g id="text_40">
     <!-- 0.5 -->
     <g transform="translate(947.096875 89.154688)scale(0.1 -0.1)">
      <use xlink:href="#DejaVuSans-48"/>
      <use x="63.623047" xlink:href="#DejaVuSans-46"/>
      <use x="95.410156" xlink:href="#DejaVuSans-53"/>
     </g>
    </g>
    <g id="patch_238">
     <path d="M 919.096875 103.832812 
L 939.096875 103.832812 
L 939.096875 96.832812 
L 919.096875 96.832812 
z
" style="fill:#ffff00;fill-opacity:0.75;stroke:#000000;stroke-linejoin:miter;"/>
    </g>
    <g id="text_41">
     <!-- 1.0 -->
     <g transform="translate(947.096875 103.832812)scale(0.1 -0.1)">
      <use xlink:href="#DejaVuSans-49"/>
      <use x="63.623047" xlink:href="#DejaVuSans-46"/>
      <use x="95.410156" xlink:href="#DejaVuSans-48"/>
     </g>
    </g>
   </g>
  </g>
 </g>
 <defs>
  <clipPath id="p780a85cf9a">
   <rect height="271.8" width="380.454545" x="135" y="43.2"/>
  </clipPath>
  <clipPath id="p05dbfab4b5">
   <rect height="271.8" width="380.454545" x="591.545455" y="43.2"/>
  </clipPath>
 </defs>
</svg>
