<?xml version="1.0" encoding="utf-8" standalone="no"?>
<!DOCTYPE svg PUBLIC "-//W3C//DTD SVG 1.1//EN"
  "http://www.w3.org/Graphics/SVG/1.1/DTD/svg11.dtd">
<!-- Created with matplotlib (https://matplotlib.org/) -->
<svg height="360pt" version="1.1" viewBox="0 0 1080 360" width="1080pt" xmlns="http://www.w3.org/2000/svg" xmlns:xlink="http://www.w3.org/1999/xlink">
 <metadata>
  <rdf:RDF xmlns:cc="http://creativecommons.org/ns#" xmlns:dc="http://purl.org/dc/elements/1.1/" xmlns:rdf="http://www.w3.org/1999/02/22-rdf-syntax-ns#">
   <cc:Work>
    <dc:type rdf:resource="http://purl.org/dc/dcmitype/StillImage"/>
    <dc:date>2023-06-14T11:56:19.676648</dc:date>
    <dc:format>image/svg+xml</dc:format>
    <dc:creator>
     <cc:Agent>
      <dc:title>Matplotlib v3.3.3, https://matplotlib.org/</dc:title>
     </cc:Agent>
    </dc:creator>
   </cc:Work>
  </rdf:RDF>
 </metadata>
 <defs>
  <style type="text/css">*{stroke-linecap:butt;stroke-linejoin:round;}</style>
 </defs>
 <g id="figure_1">
  <g id="patch_1">
   <path d="M 0 360 
L 1080 360 
L 1080 0 
L 0 0 
z
" style="fill:none;"/>
  </g>
  <g id="axes_1">
   <g id="patch_2">
    <path d="M 135 315 
L 515.454545 315 
L 515.454545 43.2 
L 135 43.2 
z
" style="fill:#ffffff;"/>
   </g>
   <g id="patch_3">
    <path clip-path="url(#p14369bf7d9)" d="M 152.293388 315 
L 165.595995 315 
L 165.595995 315 
L 152.293388 315 
z
" style="fill:#ffff00;fill-opacity:0.75;stroke:#000000;stroke-linejoin:miter;"/>
   </g>
   <g id="patch_4">
    <path clip-path="url(#p14369bf7d9)" d="M 165.595995 315 
L 178.898601 315 
L 178.898601 315 
L 165.595995 315 
z
" style="fill:#ffff00;fill-opacity:0.75;stroke:#000000;stroke-linejoin:miter;"/>
   </g>
   <g id="patch_5">
    <path clip-path="url(#p14369bf7d9)" d="M 178.898601 315 
L 192.201208 315 
L 192.201208 315 
L 178.898601 315 
z
" style="fill:#ffff00;fill-opacity:0.75;stroke:#000000;stroke-linejoin:miter;"/>
   </g>
   <g id="patch_6">
    <path clip-path="url(#p14369bf7d9)" d="M 192.201208 315 
L 205.503814 315 
L 205.503814 315 
L 192.201208 315 
z
" style="fill:#ffff00;fill-opacity:0.75;stroke:#000000;stroke-linejoin:miter;"/>
   </g>
   <g id="patch_7">
    <path clip-path="url(#p14369bf7d9)" d="M 205.503814 315 
L 218.806421 315 
L 218.806421 312.603175 
L 205.503814 312.603175 
z
" style="fill:#ffff00;fill-opacity:0.75;stroke:#000000;stroke-linejoin:miter;"/>
   </g>
   <g id="patch_8">
    <path clip-path="url(#p14369bf7d9)" d="M 218.806421 315 
L 232.109027 315 
L 232.109027 298.222222 
L 218.806421 298.222222 
z
" style="fill:#ffff00;fill-opacity:0.75;stroke:#000000;stroke-linejoin:miter;"/>
   </g>
   <g id="patch_9">
    <path clip-path="url(#p14369bf7d9)" d="M 232.109027 315 
L 245.411634 315 
L 245.411634 271.857143 
L 232.109027 271.857143 
z
" style="fill:#ffff00;fill-opacity:0.75;stroke:#000000;stroke-linejoin:miter;"/>
   </g>
   <g id="patch_10">
    <path clip-path="url(#p14369bf7d9)" d="M 245.411634 315 
L 258.71424 315 
L 258.71424 279.047619 
L 245.411634 279.047619 
z
" style="fill:#ffff00;fill-opacity:0.75;stroke:#000000;stroke-linejoin:miter;"/>
   </g>
   <g id="patch_11">
    <path clip-path="url(#p14369bf7d9)" d="M 258.71424 315 
L 272.016847 315 
L 272.016847 247.888889 
L 258.71424 247.888889 
z
" style="fill:#ffff00;fill-opacity:0.75;stroke:#000000;stroke-linejoin:miter;"/>
   </g>
   <g id="patch_12">
    <path clip-path="url(#p14369bf7d9)" d="M 272.016847 315 
L 285.319453 315 
L 285.319453 243.095238 
L 272.016847 243.095238 
z
" style="fill:#ffff00;fill-opacity:0.75;stroke:#000000;stroke-linejoin:miter;"/>
   </g>
   <g id="patch_13">
    <path clip-path="url(#p14369bf7d9)" d="M 285.319453 315 
L 298.62206 315 
L 298.62206 250.285714 
L 285.319453 250.285714 
z
" style="fill:#ffff00;fill-opacity:0.75;stroke:#000000;stroke-linejoin:miter;"/>
   </g>
   <g id="patch_14">
    <path clip-path="url(#p14369bf7d9)" d="M 298.62206 315 
L 311.924666 315 
L 311.924666 240.698413 
L 298.62206 240.698413 
z
" style="fill:#ffff00;fill-opacity:0.75;stroke:#000000;stroke-linejoin:miter;"/>
   </g>
   <g id="patch_15">
    <path clip-path="url(#p14369bf7d9)" d="M 311.924666 315 
L 325.227273 315 
L 325.227273 257.47619 
L 311.924666 257.47619 
z
" style="fill:#ffff00;fill-opacity:0.75;stroke:#000000;stroke-linejoin:miter;"/>
   </g>
   <g id="patch_16">
    <path clip-path="url(#p14369bf7d9)" d="M 325.227273 315 
L 338.529879 315 
L 338.529879 243.095238 
L 325.227273 243.095238 
z
" style="fill:#ffff00;fill-opacity:0.75;stroke:#000000;stroke-linejoin:miter;"/>
   </g>
   <g id="patch_17">
    <path clip-path="url(#p14369bf7d9)" d="M 338.529879 315 
L 351.832486 315 
L 351.832486 267.063492 
L 338.529879 267.063492 
z
" style="fill:#ffff00;fill-opacity:0.75;stroke:#000000;stroke-linejoin:miter;"/>
   </g>
   <g id="patch_18">
    <path clip-path="url(#p14369bf7d9)" d="M 351.832486 315 
L 365.135092 315 
L 365.135092 279.047619 
L 351.832486 279.047619 
z
" style="fill:#ffff00;fill-opacity:0.75;stroke:#000000;stroke-linejoin:miter;"/>
   </g>
   <g id="patch_19">
    <path clip-path="url(#p14369bf7d9)" d="M 365.135092 315 
L 378.437699 315 
L 378.437699 288.634921 
L 365.135092 288.634921 
z
" style="fill:#ffff00;fill-opacity:0.75;stroke:#000000;stroke-linejoin:miter;"/>
   </g>
   <g id="patch_20">
    <path clip-path="url(#p14369bf7d9)" d="M 378.437699 315 
L 391.740305 315 
L 391.740305 276.650794 
L 378.437699 276.650794 
z
" style="fill:#ffff00;fill-opacity:0.75;stroke:#000000;stroke-linejoin:miter;"/>
   </g>
   <g id="patch_21">
    <path clip-path="url(#p14369bf7d9)" d="M 391.740305 315 
L 405.042912 315 
L 405.042912 303.015873 
L 391.740305 303.015873 
z
" style="fill:#ffff00;fill-opacity:0.75;stroke:#000000;stroke-linejoin:miter;"/>
   </g>
   <g id="patch_22">
    <path clip-path="url(#p14369bf7d9)" d="M 405.042912 315 
L 418.345518 315 
L 418.345518 293.428571 
L 405.042912 293.428571 
z
" style="fill:#ffff00;fill-opacity:0.75;stroke:#000000;stroke-linejoin:miter;"/>
   </g>
   <g id="patch_23">
    <path clip-path="url(#p14369bf7d9)" d="M 418.345518 315 
L 431.648125 315 
L 431.648125 310.206349 
L 418.345518 310.206349 
z
" style="fill:#ffff00;fill-opacity:0.75;stroke:#000000;stroke-linejoin:miter;"/>
   </g>
   <g id="patch_24">
    <path clip-path="url(#p14369bf7d9)" d="M 431.648125 315 
L 444.950731 315 
L 444.950731 307.809524 
L 431.648125 307.809524 
z
" style="fill:#ffff00;fill-opacity:0.75;stroke:#000000;stroke-linejoin:miter;"/>
   </g>
   <g id="patch_25">
    <path clip-path="url(#p14369bf7d9)" d="M 444.950731 315 
L 458.253338 315 
L 458.253338 312.603175 
L 444.950731 312.603175 
z
" style="fill:#ffff00;fill-opacity:0.75;stroke:#000000;stroke-linejoin:miter;"/>
   </g>
   <g id="patch_26">
    <path clip-path="url(#p14369bf7d9)" d="M 458.253338 315 
L 471.555944 315 
L 471.555944 312.603175 
L 458.253338 312.603175 
z
" style="fill:#ffff00;fill-opacity:0.75;stroke:#000000;stroke-linejoin:miter;"/>
   </g>
   <g id="patch_27">
    <path clip-path="url(#p14369bf7d9)" d="M 471.555944 315 
L 484.858551 315 
L 484.858551 315 
L 471.555944 315 
z
" style="fill:#ffff00;fill-opacity:0.75;stroke:#000000;stroke-linejoin:miter;"/>
   </g>
   <g id="patch_28">
    <path clip-path="url(#p14369bf7d9)" d="M 484.858551 315 
L 498.161157 315 
L 498.161157 312.603175 
L 484.858551 312.603175 
z
" style="fill:#ffff00;fill-opacity:0.75;stroke:#000000;stroke-linejoin:miter;"/>
   </g>
   <g id="patch_29">
    <path clip-path="url(#p14369bf7d9)" d="M 152.293388 315 
L 165.595995 315 
L 165.595995 300.619048 
L 152.293388 300.619048 
z
" style="fill:#0000ff;fill-opacity:0.75;stroke:#000000;stroke-linejoin:miter;"/>
   </g>
   <g id="patch_30">
    <path clip-path="url(#p14369bf7d9)" d="M 165.595995 315 
L 178.898601 315 
L 178.898601 307.809524 
L 165.595995 307.809524 
z
" style="fill:#0000ff;fill-opacity:0.75;stroke:#000000;stroke-linejoin:miter;"/>
   </g>
   <g id="patch_31">
    <path clip-path="url(#p14369bf7d9)" d="M 178.898601 315 
L 192.201208 315 
L 192.201208 279.047619 
L 178.898601 279.047619 
z
" style="fill:#0000ff;fill-opacity:0.75;stroke:#000000;stroke-linejoin:miter;"/>
   </g>
   <g id="patch_32">
    <path clip-path="url(#p14369bf7d9)" d="M 192.201208 315 
L 205.503814 315 
L 205.503814 233.507937 
L 192.201208 233.507937 
z
" style="fill:#0000ff;fill-opacity:0.75;stroke:#000000;stroke-linejoin:miter;"/>
   </g>
   <g id="patch_33">
    <path clip-path="url(#p14369bf7d9)" d="M 205.503814 312.603175 
L 218.806421 312.603175 
L 218.806421 226.31746 
L 205.503814 226.31746 
z
" style="fill:#0000ff;fill-opacity:0.75;stroke:#000000;stroke-linejoin:miter;"/>
   </g>
   <g id="patch_34">
    <path clip-path="url(#p14369bf7d9)" d="M 218.806421 298.222222 
L 232.109027 298.222222 
L 232.109027 161.603175 
L 218.806421 161.603175 
z
" style="fill:#0000ff;fill-opacity:0.75;stroke:#000000;stroke-linejoin:miter;"/>
   </g>
   <g id="patch_35">
    <path clip-path="url(#p14369bf7d9)" d="M 232.109027 271.857143 
L 245.411634 271.857143 
L 245.411634 149.619048 
L 232.109027 149.619048 
z
" style="fill:#0000ff;fill-opacity:0.75;stroke:#000000;stroke-linejoin:miter;"/>
   </g>
   <g id="patch_36">
    <path clip-path="url(#p14369bf7d9)" d="M 245.411634 279.047619 
L 258.71424 279.047619 
L 258.71424 180.777778 
L 245.411634 180.777778 
z
" style="fill:#0000ff;fill-opacity:0.75;stroke:#000000;stroke-linejoin:miter;"/>
   </g>
   <g id="patch_37">
    <path clip-path="url(#p14369bf7d9)" d="M 258.71424 247.888889 
L 272.016847 247.888889 
L 272.016847 185.571429 
L 258.71424 185.571429 
z
" style="fill:#0000ff;fill-opacity:0.75;stroke:#000000;stroke-linejoin:miter;"/>
   </g>
   <g id="patch_38">
    <path clip-path="url(#p14369bf7d9)" d="M 272.016847 243.095238 
L 285.319453 243.095238 
L 285.319453 202.349206 
L 272.016847 202.349206 
z
" style="fill:#0000ff;fill-opacity:0.75;stroke:#000000;stroke-linejoin:miter;"/>
   </g>
   <g id="patch_39">
    <path clip-path="url(#p14369bf7d9)" d="M 285.319453 250.285714 
L 298.62206 250.285714 
L 298.62206 240.698413 
L 285.319453 240.698413 
z
" style="fill:#0000ff;fill-opacity:0.75;stroke:#000000;stroke-linejoin:miter;"/>
   </g>
   <g id="patch_40">
    <path clip-path="url(#p14369bf7d9)" d="M 298.62206 240.698413 
L 311.924666 240.698413 
L 311.924666 228.714286 
L 298.62206 228.714286 
z
" style="fill:#0000ff;fill-opacity:0.75;stroke:#000000;stroke-linejoin:miter;"/>
   </g>
   <g id="patch_41">
    <path clip-path="url(#p14369bf7d9)" d="M 311.924666 257.47619 
L 325.227273 257.47619 
L 325.227273 257.47619 
L 311.924666 257.47619 
z
" style="fill:#0000ff;fill-opacity:0.75;stroke:#000000;stroke-linejoin:miter;"/>
   </g>
   <g id="patch_42">
    <path clip-path="url(#p14369bf7d9)" d="M 325.227273 243.095238 
L 338.529879 243.095238 
L 338.529879 243.095238 
L 325.227273 243.095238 
z
" style="fill:#0000ff;fill-opacity:0.75;stroke:#000000;stroke-linejoin:miter;"/>
   </g>
   <g id="patch_43">
    <path clip-path="url(#p14369bf7d9)" d="M 338.529879 267.063492 
L 351.832486 267.063492 
L 351.832486 267.063492 
L 338.529879 267.063492 
z
" style="fill:#0000ff;fill-opacity:0.75;stroke:#000000;stroke-linejoin:miter;"/>
   </g>
   <g id="patch_44">
    <path clip-path="url(#p14369bf7d9)" d="M 351.832486 279.047619 
L 365.135092 279.047619 
L 365.135092 279.047619 
L 351.832486 279.047619 
z
" style="fill:#0000ff;fill-opacity:0.75;stroke:#000000;stroke-linejoin:miter;"/>
   </g>
   <g id="patch_45">
    <path clip-path="url(#p14369bf7d9)" d="M 365.135092 288.634921 
L 378.437699 288.634921 
L 378.437699 288.634921 
L 365.135092 288.634921 
z
" style="fill:#0000ff;fill-opacity:0.75;stroke:#000000;stroke-linejoin:miter;"/>
   </g>
   <g id="patch_46">
    <path clip-path="url(#p14369bf7d9)" d="M 378.437699 276.650794 
L 391.740305 276.650794 
L 391.740305 276.650794 
L 378.437699 276.650794 
z
" style="fill:#0000ff;fill-opacity:0.75;stroke:#000000;stroke-linejoin:miter;"/>
   </g>
   <g id="patch_47">
    <path clip-path="url(#p14369bf7d9)" d="M 391.740305 303.015873 
L 405.042912 303.015873 
L 405.042912 303.015873 
L 391.740305 303.015873 
z
" style="fill:#0000ff;fill-opacity:0.75;stroke:#000000;stroke-linejoin:miter;"/>
   </g>
   <g id="patch_48">
    <path clip-path="url(#p14369bf7d9)" d="M 405.042912 293.428571 
L 418.345518 293.428571 
L 418.345518 293.428571 
L 405.042912 293.428571 
z
" style="fill:#0000ff;fill-opacity:0.75;stroke:#000000;stroke-linejoin:miter;"/>
   </g>
   <g id="patch_49">
    <path clip-path="url(#p14369bf7d9)" d="M 418.345518 310.206349 
L 431.648125 310.206349 
L 431.648125 310.206349 
L 418.345518 310.206349 
z
" style="fill:#0000ff;fill-opacity:0.75;stroke:#000000;stroke-linejoin:miter;"/>
   </g>
   <g id="patch_50">
    <path clip-path="url(#p14369bf7d9)" d="M 431.648125 307.809524 
L 444.950731 307.809524 
L 444.950731 307.809524 
L 431.648125 307.809524 
z
" style="fill:#0000ff;fill-opacity:0.75;stroke:#000000;stroke-linejoin:miter;"/>
   </g>
   <g id="patch_51">
    <path clip-path="url(#p14369bf7d9)" d="M 444.950731 312.603175 
L 458.253338 312.603175 
L 458.253338 312.603175 
L 444.950731 312.603175 
z
" style="fill:#0000ff;fill-opacity:0.75;stroke:#000000;stroke-linejoin:miter;"/>
   </g>
   <g id="patch_52">
    <path clip-path="url(#p14369bf7d9)" d="M 458.253338 312.603175 
L 471.555944 312.603175 
L 471.555944 312.603175 
L 458.253338 312.603175 
z
" style="fill:#0000ff;fill-opacity:0.75;stroke:#000000;stroke-linejoin:miter;"/>
   </g>
   <g id="patch_53">
    <path clip-path="url(#p14369bf7d9)" d="M 471.555944 315 
L 484.858551 315 
L 484.858551 315 
L 471.555944 315 
z
" style="fill:#0000ff;fill-opacity:0.75;stroke:#000000;stroke-linejoin:miter;"/>
   </g>
   <g id="patch_54">
    <path clip-path="url(#p14369bf7d9)" d="M 484.858551 312.603175 
L 498.161157 312.603175 
L 498.161157 312.603175 
L 484.858551 312.603175 
z
" style="fill:#0000ff;fill-opacity:0.75;stroke:#000000;stroke-linejoin:miter;"/>
   </g>
   <g id="patch_55">
    <path clip-path="url(#p14369bf7d9)" d="M 152.293388 300.619048 
L 165.595995 300.619048 
L 165.595995 300.619048 
L 152.293388 300.619048 
z
" style="fill:#ff0000;fill-opacity:0.75;stroke:#000000;stroke-linejoin:miter;"/>
   </g>
   <g id="patch_56">
    <path clip-path="url(#p14369bf7d9)" d="M 165.595995 307.809524 
L 178.898601 307.809524 
L 178.898601 307.809524 
L 165.595995 307.809524 
z
" style="fill:#ff0000;fill-opacity:0.75;stroke:#000000;stroke-linejoin:miter;"/>
   </g>
   <g id="patch_57">
    <path clip-path="url(#p14369bf7d9)" d="M 178.898601 279.047619 
L 192.201208 279.047619 
L 192.201208 279.047619 
L 178.898601 279.047619 
z
" style="fill:#ff0000;fill-opacity:0.75;stroke:#000000;stroke-linejoin:miter;"/>
   </g>
   <g id="patch_58">
    <path clip-path="url(#p14369bf7d9)" d="M 192.201208 233.507937 
L 205.503814 233.507937 
L 205.503814 228.714286 
L 192.201208 228.714286 
z
" style="fill:#ff0000;fill-opacity:0.75;stroke:#000000;stroke-linejoin:miter;"/>
   </g>
   <g id="patch_59">
    <path clip-path="url(#p14369bf7d9)" d="M 205.503814 226.31746 
L 218.806421 226.31746 
L 218.806421 219.126984 
L 205.503814 219.126984 
z
" style="fill:#ff0000;fill-opacity:0.75;stroke:#000000;stroke-linejoin:miter;"/>
   </g>
   <g id="patch_60">
    <path clip-path="url(#p14369bf7d9)" d="M 218.806421 161.603175 
L 232.109027 161.603175 
L 232.109027 135.238095 
L 218.806421 135.238095 
z
" style="fill:#ff0000;fill-opacity:0.75;stroke:#000000;stroke-linejoin:miter;"/>
   </g>
   <g id="patch_61">
    <path clip-path="url(#p14369bf7d9)" d="M 232.109027 149.619048 
L 245.411634 149.619048 
L 245.411634 87.301587 
L 232.109027 87.301587 
z
" style="fill:#ff0000;fill-opacity:0.75;stroke:#000000;stroke-linejoin:miter;"/>
   </g>
   <g id="patch_62">
    <path clip-path="url(#p14369bf7d9)" d="M 245.411634 180.777778 
L 258.71424 180.777778 
L 258.71424 56.142857 
L 245.411634 56.142857 
z
" style="fill:#ff0000;fill-opacity:0.75;stroke:#000000;stroke-linejoin:miter;"/>
   </g>
   <g id="patch_63">
    <path clip-path="url(#p14369bf7d9)" d="M 258.71424 185.571429 
L 272.016847 185.571429 
L 272.016847 87.301587 
L 258.71424 87.301587 
z
" style="fill:#ff0000;fill-opacity:0.75;stroke:#000000;stroke-linejoin:miter;"/>
   </g>
   <g id="patch_64">
    <path clip-path="url(#p14369bf7d9)" d="M 272.016847 202.349206 
L 285.319453 202.349206 
L 285.319453 104.079365 
L 272.016847 104.079365 
z
" style="fill:#ff0000;fill-opacity:0.75;stroke:#000000;stroke-linejoin:miter;"/>
   </g>
   <g id="patch_65">
    <path clip-path="url(#p14369bf7d9)" d="M 285.319453 240.698413 
L 298.62206 240.698413 
L 298.62206 128.047619 
L 285.319453 128.047619 
z
" style="fill:#ff0000;fill-opacity:0.75;stroke:#000000;stroke-linejoin:miter;"/>
   </g>
   <g id="patch_66">
    <path clip-path="url(#p14369bf7d9)" d="M 298.62206 228.714286 
L 311.924666 228.714286 
L 311.924666 152.015873 
L 298.62206 152.015873 
z
" style="fill:#ff0000;fill-opacity:0.75;stroke:#000000;stroke-linejoin:miter;"/>
   </g>
   <g id="patch_67">
    <path clip-path="url(#p14369bf7d9)" d="M 311.924666 257.47619 
L 325.227273 257.47619 
L 325.227273 204.746032 
L 311.924666 204.746032 
z
" style="fill:#ff0000;fill-opacity:0.75;stroke:#000000;stroke-linejoin:miter;"/>
   </g>
   <g id="patch_68">
    <path clip-path="url(#p14369bf7d9)" d="M 325.227273 243.095238 
L 338.529879 243.095238 
L 338.529879 216.730159 
L 325.227273 216.730159 
z
" style="fill:#ff0000;fill-opacity:0.75;stroke:#000000;stroke-linejoin:miter;"/>
   </g>
   <g id="patch_69">
    <path clip-path="url(#p14369bf7d9)" d="M 338.529879 267.063492 
L 351.832486 267.063492 
L 351.832486 257.47619 
L 338.529879 257.47619 
z
" style="fill:#ff0000;fill-opacity:0.75;stroke:#000000;stroke-linejoin:miter;"/>
   </g>
   <g id="patch_70">
    <path clip-path="url(#p14369bf7d9)" d="M 351.832486 279.047619 
L 365.135092 279.047619 
L 365.135092 276.650794 
L 351.832486 276.650794 
z
" style="fill:#ff0000;fill-opacity:0.75;stroke:#000000;stroke-linejoin:miter;"/>
   </g>
   <g id="patch_71">
    <path clip-path="url(#p14369bf7d9)" d="M 365.135092 288.634921 
L 378.437699 288.634921 
L 378.437699 288.634921 
L 365.135092 288.634921 
z
" style="fill:#ff0000;fill-opacity:0.75;stroke:#000000;stroke-linejoin:miter;"/>
   </g>
   <g id="patch_72">
    <path clip-path="url(#p14369bf7d9)" d="M 378.437699 276.650794 
L 391.740305 276.650794 
L 391.740305 274.253968 
L 378.437699 274.253968 
z
" style="fill:#ff0000;fill-opacity:0.75;stroke:#000000;stroke-linejoin:miter;"/>
   </g>
   <g id="patch_73">
    <path clip-path="url(#p14369bf7d9)" d="M 391.740305 303.015873 
L 405.042912 303.015873 
L 405.042912 303.015873 
L 391.740305 303.015873 
z
" style="fill:#ff0000;fill-opacity:0.75;stroke:#000000;stroke-linejoin:miter;"/>
   </g>
   <g id="patch_74">
    <path clip-path="url(#p14369bf7d9)" d="M 405.042912 293.428571 
L 418.345518 293.428571 
L 418.345518 291.031746 
L 405.042912 291.031746 
z
" style="fill:#ff0000;fill-opacity:0.75;stroke:#000000;stroke-linejoin:miter;"/>
   </g>
   <g id="patch_75">
    <path clip-path="url(#p14369bf7d9)" d="M 418.345518 310.206349 
L 431.648125 310.206349 
L 431.648125 310.206349 
L 418.345518 310.206349 
z
" style="fill:#ff0000;fill-opacity:0.75;stroke:#000000;stroke-linejoin:miter;"/>
   </g>
   <g id="patch_76">
    <path clip-path="url(#p14369bf7d9)" d="M 431.648125 307.809524 
L 444.950731 307.809524 
L 444.950731 307.809524 
L 431.648125 307.809524 
z
" style="fill:#ff0000;fill-opacity:0.75;stroke:#000000;stroke-linejoin:miter;"/>
   </g>
   <g id="patch_77">
    <path clip-path="url(#p14369bf7d9)" d="M 444.950731 312.603175 
L 458.253338 312.603175 
L 458.253338 312.603175 
L 444.950731 312.603175 
z
" style="fill:#ff0000;fill-opacity:0.75;stroke:#000000;stroke-linejoin:miter;"/>
   </g>
   <g id="patch_78">
    <path clip-path="url(#p14369bf7d9)" d="M 458.253338 312.603175 
L 471.555944 312.603175 
L 471.555944 312.603175 
L 458.253338 312.603175 
z
" style="fill:#ff0000;fill-opacity:0.75;stroke:#000000;stroke-linejoin:miter;"/>
   </g>
   <g id="patch_79">
    <path clip-path="url(#p14369bf7d9)" d="M 471.555944 315 
L 484.858551 315 
L 484.858551 315 
L 471.555944 315 
z
" style="fill:#ff0000;fill-opacity:0.75;stroke:#000000;stroke-linejoin:miter;"/>
   </g>
   <g id="patch_80">
    <path clip-path="url(#p14369bf7d9)" d="M 484.858551 312.603175 
L 498.161157 312.603175 
L 498.161157 312.603175 
L 484.858551 312.603175 
z
" style="fill:#ff0000;fill-opacity:0.75;stroke:#000000;stroke-linejoin:miter;"/>
   </g>
   <g id="matplotlib.axis_1">
    <g id="xtick_1">
     <g id="line2d_1">
      <defs>
       <path d="M 0 0 
L 0 3.5 
" id="m58d4eea95d" style="stroke:#000000;stroke-width:0.8;"/>
      </defs>
      <g>
       <use style="stroke:#000000;stroke-width:0.8;" x="157.234551" xlink:href="#m58d4eea95d" y="315"/>
      </g>
     </g>
     <g id="text_1">
      <!-- 0.4 -->
      <g transform="translate(149.282989 329.598437)scale(0.1 -0.1)">
       <defs>
        <path d="M 31.78125 66.40625 
Q 24.171875 66.40625 20.328125 58.90625 
Q 16.5 51.421875 16.5 36.375 
Q 16.5 21.390625 20.328125 13.890625 
Q 24.171875 6.390625 31.78125 6.390625 
Q 39.453125 6.390625 43.28125 13.890625 
Q 47.125 21.390625 47.125 36.375 
Q 47.125 51.421875 43.28125 58.90625 
Q 39.453125 66.40625 31.78125 66.40625 
z
M 31.78125 74.21875 
Q 44.046875 74.21875 50.515625 64.515625 
Q 56.984375 54.828125 56.984375 36.375 
Q 56.984375 17.96875 50.515625 8.265625 
Q 44.046875 -1.421875 31.78125 -1.421875 
Q 19.53125 -1.421875 13.0625 8.265625 
Q 6.59375 17.96875 6.59375 36.375 
Q 6.59375 54.828125 13.0625 64.515625 
Q 19.53125 74.21875 31.78125 74.21875 
z
" id="DejaVuSans-48"/>
        <path d="M 10.6875 12.40625 
L 21 12.40625 
L 21 0 
L 10.6875 0 
z
" id="DejaVuSans-46"/>
        <path d="M 37.796875 64.3125 
L 12.890625 25.390625 
L 37.796875 25.390625 
z
M 35.203125 72.90625 
L 47.609375 72.90625 
L 47.609375 25.390625 
L 58.015625 25.390625 
L 58.015625 17.1875 
L 47.609375 17.1875 
L 47.609375 0 
L 37.796875 0 
L 37.796875 17.1875 
L 4.890625 17.1875 
L 4.890625 26.703125 
z
" id="DejaVuSans-52"/>
       </defs>
       <use xlink:href="#DejaVuSans-48"/>
       <use x="63.623047" xlink:href="#DejaVuSans-46"/>
       <use x="95.410156" xlink:href="#DejaVuSans-52"/>
      </g>
     </g>
    </g>
    <g id="xtick_2">
     <g id="line2d_2">
      <g>
       <use style="stroke:#000000;stroke-width:0.8;" x="214.055652" xlink:href="#m58d4eea95d" y="315"/>
      </g>
     </g>
     <g id="text_2">
      <!-- 0.5 -->
      <g transform="translate(206.10409 329.598437)scale(0.1 -0.1)">
       <defs>
        <path d="M 10.796875 72.90625 
L 49.515625 72.90625 
L 49.515625 64.59375 
L 19.828125 64.59375 
L 19.828125 46.734375 
Q 21.96875 47.46875 24.109375 47.828125 
Q 26.265625 48.1875 28.421875 48.1875 
Q 40.625 48.1875 47.75 41.5 
Q 54.890625 34.8125 54.890625 23.390625 
Q 54.890625 11.625 47.5625 5.09375 
Q 40.234375 -1.421875 26.90625 -1.421875 
Q 22.3125 -1.421875 17.546875 -0.640625 
Q 12.796875 0.140625 7.71875 1.703125 
L 7.71875 11.625 
Q 12.109375 9.234375 16.796875 8.0625 
Q 21.484375 6.890625 26.703125 6.890625 
Q 35.15625 6.890625 40.078125 11.328125 
Q 45.015625 15.765625 45.015625 23.390625 
Q 45.015625 31 40.078125 35.4375 
Q 35.15625 39.890625 26.703125 39.890625 
Q 22.75 39.890625 18.8125 39.015625 
Q 14.890625 38.140625 10.796875 36.28125 
z
" id="DejaVuSans-53"/>
       </defs>
       <use xlink:href="#DejaVuSans-48"/>
       <use x="63.623047" xlink:href="#DejaVuSans-46"/>
       <use x="95.410156" xlink:href="#DejaVuSans-53"/>
      </g>
     </g>
    </g>
    <g id="xtick_3">
     <g id="line2d_3">
      <g>
       <use style="stroke:#000000;stroke-width:0.8;" x="270.876753" xlink:href="#m58d4eea95d" y="315"/>
      </g>
     </g>
     <g id="text_3">
      <!-- 0.6 -->
      <g transform="translate(262.925191 329.598437)scale(0.1 -0.1)">
       <defs>
        <path d="M 33.015625 40.375 
Q 26.375 40.375 22.484375 35.828125 
Q 18.609375 31.296875 18.609375 23.390625 
Q 18.609375 15.53125 22.484375 10.953125 
Q 26.375 6.390625 33.015625 6.390625 
Q 39.65625 6.390625 43.53125 10.953125 
Q 47.40625 15.53125 47.40625 23.390625 
Q 47.40625 31.296875 43.53125 35.828125 
Q 39.65625 40.375 33.015625 40.375 
z
M 52.59375 71.296875 
L 52.59375 62.3125 
Q 48.875 64.0625 45.09375 64.984375 
Q 41.3125 65.921875 37.59375 65.921875 
Q 27.828125 65.921875 22.671875 59.328125 
Q 17.53125 52.734375 16.796875 39.40625 
Q 19.671875 43.65625 24.015625 45.921875 
Q 28.375 48.1875 33.59375 48.1875 
Q 44.578125 48.1875 50.953125 41.515625 
Q 57.328125 34.859375 57.328125 23.390625 
Q 57.328125 12.15625 50.6875 5.359375 
Q 44.046875 -1.421875 33.015625 -1.421875 
Q 20.359375 -1.421875 13.671875 8.265625 
Q 6.984375 17.96875 6.984375 36.375 
Q 6.984375 53.65625 15.1875 63.9375 
Q 23.390625 74.21875 37.203125 74.21875 
Q 40.921875 74.21875 44.703125 73.484375 
Q 48.484375 72.75 52.59375 71.296875 
z
" id="DejaVuSans-54"/>
       </defs>
       <use xlink:href="#DejaVuSans-48"/>
       <use x="63.623047" xlink:href="#DejaVuSans-46"/>
       <use x="95.410156" xlink:href="#DejaVuSans-54"/>
      </g>
     </g>
    </g>
    <g id="xtick_4">
     <g id="line2d_4">
      <g>
       <use style="stroke:#000000;stroke-width:0.8;" x="327.697854" xlink:href="#m58d4eea95d" y="315"/>
      </g>
     </g>
     <g id="text_4">
      <!-- 0.7 -->
      <g transform="translate(319.746292 329.598437)scale(0.1 -0.1)">
       <defs>
        <path d="M 8.203125 72.90625 
L 55.078125 72.90625 
L 55.078125 68.703125 
L 28.609375 0 
L 18.3125 0 
L 43.21875 64.59375 
L 8.203125 64.59375 
z
" id="DejaVuSans-55"/>
       </defs>
       <use xlink:href="#DejaVuSans-48"/>
       <use x="63.623047" xlink:href="#DejaVuSans-46"/>
       <use x="95.410156" xlink:href="#DejaVuSans-55"/>
      </g>
     </g>
    </g>
    <g id="xtick_5">
     <g id="line2d_5">
      <g>
       <use style="stroke:#000000;stroke-width:0.8;" x="384.518955" xlink:href="#m58d4eea95d" y="315"/>
      </g>
     </g>
     <g id="text_5">
      <!-- 0.8 -->
      <g transform="translate(376.567393 329.598437)scale(0.1 -0.1)">
       <defs>
        <path d="M 31.78125 34.625 
Q 24.75 34.625 20.71875 30.859375 
Q 16.703125 27.09375 16.703125 20.515625 
Q 16.703125 13.921875 20.71875 10.15625 
Q 24.75 6.390625 31.78125 6.390625 
Q 38.8125 6.390625 42.859375 10.171875 
Q 46.921875 13.96875 46.921875 20.515625 
Q 46.921875 27.09375 42.890625 30.859375 
Q 38.875 34.625 31.78125 34.625 
z
M 21.921875 38.8125 
Q 15.578125 40.375 12.03125 44.71875 
Q 8.5 49.078125 8.5 55.328125 
Q 8.5 64.0625 14.71875 69.140625 
Q 20.953125 74.21875 31.78125 74.21875 
Q 42.671875 74.21875 48.875 69.140625 
Q 55.078125 64.0625 55.078125 55.328125 
Q 55.078125 49.078125 51.53125 44.71875 
Q 48 40.375 41.703125 38.8125 
Q 48.828125 37.15625 52.796875 32.3125 
Q 56.78125 27.484375 56.78125 20.515625 
Q 56.78125 9.90625 50.3125 4.234375 
Q 43.84375 -1.421875 31.78125 -1.421875 
Q 19.734375 -1.421875 13.25 4.234375 
Q 6.78125 9.90625 6.78125 20.515625 
Q 6.78125 27.484375 10.78125 32.3125 
Q 14.796875 37.15625 21.921875 38.8125 
z
M 18.3125 54.390625 
Q 18.3125 48.734375 21.84375 45.5625 
Q 25.390625 42.390625 31.78125 42.390625 
Q 38.140625 42.390625 41.71875 45.5625 
Q 45.3125 48.734375 45.3125 54.390625 
Q 45.3125 60.0625 41.71875 63.234375 
Q 38.140625 66.40625 31.78125 66.40625 
Q 25.390625 66.40625 21.84375 63.234375 
Q 18.3125 60.0625 18.3125 54.390625 
z
" id="DejaVuSans-56"/>
       </defs>
       <use xlink:href="#DejaVuSans-48"/>
       <use x="63.623047" xlink:href="#DejaVuSans-46"/>
       <use x="95.410156" xlink:href="#DejaVuSans-56"/>
      </g>
     </g>
    </g>
    <g id="xtick_6">
     <g id="line2d_6">
      <g>
       <use style="stroke:#000000;stroke-width:0.8;" x="441.340056" xlink:href="#m58d4eea95d" y="315"/>
      </g>
     </g>
     <g id="text_6">
      <!-- 0.9 -->
      <g transform="translate(433.388494 329.598437)scale(0.1 -0.1)">
       <defs>
        <path d="M 10.984375 1.515625 
L 10.984375 10.5 
Q 14.703125 8.734375 18.5 7.8125 
Q 22.3125 6.890625 25.984375 6.890625 
Q 35.75 6.890625 40.890625 13.453125 
Q 46.046875 20.015625 46.78125 33.40625 
Q 43.953125 29.203125 39.59375 26.953125 
Q 35.25 24.703125 29.984375 24.703125 
Q 19.046875 24.703125 12.671875 31.3125 
Q 6.296875 37.9375 6.296875 49.421875 
Q 6.296875 60.640625 12.9375 67.421875 
Q 19.578125 74.21875 30.609375 74.21875 
Q 43.265625 74.21875 49.921875 64.515625 
Q 56.59375 54.828125 56.59375 36.375 
Q 56.59375 19.140625 48.40625 8.859375 
Q 40.234375 -1.421875 26.421875 -1.421875 
Q 22.703125 -1.421875 18.890625 -0.6875 
Q 15.09375 0.046875 10.984375 1.515625 
z
M 30.609375 32.421875 
Q 37.25 32.421875 41.125 36.953125 
Q 45.015625 41.5 45.015625 49.421875 
Q 45.015625 57.28125 41.125 61.84375 
Q 37.25 66.40625 30.609375 66.40625 
Q 23.96875 66.40625 20.09375 61.84375 
Q 16.21875 57.28125 16.21875 49.421875 
Q 16.21875 41.5 20.09375 36.953125 
Q 23.96875 32.421875 30.609375 32.421875 
z
" id="DejaVuSans-57"/>
       </defs>
       <use xlink:href="#DejaVuSans-48"/>
       <use x="63.623047" xlink:href="#DejaVuSans-46"/>
       <use x="95.410156" xlink:href="#DejaVuSans-57"/>
      </g>
     </g>
    </g>
    <g id="xtick_7">
     <g id="line2d_7">
      <g>
       <use style="stroke:#000000;stroke-width:0.8;" x="498.161157" xlink:href="#m58d4eea95d" y="315"/>
      </g>
     </g>
     <g id="text_7">
      <!-- 1.0 -->
      <g transform="translate(490.209595 329.598437)scale(0.1 -0.1)">
       <defs>
        <path d="M 12.40625 8.296875 
L 28.515625 8.296875 
L 28.515625 63.921875 
L 10.984375 60.40625 
L 10.984375 69.390625 
L 28.421875 72.90625 
L 38.28125 72.90625 
L 38.28125 8.296875 
L 54.390625 8.296875 
L 54.390625 0 
L 12.40625 0 
z
" id="DejaVuSans-49"/>
       </defs>
       <use xlink:href="#DejaVuSans-49"/>
       <use x="63.623047" xlink:href="#DejaVuSans-46"/>
       <use x="95.410156" xlink:href="#DejaVuSans-48"/>
      </g>
     </g>
    </g>
    <g id="text_8">
     <!-- ttr -->
     <g transform="translate(319.251491 343.276563)scale(0.1 -0.1)">
      <defs>
       <path d="M 18.3125 70.21875 
L 18.3125 54.6875 
L 36.8125 54.6875 
L 36.8125 47.703125 
L 18.3125 47.703125 
L 18.3125 18.015625 
Q 18.3125 11.328125 20.140625 9.421875 
Q 21.96875 7.515625 27.59375 7.515625 
L 36.8125 7.515625 
L 36.8125 0 
L 27.59375 0 
Q 17.1875 0 13.234375 3.875 
Q 9.28125 7.765625 9.28125 18.015625 
L 9.28125 47.703125 
L 2.6875 47.703125 
L 2.6875 54.6875 
L 9.28125 54.6875 
L 9.28125 70.21875 
z
" id="DejaVuSans-116"/>
       <path d="M 41.109375 46.296875 
Q 39.59375 47.171875 37.8125 47.578125 
Q 36.03125 48 33.890625 48 
Q 26.265625 48 22.1875 43.046875 
Q 18.109375 38.09375 18.109375 28.8125 
L 18.109375 0 
L 9.078125 0 
L 9.078125 54.6875 
L 18.109375 54.6875 
L 18.109375 46.1875 
Q 20.953125 51.171875 25.484375 53.578125 
Q 30.03125 56 36.53125 56 
Q 37.453125 56 38.578125 55.875 
Q 39.703125 55.765625 41.0625 55.515625 
z
" id="DejaVuSans-114"/>
      </defs>
      <use xlink:href="#DejaVuSans-116"/>
      <use x="39.208984" xlink:href="#DejaVuSans-116"/>
      <use x="78.417969" xlink:href="#DejaVuSans-114"/>
     </g>
    </g>
   </g>
   <g id="matplotlib.axis_2">
    <g id="ytick_1">
     <g id="line2d_8">
      <defs>
       <path d="M 0 0 
L -3.5 0 
" id="mcf68b64b15" style="stroke:#000000;stroke-width:0.8;"/>
      </defs>
      <g>
       <use style="stroke:#000000;stroke-width:0.8;" x="135" xlink:href="#mcf68b64b15" y="315"/>
      </g>
     </g>
     <g id="text_9">
      <!-- 0 -->
      <g transform="translate(121.6375 318.799219)scale(0.1 -0.1)">
       <use xlink:href="#DejaVuSans-48"/>
      </g>
     </g>
    </g>
    <g id="ytick_2">
     <g id="line2d_9">
      <g>
       <use style="stroke:#000000;stroke-width:0.8;" x="135" xlink:href="#mcf68b64b15" y="267.063492"/>
      </g>
     </g>
     <g id="text_10">
      <!-- 20 -->
      <g transform="translate(115.275 270.862711)scale(0.1 -0.1)">
       <defs>
        <path d="M 19.1875 8.296875 
L 53.609375 8.296875 
L 53.609375 0 
L 7.328125 0 
L 7.328125 8.296875 
Q 12.9375 14.109375 22.625 23.890625 
Q 32.328125 33.6875 34.8125 36.53125 
Q 39.546875 41.84375 41.421875 45.53125 
Q 43.3125 49.21875 43.3125 52.78125 
Q 43.3125 58.59375 39.234375 62.25 
Q 35.15625 65.921875 28.609375 65.921875 
Q 23.96875 65.921875 18.8125 64.3125 
Q 13.671875 62.703125 7.8125 59.421875 
L 7.8125 69.390625 
Q 13.765625 71.78125 18.9375 73 
Q 24.125 74.21875 28.421875 74.21875 
Q 39.75 74.21875 46.484375 68.546875 
Q 53.21875 62.890625 53.21875 53.421875 
Q 53.21875 48.921875 51.53125 44.890625 
Q 49.859375 40.875 45.40625 35.40625 
Q 44.1875 33.984375 37.640625 27.21875 
Q 31.109375 20.453125 19.1875 8.296875 
z
" id="DejaVuSans-50"/>
       </defs>
       <use xlink:href="#DejaVuSans-50"/>
       <use x="63.623047" xlink:href="#DejaVuSans-48"/>
      </g>
     </g>
    </g>
    <g id="ytick_3">
     <g id="line2d_10">
      <g>
       <use style="stroke:#000000;stroke-width:0.8;" x="135" xlink:href="#mcf68b64b15" y="219.126984"/>
      </g>
     </g>
     <g id="text_11">
      <!-- 40 -->
      <g transform="translate(115.275 222.926203)scale(0.1 -0.1)">
       <use xlink:href="#DejaVuSans-52"/>
       <use x="63.623047" xlink:href="#DejaVuSans-48"/>
      </g>
     </g>
    </g>
    <g id="ytick_4">
     <g id="line2d_11">
      <g>
       <use style="stroke:#000000;stroke-width:0.8;" x="135" xlink:href="#mcf68b64b15" y="171.190476"/>
      </g>
     </g>
     <g id="text_12">
      <!-- 60 -->
      <g transform="translate(115.275 174.989695)scale(0.1 -0.1)">
       <use xlink:href="#DejaVuSans-54"/>
       <use x="63.623047" xlink:href="#DejaVuSans-48"/>
      </g>
     </g>
    </g>
    <g id="ytick_5">
     <g id="line2d_12">
      <g>
       <use style="stroke:#000000;stroke-width:0.8;" x="135" xlink:href="#mcf68b64b15" y="123.253968"/>
      </g>
     </g>
     <g id="text_13">
      <!-- 80 -->
      <g transform="translate(115.275 127.053187)scale(0.1 -0.1)">
       <use xlink:href="#DejaVuSans-56"/>
       <use x="63.623047" xlink:href="#DejaVuSans-48"/>
      </g>
     </g>
    </g>
    <g id="ytick_6">
     <g id="line2d_13">
      <g>
       <use style="stroke:#000000;stroke-width:0.8;" x="135" xlink:href="#mcf68b64b15" y="75.31746"/>
      </g>
     </g>
     <g id="text_14">
      <!-- 100 -->
      <g transform="translate(108.9125 79.116679)scale(0.1 -0.1)">
       <use xlink:href="#DejaVuSans-49"/>
       <use x="63.623047" xlink:href="#DejaVuSans-48"/>
       <use x="127.246094" xlink:href="#DejaVuSans-48"/>
      </g>
     </g>
    </g>
    <g id="text_15">
     <!-- Count -->
     <g transform="translate(102.832812 193.948437)rotate(-90)scale(0.1 -0.1)">
      <defs>
       <path d="M 64.40625 67.28125 
L 64.40625 56.890625 
Q 59.421875 61.53125 53.78125 63.8125 
Q 48.140625 66.109375 41.796875 66.109375 
Q 29.296875 66.109375 22.65625 58.46875 
Q 16.015625 50.828125 16.015625 36.375 
Q 16.015625 21.96875 22.65625 14.328125 
Q 29.296875 6.6875 41.796875 6.6875 
Q 48.140625 6.6875 53.78125 8.984375 
Q 59.421875 11.28125 64.40625 15.921875 
L 64.40625 5.609375 
Q 59.234375 2.09375 53.4375 0.328125 
Q 47.65625 -1.421875 41.21875 -1.421875 
Q 24.65625 -1.421875 15.125 8.703125 
Q 5.609375 18.84375 5.609375 36.375 
Q 5.609375 53.953125 15.125 64.078125 
Q 24.65625 74.21875 41.21875 74.21875 
Q 47.75 74.21875 53.53125 72.484375 
Q 59.328125 70.75 64.40625 67.28125 
z
" id="DejaVuSans-67"/>
       <path d="M 30.609375 48.390625 
Q 23.390625 48.390625 19.1875 42.75 
Q 14.984375 37.109375 14.984375 27.296875 
Q 14.984375 17.484375 19.15625 11.84375 
Q 23.34375 6.203125 30.609375 6.203125 
Q 37.796875 6.203125 41.984375 11.859375 
Q 46.1875 17.53125 46.1875 27.296875 
Q 46.1875 37.015625 41.984375 42.703125 
Q 37.796875 48.390625 30.609375 48.390625 
z
M 30.609375 56 
Q 42.328125 56 49.015625 48.375 
Q 55.71875 40.765625 55.71875 27.296875 
Q 55.71875 13.875 49.015625 6.21875 
Q 42.328125 -1.421875 30.609375 -1.421875 
Q 18.84375 -1.421875 12.171875 6.21875 
Q 5.515625 13.875 5.515625 27.296875 
Q 5.515625 40.765625 12.171875 48.375 
Q 18.84375 56 30.609375 56 
z
" id="DejaVuSans-111"/>
       <path d="M 8.5 21.578125 
L 8.5 54.6875 
L 17.484375 54.6875 
L 17.484375 21.921875 
Q 17.484375 14.15625 20.5 10.265625 
Q 23.53125 6.390625 29.59375 6.390625 
Q 36.859375 6.390625 41.078125 11.03125 
Q 45.3125 15.671875 45.3125 23.6875 
L 45.3125 54.6875 
L 54.296875 54.6875 
L 54.296875 0 
L 45.3125 0 
L 45.3125 8.40625 
Q 42.046875 3.421875 37.71875 1 
Q 33.40625 -1.421875 27.6875 -1.421875 
Q 18.265625 -1.421875 13.375 4.4375 
Q 8.5 10.296875 8.5 21.578125 
z
M 31.109375 56 
z
" id="DejaVuSans-117"/>
       <path d="M 54.890625 33.015625 
L 54.890625 0 
L 45.90625 0 
L 45.90625 32.71875 
Q 45.90625 40.484375 42.875 44.328125 
Q 39.84375 48.1875 33.796875 48.1875 
Q 26.515625 48.1875 22.3125 43.546875 
Q 18.109375 38.921875 18.109375 30.90625 
L 18.109375 0 
L 9.078125 0 
L 9.078125 54.6875 
L 18.109375 54.6875 
L 18.109375 46.1875 
Q 21.34375 51.125 25.703125 53.5625 
Q 30.078125 56 35.796875 56 
Q 45.21875 56 50.046875 50.171875 
Q 54.890625 44.34375 54.890625 33.015625 
z
" id="DejaVuSans-110"/>
      </defs>
      <use xlink:href="#DejaVuSans-67"/>
      <use x="69.824219" xlink:href="#DejaVuSans-111"/>
      <use x="131.005859" xlink:href="#DejaVuSans-117"/>
      <use x="194.384766" xlink:href="#DejaVuSans-110"/>
      <use x="257.763672" xlink:href="#DejaVuSans-116"/>
     </g>
    </g>
   </g>
   <g id="patch_81">
    <path d="M 135 315 
L 135 43.2 
" style="fill:none;stroke:#000000;stroke-linecap:square;stroke-linejoin:miter;stroke-width:0.8;"/>
   </g>
   <g id="patch_82">
    <path d="M 515.454545 315 
L 515.454545 43.2 
" style="fill:none;stroke:#000000;stroke-linecap:square;stroke-linejoin:miter;stroke-width:0.8;"/>
   </g>
   <g id="patch_83">
    <path d="M 135 315 
L 515.454545 315 
" style="fill:none;stroke:#000000;stroke-linecap:square;stroke-linejoin:miter;stroke-width:0.8;"/>
   </g>
   <g id="patch_84">
    <path d="M 135 43.2 
L 515.454545 43.2 
" style="fill:none;stroke:#000000;stroke-linecap:square;stroke-linejoin:miter;stroke-width:0.8;"/>
   </g>
   <g id="legend_1">
    <g id="patch_85">
     <path d="M 460.55142 109.9125 
L 508.454545 109.9125 
Q 510.454545 109.9125 510.454545 107.9125 
L 510.454545 50.2 
Q 510.454545 48.2 508.454545 48.2 
L 460.55142 48.2 
Q 458.55142 48.2 458.55142 50.2 
L 458.55142 107.9125 
Q 458.55142 109.9125 460.55142 109.9125 
z
" style="fill:#ffffff;opacity:0.8;stroke:#cccccc;stroke-linejoin:miter;"/>
    </g>
    <g id="text_16">
     <!-- #label -->
     <g transform="translate(468.22017 59.798437)scale(0.1 -0.1)">
      <defs>
       <path d="M 51.125 44 
L 36.921875 44 
L 32.8125 27.6875 
L 47.125 27.6875 
z
M 43.796875 71.78125 
L 38.71875 51.515625 
L 52.984375 51.515625 
L 58.109375 71.78125 
L 65.921875 71.78125 
L 60.890625 51.515625 
L 76.125 51.515625 
L 76.125 44 
L 58.984375 44 
L 54.984375 27.6875 
L 70.515625 27.6875 
L 70.515625 20.21875 
L 53.078125 20.21875 
L 48 0 
L 40.1875 0 
L 45.21875 20.21875 
L 30.90625 20.21875 
L 25.875 0 
L 18.015625 0 
L 23.09375 20.21875 
L 7.71875 20.21875 
L 7.71875 27.6875 
L 24.90625 27.6875 
L 29 44 
L 13.28125 44 
L 13.28125 51.515625 
L 30.90625 51.515625 
L 35.890625 71.78125 
z
" id="DejaVuSans-35"/>
       <path d="M 9.421875 75.984375 
L 18.40625 75.984375 
L 18.40625 0 
L 9.421875 0 
z
" id="DejaVuSans-108"/>
       <path d="M 34.28125 27.484375 
Q 23.390625 27.484375 19.1875 25 
Q 14.984375 22.515625 14.984375 16.5 
Q 14.984375 11.71875 18.140625 8.90625 
Q 21.296875 6.109375 26.703125 6.109375 
Q 34.1875 6.109375 38.703125 11.40625 
Q 43.21875 16.703125 43.21875 25.484375 
L 43.21875 27.484375 
z
M 52.203125 31.203125 
L 52.203125 0 
L 43.21875 0 
L 43.21875 8.296875 
Q 40.140625 3.328125 35.546875 0.953125 
Q 30.953125 -1.421875 24.3125 -1.421875 
Q 15.921875 -1.421875 10.953125 3.296875 
Q 6 8.015625 6 15.921875 
Q 6 25.140625 12.171875 29.828125 
Q 18.359375 34.515625 30.609375 34.515625 
L 43.21875 34.515625 
L 43.21875 35.40625 
Q 43.21875 41.609375 39.140625 45 
Q 35.0625 48.390625 27.6875 48.390625 
Q 23 48.390625 18.546875 47.265625 
Q 14.109375 46.140625 10.015625 43.890625 
L 10.015625 52.203125 
Q 14.9375 54.109375 19.578125 55.046875 
Q 24.21875 56 28.609375 56 
Q 40.484375 56 46.34375 49.84375 
Q 52.203125 43.703125 52.203125 31.203125 
z
" id="DejaVuSans-97"/>
       <path d="M 48.6875 27.296875 
Q 48.6875 37.203125 44.609375 42.84375 
Q 40.53125 48.484375 33.40625 48.484375 
Q 26.265625 48.484375 22.1875 42.84375 
Q 18.109375 37.203125 18.109375 27.296875 
Q 18.109375 17.390625 22.1875 11.75 
Q 26.265625 6.109375 33.40625 6.109375 
Q 40.53125 6.109375 44.609375 11.75 
Q 48.6875 17.390625 48.6875 27.296875 
z
M 18.109375 46.390625 
Q 20.953125 51.265625 25.265625 53.625 
Q 29.59375 56 35.59375 56 
Q 45.5625 56 51.78125 48.09375 
Q 58.015625 40.1875 58.015625 27.296875 
Q 58.015625 14.40625 51.78125 6.484375 
Q 45.5625 -1.421875 35.59375 -1.421875 
Q 29.59375 -1.421875 25.265625 0.953125 
Q 20.953125 3.328125 18.109375 8.203125 
L 18.109375 0 
L 9.078125 0 
L 9.078125 75.984375 
L 18.109375 75.984375 
z
" id="DejaVuSans-98"/>
       <path d="M 56.203125 29.59375 
L 56.203125 25.203125 
L 14.890625 25.203125 
Q 15.484375 15.921875 20.484375 11.0625 
Q 25.484375 6.203125 34.421875 6.203125 
Q 39.59375 6.203125 44.453125 7.46875 
Q 49.3125 8.734375 54.109375 11.28125 
L 54.109375 2.78125 
Q 49.265625 0.734375 44.1875 -0.34375 
Q 39.109375 -1.421875 33.890625 -1.421875 
Q 20.796875 -1.421875 13.15625 6.1875 
Q 5.515625 13.8125 5.515625 26.8125 
Q 5.515625 40.234375 12.765625 48.109375 
Q 20.015625 56 32.328125 56 
Q 43.359375 56 49.78125 48.890625 
Q 56.203125 41.796875 56.203125 29.59375 
z
M 47.21875 32.234375 
Q 47.125 39.59375 43.09375 43.984375 
Q 39.0625 48.390625 32.421875 48.390625 
Q 24.90625 48.390625 20.390625 44.140625 
Q 15.875 39.890625 15.1875 32.171875 
z
" id="DejaVuSans-101"/>
      </defs>
      <use xlink:href="#DejaVuSans-35"/>
      <use x="83.789062" xlink:href="#DejaVuSans-108"/>
      <use x="111.572266" xlink:href="#DejaVuSans-97"/>
      <use x="172.851562" xlink:href="#DejaVuSans-98"/>
      <use x="236.328125" xlink:href="#DejaVuSans-101"/>
      <use x="297.851562" xlink:href="#DejaVuSans-108"/>
     </g>
    </g>
    <g id="patch_86">
     <path d="M 462.55142 74.476562 
L 482.55142 74.476562 
L 482.55142 67.476562 
L 462.55142 67.476562 
z
" style="fill:#ff0000;fill-opacity:0.75;stroke:#000000;stroke-linejoin:miter;"/>
    </g>
    <g id="text_17">
     <!-- 0.0 -->
     <g transform="translate(490.55142 74.476562)scale(0.1 -0.1)">
      <use xlink:href="#DejaVuSans-48"/>
      <use x="63.623047" xlink:href="#DejaVuSans-46"/>
      <use x="95.410156" xlink:href="#DejaVuSans-48"/>
     </g>
    </g>
    <g id="patch_87">
     <path d="M 462.55142 89.154688 
L 482.55142 89.154688 
L 482.55142 82.154688 
L 462.55142 82.154688 
z
" style="fill:#0000ff;fill-opacity:0.75;stroke:#000000;stroke-linejoin:miter;"/>
    </g>
    <g id="text_18">
     <!-- 0.5 -->
     <g transform="translate(490.55142 89.154688)scale(0.1 -0.1)">
      <use xlink:href="#DejaVuSans-48"/>
      <use x="63.623047" xlink:href="#DejaVuSans-46"/>
      <use x="95.410156" xlink:href="#DejaVuSans-53"/>
     </g>
    </g>
    <g id="patch_88">
     <path d="M 462.55142 103.832812 
L 482.55142 103.832812 
L 482.55142 96.832812 
L 462.55142 96.832812 
z
" style="fill:#ffff00;fill-opacity:0.75;stroke:#000000;stroke-linejoin:miter;"/>
    </g>
    <g id="text_19">
     <!-- 1.0 -->
     <g transform="translate(490.55142 103.832812)scale(0.1 -0.1)">
      <use xlink:href="#DejaVuSans-49"/>
      <use x="63.623047" xlink:href="#DejaVuSans-46"/>
      <use x="95.410156" xlink:href="#DejaVuSans-48"/>
     </g>
    </g>
   </g>
  </g>
  <g id="axes_2">
   <g id="patch_89">
    <path d="M 591.545455 315 
L 972 315 
L 972 43.2 
L 591.545455 43.2 
z
" style="fill:#ffffff;"/>
   </g>
   <g id="patch_90">
    <path clip-path="url(#pe4584961d3)" d="M 608.838843 315 
L 623.876572 315 
L 623.876572 315 
L 608.838843 315 
z
" style="fill:#ffff00;fill-opacity:0.75;stroke:#000000;stroke-linejoin:miter;"/>
   </g>
   <g id="patch_91">
    <path clip-path="url(#pe4584961d3)" d="M 623.876572 315 
L 638.914301 315 
L 638.914301 315 
L 623.876572 315 
z
" style="fill:#ffff00;fill-opacity:0.75;stroke:#000000;stroke-linejoin:miter;"/>
   </g>
   <g id="patch_92">
    <path clip-path="url(#pe4584961d3)" d="M 638.914301 315 
L 653.95203 315 
L 653.95203 315 
L 638.914301 315 
z
" style="fill:#ffff00;fill-opacity:0.75;stroke:#000000;stroke-linejoin:miter;"/>
   </g>
   <g id="patch_93">
    <path clip-path="url(#pe4584961d3)" d="M 653.95203 315 
L 668.989759 315 
L 668.989759 312.625164 
L 653.95203 312.625164 
z
" style="fill:#ffff00;fill-opacity:0.75;stroke:#000000;stroke-linejoin:miter;"/>
   </g>
   <g id="patch_94">
    <path clip-path="url(#pe4584961d3)" d="M 668.989759 315 
L 684.027488 315 
L 684.027488 312.625164 
L 668.989759 312.625164 
z
" style="fill:#ffff00;fill-opacity:0.75;stroke:#000000;stroke-linejoin:miter;"/>
   </g>
   <g id="patch_95">
    <path clip-path="url(#pe4584961d3)" d="M 684.027488 315 
L 699.065217 315 
L 699.065217 310.250328 
L 684.027488 310.250328 
z
" style="fill:#ffff00;fill-opacity:0.75;stroke:#000000;stroke-linejoin:miter;"/>
   </g>
   <g id="patch_96">
    <path clip-path="url(#pe4584961d3)" d="M 699.065217 315 
L 714.102946 315 
L 714.102946 312.625164 
L 699.065217 312.625164 
z
" style="fill:#ffff00;fill-opacity:0.75;stroke:#000000;stroke-linejoin:miter;"/>
   </g>
   <g id="patch_97">
    <path clip-path="url(#pe4584961d3)" d="M 714.102946 315 
L 729.140676 315 
L 729.140676 298.376147 
L 714.102946 298.376147 
z
" style="fill:#ffff00;fill-opacity:0.75;stroke:#000000;stroke-linejoin:miter;"/>
   </g>
   <g id="patch_98">
    <path clip-path="url(#pe4584961d3)" d="M 729.140676 315 
L 744.178405 315 
L 744.178405 298.376147 
L 729.140676 298.376147 
z
" style="fill:#ffff00;fill-opacity:0.75;stroke:#000000;stroke-linejoin:miter;"/>
   </g>
   <g id="patch_99">
    <path clip-path="url(#pe4584961d3)" d="M 744.178405 315 
L 759.216134 315 
L 759.216134 300.750983 
L 744.178405 300.750983 
z
" style="fill:#ffff00;fill-opacity:0.75;stroke:#000000;stroke-linejoin:miter;"/>
   </g>
   <g id="patch_100">
    <path clip-path="url(#pe4584961d3)" d="M 759.216134 315 
L 774.253863 315 
L 774.253863 291.251638 
L 759.216134 291.251638 
z
" style="fill:#ffff00;fill-opacity:0.75;stroke:#000000;stroke-linejoin:miter;"/>
   </g>
   <g id="patch_101">
    <path clip-path="url(#pe4584961d3)" d="M 774.253863 315 
L 789.291592 315 
L 789.291592 272.252949 
L 774.253863 272.252949 
z
" style="fill:#ffff00;fill-opacity:0.75;stroke:#000000;stroke-linejoin:miter;"/>
   </g>
   <g id="patch_102">
    <path clip-path="url(#pe4584961d3)" d="M 789.291592 315 
L 804.329321 315 
L 804.329321 253.25426 
L 789.291592 253.25426 
z
" style="fill:#ffff00;fill-opacity:0.75;stroke:#000000;stroke-linejoin:miter;"/>
   </g>
   <g id="patch_103">
    <path clip-path="url(#pe4584961d3)" d="M 804.329321 315 
L 819.36705 315 
L 819.36705 210.507208 
L 804.329321 210.507208 
z
" style="fill:#ffff00;fill-opacity:0.75;stroke:#000000;stroke-linejoin:miter;"/>
   </g>
   <g id="patch_104">
    <path clip-path="url(#pe4584961d3)" d="M 819.36705 315 
L 834.404779 315 
L 834.404779 196.258191 
L 819.36705 196.258191 
z
" style="fill:#ffff00;fill-opacity:0.75;stroke:#000000;stroke-linejoin:miter;"/>
   </g>
   <g id="patch_105">
    <path clip-path="url(#pe4584961d3)" d="M 834.404779 315 
L 849.442508 315 
L 849.442508 217.631717 
L 834.404779 217.631717 
z
" style="fill:#ffff00;fill-opacity:0.75;stroke:#000000;stroke-linejoin:miter;"/>
   </g>
   <g id="patch_106">
    <path clip-path="url(#pe4584961d3)" d="M 849.442508 315 
L 864.480237 315 
L 864.480237 250.879423 
L 849.442508 250.879423 
z
" style="fill:#ffff00;fill-opacity:0.75;stroke:#000000;stroke-linejoin:miter;"/>
   </g>
   <g id="patch_107">
    <path clip-path="url(#pe4584961d3)" d="M 864.480237 315 
L 879.517966 315 
L 879.517966 248.504587 
L 864.480237 248.504587 
z
" style="fill:#ffff00;fill-opacity:0.75;stroke:#000000;stroke-linejoin:miter;"/>
   </g>
   <g id="patch_108">
    <path clip-path="url(#pe4584961d3)" d="M 879.517966 315 
L 894.555695 315 
L 894.555695 272.252949 
L 879.517966 272.252949 
z
" style="fill:#ffff00;fill-opacity:0.75;stroke:#000000;stroke-linejoin:miter;"/>
   </g>
   <g id="patch_109">
    <path clip-path="url(#pe4584961d3)" d="M 894.555695 315 
L 909.593424 315 
L 909.593424 307.875491 
L 894.555695 307.875491 
z
" style="fill:#ffff00;fill-opacity:0.75;stroke:#000000;stroke-linejoin:miter;"/>
   </g>
   <g id="patch_110">
    <path clip-path="url(#pe4584961d3)" d="M 909.593424 315 
L 924.631153 315 
L 924.631153 310.250328 
L 909.593424 310.250328 
z
" style="fill:#ffff00;fill-opacity:0.75;stroke:#000000;stroke-linejoin:miter;"/>
   </g>
   <g id="patch_111">
    <path clip-path="url(#pe4584961d3)" d="M 924.631153 315 
L 939.668883 315 
L 939.668883 310.250328 
L 924.631153 310.250328 
z
" style="fill:#ffff00;fill-opacity:0.75;stroke:#000000;stroke-linejoin:miter;"/>
   </g>
   <g id="patch_112">
    <path clip-path="url(#pe4584961d3)" d="M 939.668883 315 
L 954.706612 315 
L 954.706612 312.625164 
L 939.668883 312.625164 
z
" style="fill:#ffff00;fill-opacity:0.75;stroke:#000000;stroke-linejoin:miter;"/>
   </g>
   <g id="patch_113">
    <path clip-path="url(#pe4584961d3)" d="M 608.838843 315 
L 623.876572 315 
L 623.876572 315 
L 608.838843 315 
z
" style="fill:#0000ff;fill-opacity:0.75;stroke:#000000;stroke-linejoin:miter;"/>
   </g>
   <g id="patch_114">
    <path clip-path="url(#pe4584961d3)" d="M 623.876572 315 
L 638.914301 315 
L 638.914301 315 
L 623.876572 315 
z
" style="fill:#0000ff;fill-opacity:0.75;stroke:#000000;stroke-linejoin:miter;"/>
   </g>
   <g id="patch_115">
    <path clip-path="url(#pe4584961d3)" d="M 638.914301 315 
L 653.95203 315 
L 653.95203 315 
L 638.914301 315 
z
" style="fill:#0000ff;fill-opacity:0.75;stroke:#000000;stroke-linejoin:miter;"/>
   </g>
   <g id="patch_116">
    <path clip-path="url(#pe4584961d3)" d="M 653.95203 312.625164 
L 668.989759 312.625164 
L 668.989759 312.625164 
L 653.95203 312.625164 
z
" style="fill:#0000ff;fill-opacity:0.75;stroke:#000000;stroke-linejoin:miter;"/>
   </g>
   <g id="patch_117">
    <path clip-path="url(#pe4584961d3)" d="M 668.989759 312.625164 
L 684.027488 312.625164 
L 684.027488 307.875491 
L 668.989759 307.875491 
z
" style="fill:#0000ff;fill-opacity:0.75;stroke:#000000;stroke-linejoin:miter;"/>
   </g>
   <g id="patch_118">
    <path clip-path="url(#pe4584961d3)" d="M 684.027488 310.250328 
L 699.065217 310.250328 
L 699.065217 303.125819 
L 684.027488 303.125819 
z
" style="fill:#0000ff;fill-opacity:0.75;stroke:#000000;stroke-linejoin:miter;"/>
   </g>
   <g id="patch_119">
    <path clip-path="url(#pe4584961d3)" d="M 699.065217 312.625164 
L 714.102946 312.625164 
L 714.102946 298.376147 
L 699.065217 298.376147 
z
" style="fill:#0000ff;fill-opacity:0.75;stroke:#000000;stroke-linejoin:miter;"/>
   </g>
   <g id="patch_120">
    <path clip-path="url(#pe4584961d3)" d="M 714.102946 298.376147 
L 729.140676 298.376147 
L 729.140676 274.627785 
L 714.102946 274.627785 
z
" style="fill:#0000ff;fill-opacity:0.75;stroke:#000000;stroke-linejoin:miter;"/>
   </g>
   <g id="patch_121">
    <path clip-path="url(#pe4584961d3)" d="M 729.140676 298.376147 
L 744.178405 298.376147 
L 744.178405 234.25557 
L 729.140676 234.25557 
z
" style="fill:#0000ff;fill-opacity:0.75;stroke:#000000;stroke-linejoin:miter;"/>
   </g>
   <g id="patch_122">
    <path clip-path="url(#pe4584961d3)" d="M 744.178405 300.750983 
L 759.216134 300.750983 
L 759.216134 184.38401 
L 744.178405 184.38401 
z
" style="fill:#0000ff;fill-opacity:0.75;stroke:#000000;stroke-linejoin:miter;"/>
   </g>
   <g id="patch_123">
    <path clip-path="url(#pe4584961d3)" d="M 759.216134 291.251638 
L 774.253863 291.251638 
L 774.253863 167.760157 
L 759.216134 167.760157 
z
" style="fill:#0000ff;fill-opacity:0.75;stroke:#000000;stroke-linejoin:miter;"/>
   </g>
   <g id="patch_124">
    <path clip-path="url(#pe4584961d3)" d="M 774.253863 272.252949 
L 789.291592 272.252949 
L 789.291592 179.634338 
L 774.253863 179.634338 
z
" style="fill:#0000ff;fill-opacity:0.75;stroke:#000000;stroke-linejoin:miter;"/>
   </g>
   <g id="patch_125">
    <path clip-path="url(#pe4584961d3)" d="M 789.291592 253.25426 
L 804.329321 253.25426 
L 804.329321 155.885976 
L 789.291592 155.885976 
z
" style="fill:#0000ff;fill-opacity:0.75;stroke:#000000;stroke-linejoin:miter;"/>
   </g>
   <g id="patch_126">
    <path clip-path="url(#pe4584961d3)" d="M 804.329321 210.507208 
L 819.36705 210.507208 
L 819.36705 122.63827 
L 804.329321 122.63827 
z
" style="fill:#0000ff;fill-opacity:0.75;stroke:#000000;stroke-linejoin:miter;"/>
   </g>
   <g id="patch_127">
    <path clip-path="url(#pe4584961d3)" d="M 819.36705 196.258191 
L 834.404779 196.258191 
L 834.404779 148.761468 
L 819.36705 148.761468 
z
" style="fill:#0000ff;fill-opacity:0.75;stroke:#000000;stroke-linejoin:miter;"/>
   </g>
   <g id="patch_128">
    <path clip-path="url(#pe4584961d3)" d="M 834.404779 217.631717 
L 849.442508 217.631717 
L 849.442508 198.633028 
L 834.404779 198.633028 
z
" style="fill:#0000ff;fill-opacity:0.75;stroke:#000000;stroke-linejoin:miter;"/>
   </g>
   <g id="patch_129">
    <path clip-path="url(#pe4584961d3)" d="M 849.442508 250.879423 
L 864.480237 250.879423 
L 864.480237 248.504587 
L 849.442508 248.504587 
z
" style="fill:#0000ff;fill-opacity:0.75;stroke:#000000;stroke-linejoin:miter;"/>
   </g>
   <g id="patch_130">
    <path clip-path="url(#pe4584961d3)" d="M 864.480237 248.504587 
L 879.517966 248.504587 
L 879.517966 248.504587 
L 864.480237 248.504587 
z
" style="fill:#0000ff;fill-opacity:0.75;stroke:#000000;stroke-linejoin:miter;"/>
   </g>
   <g id="patch_131">
    <path clip-path="url(#pe4584961d3)" d="M 879.517966 272.252949 
L 894.555695 272.252949 
L 894.555695 272.252949 
L 879.517966 272.252949 
z
" style="fill:#0000ff;fill-opacity:0.75;stroke:#000000;stroke-linejoin:miter;"/>
   </g>
   <g id="patch_132">
    <path clip-path="url(#pe4584961d3)" d="M 894.555695 307.875491 
L 909.593424 307.875491 
L 909.593424 307.875491 
L 894.555695 307.875491 
z
" style="fill:#0000ff;fill-opacity:0.75;stroke:#000000;stroke-linejoin:miter;"/>
   </g>
   <g id="patch_133">
    <path clip-path="url(#pe4584961d3)" d="M 909.593424 310.250328 
L 924.631153 310.250328 
L 924.631153 310.250328 
L 909.593424 310.250328 
z
" style="fill:#0000ff;fill-opacity:0.75;stroke:#000000;stroke-linejoin:miter;"/>
   </g>
   <g id="patch_134">
    <path clip-path="url(#pe4584961d3)" d="M 924.631153 310.250328 
L 939.668883 310.250328 
L 939.668883 310.250328 
L 924.631153 310.250328 
z
" style="fill:#0000ff;fill-opacity:0.75;stroke:#000000;stroke-linejoin:miter;"/>
   </g>
   <g id="patch_135">
    <path clip-path="url(#pe4584961d3)" d="M 939.668883 312.625164 
L 954.706612 312.625164 
L 954.706612 312.625164 
L 939.668883 312.625164 
z
" style="fill:#0000ff;fill-opacity:0.75;stroke:#000000;stroke-linejoin:miter;"/>
   </g>
   <g id="patch_136">
    <path clip-path="url(#pe4584961d3)" d="M 608.838843 315 
L 623.876572 315 
L 623.876572 312.625164 
L 608.838843 312.625164 
z
" style="fill:#ff0000;fill-opacity:0.75;stroke:#000000;stroke-linejoin:miter;"/>
   </g>
   <g id="patch_137">
    <path clip-path="url(#pe4584961d3)" d="M 623.876572 315 
L 638.914301 315 
L 638.914301 315 
L 623.876572 315 
z
" style="fill:#ff0000;fill-opacity:0.75;stroke:#000000;stroke-linejoin:miter;"/>
   </g>
   <g id="patch_138">
    <path clip-path="url(#pe4584961d3)" d="M 638.914301 315 
L 653.95203 315 
L 653.95203 312.625164 
L 638.914301 312.625164 
z
" style="fill:#ff0000;fill-opacity:0.75;stroke:#000000;stroke-linejoin:miter;"/>
   </g>
   <g id="patch_139">
    <path clip-path="url(#pe4584961d3)" d="M 653.95203 312.625164 
L 668.989759 312.625164 
L 668.989759 291.251638 
L 653.95203 291.251638 
z
" style="fill:#ff0000;fill-opacity:0.75;stroke:#000000;stroke-linejoin:miter;"/>
   </g>
   <g id="patch_140">
    <path clip-path="url(#pe4584961d3)" d="M 668.989759 307.875491 
L 684.027488 307.875491 
L 684.027488 286.501966 
L 668.989759 286.501966 
z
" style="fill:#ff0000;fill-opacity:0.75;stroke:#000000;stroke-linejoin:miter;"/>
   </g>
   <g id="patch_141">
    <path clip-path="url(#pe4584961d3)" d="M 684.027488 303.125819 
L 699.065217 303.125819 
L 699.065217 236.630406 
L 684.027488 236.630406 
z
" style="fill:#ff0000;fill-opacity:0.75;stroke:#000000;stroke-linejoin:miter;"/>
   </g>
   <g id="patch_142">
    <path clip-path="url(#pe4584961d3)" d="M 699.065217 298.376147 
L 714.102946 298.376147 
L 714.102946 239.005242 
L 699.065217 239.005242 
z
" style="fill:#ff0000;fill-opacity:0.75;stroke:#000000;stroke-linejoin:miter;"/>
   </g>
   <g id="patch_143">
    <path clip-path="url(#pe4584961d3)" d="M 714.102946 274.627785 
L 729.140676 274.627785 
L 729.140676 198.633028 
L 714.102946 198.633028 
z
" style="fill:#ff0000;fill-opacity:0.75;stroke:#000000;stroke-linejoin:miter;"/>
   </g>
   <g id="patch_144">
    <path clip-path="url(#pe4584961d3)" d="M 729.140676 234.25557 
L 744.178405 234.25557 
L 744.178405 125.013106 
L 729.140676 125.013106 
z
" style="fill:#ff0000;fill-opacity:0.75;stroke:#000000;stroke-linejoin:miter;"/>
   </g>
   <g id="patch_145">
    <path clip-path="url(#pe4584961d3)" d="M 744.178405 184.38401 
L 759.216134 184.38401 
L 759.216134 89.390564 
L 744.178405 89.390564 
z
" style="fill:#ff0000;fill-opacity:0.75;stroke:#000000;stroke-linejoin:miter;"/>
   </g>
   <g id="patch_146">
    <path clip-path="url(#pe4584961d3)" d="M 759.216134 167.760157 
L 774.253863 167.760157 
L 774.253863 56.142857 
L 759.216134 56.142857 
z
" style="fill:#ff0000;fill-opacity:0.75;stroke:#000000;stroke-linejoin:miter;"/>
   </g>
   <g id="patch_147">
    <path clip-path="url(#pe4584961d3)" d="M 774.253863 179.634338 
L 789.291592 179.634338 
L 789.291592 129.762779 
L 774.253863 129.762779 
z
" style="fill:#ff0000;fill-opacity:0.75;stroke:#000000;stroke-linejoin:miter;"/>
   </g>
   <g id="patch_148">
    <path clip-path="url(#pe4584961d3)" d="M 789.291592 155.885976 
L 804.329321 155.885976 
L 804.329321 110.764089 
L 789.291592 110.764089 
z
" style="fill:#ff0000;fill-opacity:0.75;stroke:#000000;stroke-linejoin:miter;"/>
   </g>
   <g id="patch_149">
    <path clip-path="url(#pe4584961d3)" d="M 804.329321 122.63827 
L 819.36705 122.63827 
L 819.36705 101.264744 
L 804.329321 101.264744 
z
" style="fill:#ff0000;fill-opacity:0.75;stroke:#000000;stroke-linejoin:miter;"/>
   </g>
   <g id="patch_150">
    <path clip-path="url(#pe4584961d3)" d="M 819.36705 148.761468 
L 834.404779 148.761468 
L 834.404779 134.512451 
L 819.36705 134.512451 
z
" style="fill:#ff0000;fill-opacity:0.75;stroke:#000000;stroke-linejoin:miter;"/>
   </g>
   <g id="patch_151">
    <path clip-path="url(#pe4584961d3)" d="M 834.404779 198.633028 
L 849.442508 198.633028 
L 849.442508 196.258191 
L 834.404779 196.258191 
z
" style="fill:#ff0000;fill-opacity:0.75;stroke:#000000;stroke-linejoin:miter;"/>
   </g>
   <g id="patch_152">
    <path clip-path="url(#pe4584961d3)" d="M 849.442508 248.504587 
L 864.480237 248.504587 
L 864.480237 246.129751 
L 849.442508 246.129751 
z
" style="fill:#ff0000;fill-opacity:0.75;stroke:#000000;stroke-linejoin:miter;"/>
   </g>
   <g id="patch_153">
    <path clip-path="url(#pe4584961d3)" d="M 864.480237 248.504587 
L 879.517966 248.504587 
L 879.517966 248.504587 
L 864.480237 248.504587 
z
" style="fill:#ff0000;fill-opacity:0.75;stroke:#000000;stroke-linejoin:miter;"/>
   </g>
   <g id="patch_154">
    <path clip-path="url(#pe4584961d3)" d="M 879.517966 272.252949 
L 894.555695 272.252949 
L 894.555695 272.252949 
L 879.517966 272.252949 
z
" style="fill:#ff0000;fill-opacity:0.75;stroke:#000000;stroke-linejoin:miter;"/>
   </g>
   <g id="patch_155">
    <path clip-path="url(#pe4584961d3)" d="M 894.555695 307.875491 
L 909.593424 307.875491 
L 909.593424 307.875491 
L 894.555695 307.875491 
z
" style="fill:#ff0000;fill-opacity:0.75;stroke:#000000;stroke-linejoin:miter;"/>
   </g>
   <g id="patch_156">
    <path clip-path="url(#pe4584961d3)" d="M 909.593424 310.250328 
L 924.631153 310.250328 
L 924.631153 310.250328 
L 909.593424 310.250328 
z
" style="fill:#ff0000;fill-opacity:0.75;stroke:#000000;stroke-linejoin:miter;"/>
   </g>
   <g id="patch_157">
    <path clip-path="url(#pe4584961d3)" d="M 924.631153 310.250328 
L 939.668883 310.250328 
L 939.668883 310.250328 
L 924.631153 310.250328 
z
" style="fill:#ff0000;fill-opacity:0.75;stroke:#000000;stroke-linejoin:miter;"/>
   </g>
   <g id="patch_158">
    <path clip-path="url(#pe4584961d3)" d="M 939.668883 312.625164 
L 954.706612 312.625164 
L 954.706612 312.625164 
L 939.668883 312.625164 
z
" style="fill:#ff0000;fill-opacity:0.75;stroke:#000000;stroke-linejoin:miter;"/>
   </g>
   <g id="matplotlib.axis_3">
    <g id="xtick_8">
     <g id="line2d_14">
      <g>
       <use style="stroke:#000000;stroke-width:0.8;" x="627.817274" xlink:href="#m58d4eea95d" y="315"/>
      </g>
     </g>
     <g id="text_20">
      <!-- 6.5 -->
      <g transform="translate(619.865712 329.598437)scale(0.1 -0.1)">
       <use xlink:href="#DejaVuSans-54"/>
       <use x="63.623047" xlink:href="#DejaVuSans-46"/>
       <use x="95.410156" xlink:href="#DejaVuSans-53"/>
      </g>
     </g>
    </g>
    <g id="xtick_9">
     <g id="line2d_15">
      <g>
       <use style="stroke:#000000;stroke-width:0.8;" x="670.46946" xlink:href="#m58d4eea95d" y="315"/>
      </g>
     </g>
     <g id="text_21">
      <!-- 7.0 -->
      <g transform="translate(662.517898 329.598437)scale(0.1 -0.1)">
       <use xlink:href="#DejaVuSans-55"/>
       <use x="63.623047" xlink:href="#DejaVuSans-46"/>
       <use x="95.410156" xlink:href="#DejaVuSans-48"/>
      </g>
     </g>
    </g>
    <g id="xtick_10">
     <g id="line2d_16">
      <g>
       <use style="stroke:#000000;stroke-width:0.8;" x="713.121646" xlink:href="#m58d4eea95d" y="315"/>
      </g>
     </g>
     <g id="text_22">
      <!-- 7.5 -->
      <g transform="translate(705.170083 329.598437)scale(0.1 -0.1)">
       <use xlink:href="#DejaVuSans-55"/>
       <use x="63.623047" xlink:href="#DejaVuSans-46"/>
       <use x="95.410156" xlink:href="#DejaVuSans-53"/>
      </g>
     </g>
    </g>
    <g id="xtick_11">
     <g id="line2d_17">
      <g>
       <use style="stroke:#000000;stroke-width:0.8;" x="755.773832" xlink:href="#m58d4eea95d" y="315"/>
      </g>
     </g>
     <g id="text_23">
      <!-- 8.0 -->
      <g transform="translate(747.822269 329.598437)scale(0.1 -0.1)">
       <use xlink:href="#DejaVuSans-56"/>
       <use x="63.623047" xlink:href="#DejaVuSans-46"/>
       <use x="95.410156" xlink:href="#DejaVuSans-48"/>
      </g>
     </g>
    </g>
    <g id="xtick_12">
     <g id="line2d_18">
      <g>
       <use style="stroke:#000000;stroke-width:0.8;" x="798.426017" xlink:href="#m58d4eea95d" y="315"/>
      </g>
     </g>
     <g id="text_24">
      <!-- 8.5 -->
      <g transform="translate(790.474455 329.598437)scale(0.1 -0.1)">
       <use xlink:href="#DejaVuSans-56"/>
       <use x="63.623047" xlink:href="#DejaVuSans-46"/>
       <use x="95.410156" xlink:href="#DejaVuSans-53"/>
      </g>
     </g>
    </g>
    <g id="xtick_13">
     <g id="line2d_19">
      <g>
       <use style="stroke:#000000;stroke-width:0.8;" x="841.078203" xlink:href="#m58d4eea95d" y="315"/>
      </g>
     </g>
     <g id="text_25">
      <!-- 9.0 -->
      <g transform="translate(833.126641 329.598437)scale(0.1 -0.1)">
       <use xlink:href="#DejaVuSans-57"/>
       <use x="63.623047" xlink:href="#DejaVuSans-46"/>
       <use x="95.410156" xlink:href="#DejaVuSans-48"/>
      </g>
     </g>
    </g>
    <g id="xtick_14">
     <g id="line2d_20">
      <g>
       <use style="stroke:#000000;stroke-width:0.8;" x="883.730389" xlink:href="#m58d4eea95d" y="315"/>
      </g>
     </g>
     <g id="text_26">
      <!-- 9.5 -->
      <g transform="translate(875.778826 329.598437)scale(0.1 -0.1)">
       <use xlink:href="#DejaVuSans-57"/>
       <use x="63.623047" xlink:href="#DejaVuSans-46"/>
       <use x="95.410156" xlink:href="#DejaVuSans-53"/>
      </g>
     </g>
    </g>
    <g id="xtick_15">
     <g id="line2d_21">
      <g>
       <use style="stroke:#000000;stroke-width:0.8;" x="926.382575" xlink:href="#m58d4eea95d" y="315"/>
      </g>
     </g>
     <g id="text_27">
      <!-- 10.0 -->
      <g transform="translate(915.249762 329.598437)scale(0.1 -0.1)">
       <use xlink:href="#DejaVuSans-49"/>
       <use x="63.623047" xlink:href="#DejaVuSans-48"/>
       <use x="127.246094" xlink:href="#DejaVuSans-46"/>
       <use x="159.033203" xlink:href="#DejaVuSans-48"/>
      </g>
     </g>
    </g>
    <g id="xtick_16">
     <g id="line2d_22">
      <g>
       <use style="stroke:#000000;stroke-width:0.8;" x="969.03476" xlink:href="#m58d4eea95d" y="315"/>
      </g>
     </g>
     <g id="text_28">
      <!-- 10.5 -->
      <g transform="translate(957.901948 329.598437)scale(0.1 -0.1)">
       <use xlink:href="#DejaVuSans-49"/>
       <use x="63.623047" xlink:href="#DejaVuSans-48"/>
       <use x="127.246094" xlink:href="#DejaVuSans-46"/>
       <use x="159.033203" xlink:href="#DejaVuSans-53"/>
      </g>
     </g>
    </g>
    <g id="text_29">
     <!-- lexical_complexity_score -->
     <g transform="translate(719.91179 343.276563)scale(0.1 -0.1)">
      <defs>
       <path d="M 54.890625 54.6875 
L 35.109375 28.078125 
L 55.90625 0 
L 45.3125 0 
L 29.390625 21.484375 
L 13.484375 0 
L 2.875 0 
L 24.125 28.609375 
L 4.6875 54.6875 
L 15.28125 54.6875 
L 29.78125 35.203125 
L 44.28125 54.6875 
z
" id="DejaVuSans-120"/>
       <path d="M 9.421875 54.6875 
L 18.40625 54.6875 
L 18.40625 0 
L 9.421875 0 
z
M 9.421875 75.984375 
L 18.40625 75.984375 
L 18.40625 64.59375 
L 9.421875 64.59375 
z
" id="DejaVuSans-105"/>
       <path d="M 48.78125 52.59375 
L 48.78125 44.1875 
Q 44.96875 46.296875 41.140625 47.34375 
Q 37.3125 48.390625 33.40625 48.390625 
Q 24.65625 48.390625 19.8125 42.84375 
Q 14.984375 37.3125 14.984375 27.296875 
Q 14.984375 17.28125 19.8125 11.734375 
Q 24.65625 6.203125 33.40625 6.203125 
Q 37.3125 6.203125 41.140625 7.25 
Q 44.96875 8.296875 48.78125 10.40625 
L 48.78125 2.09375 
Q 45.015625 0.34375 40.984375 -0.53125 
Q 36.96875 -1.421875 32.421875 -1.421875 
Q 20.0625 -1.421875 12.78125 6.34375 
Q 5.515625 14.109375 5.515625 27.296875 
Q 5.515625 40.671875 12.859375 48.328125 
Q 20.21875 56 33.015625 56 
Q 37.15625 56 41.109375 55.140625 
Q 45.0625 54.296875 48.78125 52.59375 
z
" id="DejaVuSans-99"/>
       <path d="M 50.984375 -16.609375 
L 50.984375 -23.578125 
L -0.984375 -23.578125 
L -0.984375 -16.609375 
z
" id="DejaVuSans-95"/>
       <path d="M 52 44.1875 
Q 55.375 50.25 60.0625 53.125 
Q 64.75 56 71.09375 56 
Q 79.640625 56 84.28125 50.015625 
Q 88.921875 44.046875 88.921875 33.015625 
L 88.921875 0 
L 79.890625 0 
L 79.890625 32.71875 
Q 79.890625 40.578125 77.09375 44.375 
Q 74.3125 48.1875 68.609375 48.1875 
Q 61.625 48.1875 57.5625 43.546875 
Q 53.515625 38.921875 53.515625 30.90625 
L 53.515625 0 
L 44.484375 0 
L 44.484375 32.71875 
Q 44.484375 40.625 41.703125 44.40625 
Q 38.921875 48.1875 33.109375 48.1875 
Q 26.21875 48.1875 22.15625 43.53125 
Q 18.109375 38.875 18.109375 30.90625 
L 18.109375 0 
L 9.078125 0 
L 9.078125 54.6875 
L 18.109375 54.6875 
L 18.109375 46.1875 
Q 21.1875 51.21875 25.484375 53.609375 
Q 29.78125 56 35.6875 56 
Q 41.65625 56 45.828125 52.96875 
Q 50 49.953125 52 44.1875 
z
" id="DejaVuSans-109"/>
       <path d="M 18.109375 8.203125 
L 18.109375 -20.796875 
L 9.078125 -20.796875 
L 9.078125 54.6875 
L 18.109375 54.6875 
L 18.109375 46.390625 
Q 20.953125 51.265625 25.265625 53.625 
Q 29.59375 56 35.59375 56 
Q 45.5625 56 51.78125 48.09375 
Q 58.015625 40.1875 58.015625 27.296875 
Q 58.015625 14.40625 51.78125 6.484375 
Q 45.5625 -1.421875 35.59375 -1.421875 
Q 29.59375 -1.421875 25.265625 0.953125 
Q 20.953125 3.328125 18.109375 8.203125 
z
M 48.6875 27.296875 
Q 48.6875 37.203125 44.609375 42.84375 
Q 40.53125 48.484375 33.40625 48.484375 
Q 26.265625 48.484375 22.1875 42.84375 
Q 18.109375 37.203125 18.109375 27.296875 
Q 18.109375 17.390625 22.1875 11.75 
Q 26.265625 6.109375 33.40625 6.109375 
Q 40.53125 6.109375 44.609375 11.75 
Q 48.6875 17.390625 48.6875 27.296875 
z
" id="DejaVuSans-112"/>
       <path d="M 32.171875 -5.078125 
Q 28.375 -14.84375 24.75 -17.8125 
Q 21.140625 -20.796875 15.09375 -20.796875 
L 7.90625 -20.796875 
L 7.90625 -13.28125 
L 13.1875 -13.28125 
Q 16.890625 -13.28125 18.9375 -11.515625 
Q 21 -9.765625 23.484375 -3.21875 
L 25.09375 0.875 
L 2.984375 54.6875 
L 12.5 54.6875 
L 29.59375 11.921875 
L 46.6875 54.6875 
L 56.203125 54.6875 
z
" id="DejaVuSans-121"/>
       <path d="M 44.28125 53.078125 
L 44.28125 44.578125 
Q 40.484375 46.53125 36.375 47.5 
Q 32.28125 48.484375 27.875 48.484375 
Q 21.1875 48.484375 17.84375 46.4375 
Q 14.5 44.390625 14.5 40.28125 
Q 14.5 37.15625 16.890625 35.375 
Q 19.28125 33.59375 26.515625 31.984375 
L 29.59375 31.296875 
Q 39.15625 29.25 43.1875 25.515625 
Q 47.21875 21.78125 47.21875 15.09375 
Q 47.21875 7.46875 41.1875 3.015625 
Q 35.15625 -1.421875 24.609375 -1.421875 
Q 20.21875 -1.421875 15.453125 -0.5625 
Q 10.6875 0.296875 5.421875 2 
L 5.421875 11.28125 
Q 10.40625 8.6875 15.234375 7.390625 
Q 20.0625 6.109375 24.8125 6.109375 
Q 31.15625 6.109375 34.5625 8.28125 
Q 37.984375 10.453125 37.984375 14.40625 
Q 37.984375 18.0625 35.515625 20.015625 
Q 33.0625 21.96875 24.703125 23.78125 
L 21.578125 24.515625 
Q 13.234375 26.265625 9.515625 29.90625 
Q 5.8125 33.546875 5.8125 39.890625 
Q 5.8125 47.609375 11.28125 51.796875 
Q 16.75 56 26.8125 56 
Q 31.78125 56 36.171875 55.265625 
Q 40.578125 54.546875 44.28125 53.078125 
z
" id="DejaVuSans-115"/>
      </defs>
      <use xlink:href="#DejaVuSans-108"/>
      <use x="27.783203" xlink:href="#DejaVuSans-101"/>
      <use x="87.556641" xlink:href="#DejaVuSans-120"/>
      <use x="146.736328" xlink:href="#DejaVuSans-105"/>
      <use x="174.519531" xlink:href="#DejaVuSans-99"/>
      <use x="229.5" xlink:href="#DejaVuSans-97"/>
      <use x="290.779297" xlink:href="#DejaVuSans-108"/>
      <use x="318.5625" xlink:href="#DejaVuSans-95"/>
      <use x="368.5625" xlink:href="#DejaVuSans-99"/>
      <use x="423.542969" xlink:href="#DejaVuSans-111"/>
      <use x="484.724609" xlink:href="#DejaVuSans-109"/>
      <use x="582.136719" xlink:href="#DejaVuSans-112"/>
      <use x="645.613281" xlink:href="#DejaVuSans-108"/>
      <use x="673.396484" xlink:href="#DejaVuSans-101"/>
      <use x="733.169922" xlink:href="#DejaVuSans-120"/>
      <use x="792.349609" xlink:href="#DejaVuSans-105"/>
      <use x="820.132812" xlink:href="#DejaVuSans-116"/>
      <use x="859.341797" xlink:href="#DejaVuSans-121"/>
      <use x="918.521484" xlink:href="#DejaVuSans-95"/>
      <use x="968.521484" xlink:href="#DejaVuSans-115"/>
      <use x="1020.621094" xlink:href="#DejaVuSans-99"/>
      <use x="1075.601562" xlink:href="#DejaVuSans-111"/>
      <use x="1136.783203" xlink:href="#DejaVuSans-114"/>
      <use x="1175.646484" xlink:href="#DejaVuSans-101"/>
     </g>
    </g>
   </g>
   <g id="matplotlib.axis_4">
    <g id="ytick_7">
     <g id="line2d_23">
      <g>
       <use style="stroke:#000000;stroke-width:0.8;" x="591.545455" xlink:href="#mcf68b64b15" y="315"/>
      </g>
     </g>
     <g id="text_30">
      <!-- 0 -->
      <g transform="translate(578.182955 318.799219)scale(0.1 -0.1)">
       <use xlink:href="#DejaVuSans-48"/>
      </g>
     </g>
    </g>
    <g id="ytick_8">
     <g id="line2d_24">
      <g>
       <use style="stroke:#000000;stroke-width:0.8;" x="591.545455" xlink:href="#mcf68b64b15" y="267.503277"/>
      </g>
     </g>
     <g id="text_31">
      <!-- 20 -->
      <g transform="translate(571.820455 271.302495)scale(0.1 -0.1)">
       <use xlink:href="#DejaVuSans-50"/>
       <use x="63.623047" xlink:href="#DejaVuSans-48"/>
      </g>
     </g>
    </g>
    <g id="ytick_9">
     <g id="line2d_25">
      <g>
       <use style="stroke:#000000;stroke-width:0.8;" x="591.545455" xlink:href="#mcf68b64b15" y="220.006553"/>
      </g>
     </g>
     <g id="text_32">
      <!-- 40 -->
      <g transform="translate(571.820455 223.805772)scale(0.1 -0.1)">
       <use xlink:href="#DejaVuSans-52"/>
       <use x="63.623047" xlink:href="#DejaVuSans-48"/>
      </g>
     </g>
    </g>
    <g id="ytick_10">
     <g id="line2d_26">
      <g>
       <use style="stroke:#000000;stroke-width:0.8;" x="591.545455" xlink:href="#mcf68b64b15" y="172.50983"/>
      </g>
     </g>
     <g id="text_33">
      <!-- 60 -->
      <g transform="translate(571.820455 176.309048)scale(0.1 -0.1)">
       <use xlink:href="#DejaVuSans-54"/>
       <use x="63.623047" xlink:href="#DejaVuSans-48"/>
      </g>
     </g>
    </g>
    <g id="ytick_11">
     <g id="line2d_27">
      <g>
       <use style="stroke:#000000;stroke-width:0.8;" x="591.545455" xlink:href="#mcf68b64b15" y="125.013106"/>
      </g>
     </g>
     <g id="text_34">
      <!-- 80 -->
      <g transform="translate(571.820455 128.812325)scale(0.1 -0.1)">
       <use xlink:href="#DejaVuSans-56"/>
       <use x="63.623047" xlink:href="#DejaVuSans-48"/>
      </g>
     </g>
    </g>
    <g id="ytick_12">
     <g id="line2d_28">
      <g>
       <use style="stroke:#000000;stroke-width:0.8;" x="591.545455" xlink:href="#mcf68b64b15" y="77.516383"/>
      </g>
     </g>
     <g id="text_35">
      <!-- 100 -->
      <g transform="translate(565.457955 81.315601)scale(0.1 -0.1)">
       <use xlink:href="#DejaVuSans-49"/>
       <use x="63.623047" xlink:href="#DejaVuSans-48"/>
       <use x="127.246094" xlink:href="#DejaVuSans-48"/>
      </g>
     </g>
    </g>
    <g id="text_36">
     <!-- Count -->
     <g transform="translate(559.378267 193.948437)rotate(-90)scale(0.1 -0.1)">
      <use xlink:href="#DejaVuSans-67"/>
      <use x="69.824219" xlink:href="#DejaVuSans-111"/>
      <use x="131.005859" xlink:href="#DejaVuSans-117"/>
      <use x="194.384766" xlink:href="#DejaVuSans-110"/>
      <use x="257.763672" xlink:href="#DejaVuSans-116"/>
     </g>
    </g>
   </g>
   <g id="patch_159">
    <path d="M 591.545455 315 
L 591.545455 43.2 
" style="fill:none;stroke:#000000;stroke-linecap:square;stroke-linejoin:miter;stroke-width:0.8;"/>
   </g>
   <g id="patch_160">
    <path d="M 972 315 
L 972 43.2 
" style="fill:none;stroke:#000000;stroke-linecap:square;stroke-linejoin:miter;stroke-width:0.8;"/>
   </g>
   <g id="patch_161">
    <path d="M 591.545455 315 
L 972 315 
" style="fill:none;stroke:#000000;stroke-linecap:square;stroke-linejoin:miter;stroke-width:0.8;"/>
   </g>
   <g id="patch_162">
    <path d="M 591.545455 43.2 
L 972 43.2 
" style="fill:none;stroke:#000000;stroke-linecap:square;stroke-linejoin:miter;stroke-width:0.8;"/>
   </g>
   <g id="legend_2">
    <g id="patch_163">
     <path d="M 917.096875 109.9125 
L 965 109.9125 
Q 967 109.9125 967 107.9125 
L 967 50.2 
Q 967 48.2 965 48.2 
L 917.096875 48.2 
Q 915.096875 48.2 915.096875 50.2 
L 915.096875 107.9125 
Q 915.096875 109.9125 917.096875 109.9125 
z
" style="fill:#ffffff;opacity:0.8;stroke:#cccccc;stroke-linejoin:miter;"/>
    </g>
    <g id="text_37">
     <!-- #label -->
     <g transform="translate(924.765625 59.798437)scale(0.1 -0.1)">
      <use xlink:href="#DejaVuSans-35"/>
      <use x="83.789062" xlink:href="#DejaVuSans-108"/>
      <use x="111.572266" xlink:href="#DejaVuSans-97"/>
      <use x="172.851562" xlink:href="#DejaVuSans-98"/>
      <use x="236.328125" xlink:href="#DejaVuSans-101"/>
      <use x="297.851562" xlink:href="#DejaVuSans-108"/>
     </g>
    </g>
    <g id="patch_164">
     <path d="M 919.096875 74.476562 
L 939.096875 74.476562 
L 939.096875 67.476562 
L 919.096875 67.476562 
z
" style="fill:#ff0000;fill-opacity:0.75;stroke:#000000;stroke-linejoin:miter;"/>
    </g>
    <g id="text_38">
     <!-- 0.0 -->
     <g transform="translate(947.096875 74.476562)scale(0.1 -0.1)">
      <use xlink:href="#DejaVuSans-48"/>
      <use x="63.623047" xlink:href="#DejaVuSans-46"/>
      <use x="95.410156" xlink:href="#DejaVuSans-48"/>
     </g>
    </g>
    <g id="patch_165">
     <path d="M 919.096875 89.154688 
L 939.096875 89.154688 
L 939.096875 82.154688 
L 919.096875 82.154688 
z
" style="fill:#0000ff;fill-opacity:0.75;stroke:#000000;stroke-linejoin:miter;"/>
    </g>
    <g id="text_39">
     <!-- 0.5 -->
     <g transform="translate(947.096875 89.154688)scale(0.1 -0.1)">
      <use xlink:href="#DejaVuSans-48"/>
      <use x="63.623047" xlink:href="#DejaVuSans-46"/>
      <use x="95.410156" xlink:href="#DejaVuSans-53"/>
     </g>
    </g>
    <g id="patch_166">
     <path d="M 919.096875 103.832812 
L 939.096875 103.832812 
L 939.096875 96.832812 
L 919.096875 96.832812 
z
" style="fill:#ffff00;fill-opacity:0.75;stroke:#000000;stroke-linejoin:miter;"/>
    </g>
    <g id="text_40">
     <!-- 1.0 -->
     <g transform="translate(947.096875 103.832812)scale(0.1 -0.1)">
      <use xlink:href="#DejaVuSans-49"/>
      <use x="63.623047" xlink:href="#DejaVuSans-46"/>
      <use x="95.410156" xlink:href="#DejaVuSans-48"/>
     </g>
    </g>
   </g>
  </g>
 </g>
 <defs>
  <clipPath id="p14369bf7d9">
   <rect height="271.8" width="380.454545" x="135" y="43.2"/>
  </clipPath>
  <clipPath id="pe4584961d3">
   <rect height="271.8" width="380.454545" x="591.545455" y="43.2"/>
  </clipPath>
 </defs>
</svg>
